<?xml version="1.0" encoding="utf-8"?>
<!-- Generator: Adobe Illustrator 26.0.2, SVG Export Plug-In . SVG Version: 6.00 Build 0)  -->
<svg version="1.1" id="Layer_1" xmlns="http://www.w3.org/2000/svg" xmlns:xlink="http://www.w3.org/1999/xlink" x="0px" y="0px"
	 viewBox="0 0 1920 1080" style="enable-background:new 0 0 1920 1080;" xml:space="preserve">
<style type="text/css">
	.st0{display:none;}
	.st1{display:inline;}
	.st2{fill:#FFFFFF;}
	.st3{fill:#E32027;}
	.st4{fill:#231F20;}
</style>
<image style="display:none;overflow:visible;enable-background:new    ;" width="3000" height="2000" xlink:href="6EDEC07.png"  transform="matrix(0.24 0 0 0.24 600 300)">
</image>
<g id="Layer_2_00000131353510360004033800000005174439335965278108_" class="st0">
	<g id="Layer_1-2" class="st1">
		<rect x="684.9" y="441.1" class="st2" width="200.3" height="200.3"/>
		<path class="st3" d="M825.5,634.5c-1-7-1-14.2,0-21.2c1.8-11.4,5-22.5,9.5-33c4.4-10.8,9-19.9,10-32.5c0.8-9.2-0.7-18.4-4.2-26.8
			c-3.9-8.7-10-15.1-14.1-23.5c-6.4-13-5.5-30.1-2.7-44.4c0.8-4.1,1.8-8.1,3.1-12h-17c-0.6,1.7-1.2,3.4-1.8,5.1
			c-2.1,6.4-3.1,13.2-3.1,19.9c0.5,18.1,11.1,30.2,17.9,44.8c6.4,13.7,8.8,28.9,6.9,43.9c-2,13.3-6.3,26.2-12.7,38
			c-8.5,19.8-8.7,35.3-4.7,48.6h14.2C826.1,638.1,825.6,635.3,825.5,634.5z"/>
		<path class="st3" d="M865.5,446.2c-2.1,6.4-3.2,13.2-3.1,19.9c0.4,18.1,11.1,30.3,17.9,44.8c2,4.2,3.6,8.7,4.8,13.2v-83h-17.9
			C866.6,442.8,866,444.5,865.5,446.2z"/>
		<path class="st3" d="M864.2,580.3c4.4-10.8,9-19.9,10-32.5c0.8-9.1-0.7-18.3-4.2-26.8c-3.9-8.7-10-15.1-14.1-23.5
			c-6.4-13-5.5-30.1-2.7-44.4c0.8-4.1,1.8-8.1,3.1-12.1h-18c-0.6,1.7-1.2,3.4-1.8,5.1c-2.1,6.4-3.1,13.2-3.1,19.9
			c0.4,18.1,11.1,30.3,17.9,44.8c6.4,13.7,8.8,28.9,6.9,43.9c-2,13.3-6.3,26.2-12.7,38c-8.5,19.8-8.7,35.3-4.7,48.6H856
			c-0.7-3.3-1.2-6.1-1.3-6.9c-1-7-1-14.2-0.1-21.2C856.3,602,859.5,590.9,864.2,580.3z"/>
		<path class="st3" d="M874.5,592.8c-8.5,19.8-8.7,35.3-4.7,48.6h15.3v-75.6C882.7,575.2,879.1,584.2,874.5,592.8z"/>
		<path class="st3" d="M797.5,634.5c-1-7-1-14.2-0.1-21.2c1.8-11.4,5-22.5,9.6-33c4.4-10.8,9-19.9,10-32.5
			c0.8-9.2-0.7-18.4-4.2-26.8c-3.9-8.7-10-15.1-14.1-23.5c-6.4-13-5.5-30.1-2.7-44.4c0.8-4.1,1.8-8.1,3.1-12h-114v18.4H772v20.1
			h-87.1v5.3H772v7.3L744.4,623h-59.5v18.4h113.8C798,638.1,797.5,635.3,797.5,634.5z"/>
		<polygon class="st3" points="760.5,494.8 684.9,494.8 684.9,511.1 707.9,511.1 745.4,511.1 745.4,515.3 707.9,515.3 684.9,515.3 
			684.9,585.8 707.9,585.8 731,585.8 731,590 707.9,590 684.9,590 684.9,605.5 737.2,605.5 		"/>
		<path class="st4" d="M909.9,556.2h8.9l18.9,37l19.1-37h8.9v48h-7.5v-35l-16.7,31.5h-7.6l-16.5-31.4v34.8h-7.5L909.9,556.2
			L909.9,556.2z"/>
		<path class="st4" d="M982.2,556.2v28.2c0,2.5,0.6,5,1.9,7.2c1.2,2.1,2.9,3.8,5,4.9c4.4,2.3,9.6,2.3,14,0c2.1-1.2,3.8-2.8,5-4.9
			c1.2-2.2,1.9-4.7,1.8-7.3v-28.2h7.5v28.5c0,3.9-1,7.7-3,11.1c-1.8,3-4.5,5.5-7.7,7c-6.8,3.1-14.7,3.1-21.5,0c-3.2-1.5-5.8-4-7.7-7
			c-2-3.3-3-7.2-3-11.1v-28.5L982.2,556.2L982.2,556.2z"/>
		<path class="st4" d="M1024.4,569.1c-0.1-2.8,0.9-5.5,2.7-7.7c1.9-2.2,4.4-3.8,7.2-4.7c3.1-1,6.4-1.6,9.7-1.5
			c4.2-0.1,8.3,0.5,12.3,1.8c3.2,1,6.1,2.7,8.5,5.1l-3.7,5.9c-2.1-2.2-4.7-3.8-7.6-4.7c-3.2-1-6.5-1.6-9.9-1.6
			c-3.1-0.1-6.1,0.6-8.9,1.9c-2.1,0.8-3.5,2.9-3.6,5.1c0,1.6,0.7,3.2,2.1,4.1c1.5,1.1,3.2,2,4.9,2.4c2.1,0.6,4.7,1.2,8,1.8
			c3.6,0.7,7.2,1.5,10.7,2.6c2.6,0.8,5,2.2,7,4.1c2,2,3,4.7,2.9,7.5c0.1,2.8-0.9,5.6-2.8,7.7c-2,2.2-4.6,3.8-7.4,4.6
			c-3.2,1-6.5,1.5-9.9,1.5c-4.3,0-8.6-0.6-12.8-1.8c-3.3-0.9-6.4-2.7-8.8-5.1l3.7-6c2.1,2.3,4.8,3.9,7.8,4.7
			c3.3,1.1,6.8,1.6,10.2,1.6c2.2,0,4.3-0.3,6.3-0.9c1.8-0.5,3.4-1.4,4.8-2.6c1.1-0.9,1.8-2.3,1.8-3.8c0.1-1.6-0.7-3.1-1.9-4.1
			c-1.5-1.1-3.1-1.9-4.9-2.4c-2.1-0.6-4.7-1.2-8.1-1.8c-3.6-0.6-7.1-1.5-10.6-2.5c-2.6-0.8-5-2.2-7-4.1
			C1025.2,574.5,1024.2,571.8,1024.4,569.1z"/>
		<path class="st4" d="M1073.6,604.3v-48h38.8v6.1h-31.2v14.8h26.6v6.1h-26.6v14.8h31.2v6.1L1073.6,604.3z"/>
		<path class="st4" d="M1128.1,556.2v28.2c0,2.5,0.6,5,1.9,7.2c1.2,2.1,2.9,3.8,5,4.9c2.1,1.2,4.5,1.8,7,1.8c2.4,0,4.8-0.6,7-1.8
			c2.1-1.1,3.8-2.8,5-4.9c1.3-2.2,1.9-4.7,1.9-7.3v-28.2h7.5v28.5c0.1,3.9-0.9,7.7-2.9,11.1c-1.8,3-4.5,5.4-7.7,7
			c-6.8,3.1-14.7,3.2-21.6,0.1c-3.2-1.5-5.8-4-7.7-7c-2-3.3-3-7.2-2.9-11.1v-28.5H1128.1L1128.1,556.2z"/>
		<path class="st4" d="M1172.3,556.2h8.9l18.9,37l19.1-37h8.9v48h-7.6v-35l-16.7,31.5h-7.6l-16.5-31.3v34.8h-7.5L1172.3,556.2
			L1172.3,556.2z"/>
		<path class="st4" d="M908.2,510.2c-0.1-9.6,7.7-17.4,17.3-17.5c0.1,0,0.2,0,0.2,0c2.7,0,5.4,0.6,7.8,1.9c2.4,1.2,4.5,3,6.1,5.1
			l-5.5,4.1c-1.9-2.8-5-4.4-8.3-4.4c-1.8,0-3.7,0.5-5.2,1.5s-2.8,2.3-3.7,4c-0.9,1.6-1.4,3.5-1.3,5.3c0,1.8,0.5,3.7,1.3,5.3
			c0.9,1.6,2.1,3,3.7,4c1.5,1,3.4,1.5,5.2,1.5c3.3,0,6.5-1.7,8.3-4.5l5.5,4.2c-1.6,2.1-3.7,3.9-6.1,5.1c-5.3,2.7-11.6,2.5-16.7-0.5
			c-2.6-1.5-4.8-3.7-6.3-6.3C909,516.2,908.2,513.2,908.2,510.2z"/>
		<path class="st4" d="M953.4,493.4v19.4c-0.1,2.1,0.6,4.2,1.9,5.8c2.7,2.9,7.2,3,10,0.3c0.1-0.1,0.2-0.2,0.3-0.3
			c1.3-1.7,2-3.7,1.9-5.8v-19.3h8V513c0.1,2.9-0.7,5.7-2.2,8.2c-1.3,2.1-3.2,3.8-5.5,4.8c-4.7,2-10.1,2-14.8,0
			c-2.2-1-4.2-2.7-5.5-4.8c-1.5-2.5-2.2-5.3-2.2-8.2v-19.6H953.4L953.4,493.4z"/>
		<path class="st4" d="M981.7,527.1v-33.7h15.8c2.7-0.1,5.3,0.4,7.8,1.5c1.9,0.8,3.5,2.2,4.7,3.9c2,3.5,2,7.8,0,11.4
			c-1.1,1.8-2.7,3.2-4.7,4.1c-2.5,1.1-5.1,1.6-7.8,1.5h-7.9v11.4L981.7,527.1L981.7,527.1z M989.6,509.2h7.9
			c1.6,0.1,3.2-0.3,4.5-1.2c1-0.8,1.6-2.1,1.5-3.4c0.1-1.3-0.5-2.5-1.5-3.4c-1.3-0.9-2.9-1.3-4.5-1.2h-7.9V509.2z"/>
		<path class="st4" d="M1016.3,527.1v-33.7h8.9l15.2,21.4v-21.4h7.9v33.7h-8.8l-15.3-21.5v21.5H1016.3L1016.3,527.1z"/>
		<path class="st4" d="M1053.5,510.1c0-3.1,0.8-6.1,2.4-8.8c1.5-2.6,3.8-4.8,6.4-6.4c5.4-3.1,12.1-3.1,17.6,0
			c2.7,1.5,4.9,3.7,6.4,6.4c3.2,5.5,3.2,12.2,0,17.6c-1.6,2.6-3.8,4.8-6.4,6.3c-5.5,3.1-12.1,3.1-17.6,0c-2.7-1.5-4.9-3.7-6.4-6.3
			C1054.3,516.3,1053.5,513.2,1053.5,510.1z M1061.2,510.1c0,1.9,0.4,3.8,1.3,5.4c0.8,1.6,2.1,2.9,3.6,3.9c1.5,0.9,3.2,1.4,4.9,1.4
			c1.8,0,3.5-0.5,5-1.4s2.8-2.3,3.6-3.9c1.8-3.4,1.8-7.5,0-10.9c-0.8-1.6-2.1-3-3.6-3.9c-1.5-1-3.2-1.5-5-1.4
			c-1.8,0-3.5,0.5-4.9,1.4c-1.5,1-2.8,2.3-3.6,3.9C1061.7,506.3,1061.2,508.2,1061.2,510.1L1061.2,510.1z"/>
		<path class="st4" d="M1092.8,510.1c0-3.1,0.8-6.1,2.4-8.8c4.9-8.4,15.7-11.2,24.1-6.3c2.6,1.5,4.8,3.7,6.3,6.3
			c3.2,5.5,3.2,12.2,0,17.6c-1.6,2.6-3.8,4.8-6.4,6.3c-5.5,3.1-12.1,3.1-17.6,0c-2.7-1.5-4.9-3.7-6.4-6.3
			C1093.6,516.3,1092.8,513.2,1092.8,510.1z M1100.5,510.1c0,1.9,0.4,3.8,1.3,5.4c0.8,1.6,2.1,2.9,3.6,3.9c1.5,0.9,3.2,1.4,4.9,1.4
			c1.8,0,3.5-0.5,5-1.4s2.8-2.3,3.6-3.9c1.8-3.4,1.8-7.5,0-10.9c-0.8-1.6-2.1-3-3.6-3.9c-1.5-1-3.2-1.5-5-1.4
			c-1.8,0-3.5,0.5-4.9,1.4c-1.5,1-2.8,2.3-3.6,3.9C1101,506.3,1100.5,508.2,1100.5,510.1L1100.5,510.1z"/>
		<path class="st4" d="M1132.9,493.4h11.6c3.4-0.1,6.7,0.6,9.8,2c8.2,4.1,11.5,14.1,7.4,22.3c-0.2,0.4-0.4,0.8-0.7,1.2
			c-1.6,2.6-4,4.7-6.7,6c-3.1,1.4-6.4,2.1-9.8,2h-11.6L1132.9,493.4L1132.9,493.4z M1144.5,520.5c2.1,0.1,4.1-0.4,5.9-1.4
			c1.6-0.8,2.9-2.2,3.8-3.8c1.7-3.3,1.7-7.2,0-10.4c-0.9-1.6-2.2-2.9-3.8-3.7c-1.8-1-3.9-1.4-5.9-1.4h-3.6v20.6L1144.5,520.5
			L1144.5,520.5z"/>
		<path class="st4" d="M1168.3,493.4h7.8v27.1h18.4v6.5h-26.3L1168.3,493.4L1168.3,493.4z"/>
		<path class="st4" d="M1200.4,527.1v-33.7h27.8v6.5h-19.9v7.1h16.7v6.5h-16.7v7.1h19.9v6.5H1200.4L1200.4,527.1z"/>
	</g>
</g>
<g id="Layer_2_00000159464369517927813380000011149684799014185868_">
	<g id="Layer_1-2_00000018212173030794075850000011220254303332804486_">
		<g id="logo">
			<g id="Group_410">
				<path id="Path_148" d="M932.5,589h-16.8c-1.7,0-3.3-0.5-4.7-1.4c-1.1-0.9-2-2-2.5-3.4l-5.6-16.2h-35.9l-5.6,16.2
					c-0.6,1.3-1.4,2.4-2.5,3.4c-1.3,0.9-2.9,1.4-4.4,1.3h-17.3l36.5-94.1h22.5L932.5,589z M872,552.9h25.8l-8.7-25.8
					c-0.6-2-1.2-3.9-2-5.8c-0.9-2.4-1.6-4.8-2.3-7.2c-0.5,2.5-1.3,5-2.3,7.4c-0.6,2-1.2,4-2,5.9L872,552.9z"/>
				<path id="Path_149" d="M979.8,494.8c0.6,0.1,1.2,0.2,1.8,0.5l1.6,0.9c0.6,0.5,1.1,1.1,1.5,1.8l44.8,56.6c0-1.8,0-3.6,0-5.3
					c0-1.8,0-3.4,0-4.8v-49.8h19.2v94.1h-12c-1.5,0-2.9-0.2-4.3-0.7c-1.3-0.7-2.5-1.7-3.3-2.9l-44.4-56c0.2,1.6,0.2,3.1,0,4.7
					c0,1.6,0,3.2,0,4.5v50.4h-18.8v-94.1h11.5C978.2,494.8,979,494.9,979.8,494.8z"/>
				<path id="Path_150" d="M1150.2,494.8v16.9h-38.6V536h32.3v16.2h-32.3v36.7h-21.9v-94H1150.2z"/>
				<path id="Path_151" d="M1211.4,589h-22v-94.2h22V589z"/>
				<path id="Path_152" d="M1254.6,589v-94.2h34.7c5.4,0,10.9,0.6,16.2,1.9c4.1,0.9,7.9,2.6,11.2,5.1c2.7,2.1,4.9,4.9,6.3,8.1
					c1.3,3.3,2,6.9,2,10.5c0.1,2.1-0.2,4.1-0.9,6.1c-0.7,2-1.7,3.9-2.9,5.7c-1.4,1.8-3,3.4-4.9,4.7c-2.3,1.6-4.8,2.8-7.4,3.6
					c5.2,1,10,3.6,13.7,7.4c3.1,3.6,4.7,8.3,4.5,13c0.2,7.7-3.1,15.2-9,20.2c-3.3,2.6-7,4.7-11,6.1c-4.8,1.6-9.9,2.3-15,2.2h-37.9
					L1254.6,589z M1276.6,534.5h11.5c2.2,0,4.3-0.2,6.5-0.4c1.7-0.3,3.4-0.9,4.9-1.8c1.4-0.9,2.4-2.1,3.1-3.6
					c0.8-1.7,1.2-3.7,1.1-5.6c0.1-1.9-0.2-3.8-0.9-5.6c-0.5-1.5-1.4-2.7-2.7-3.6c-1.4-0.9-2.9-1.6-4.5-2c-2-0.5-4.1-0.7-6.2-0.6
					h-12.8V534.5z M1276.6,549v23.4h15.4c2.4,0.1,4.9-0.3,7.2-1.1c1.7-0.6,3.1-1.6,4.3-3c1.1-1.1,1.9-2.5,2.3-4
					c0.4-1.4,0.6-2.9,0.6-4.4c0-1.6-0.2-3.2-0.6-4.7c-0.5-1.4-1.2-2.6-2.3-3.6c-1.2-1.1-2.7-1.9-4.3-2.2c-2.3-0.5-4.6-0.8-6.9-0.7
					h-15.7V549z"/>
				<path id="Path_153" d="M1389.3,589h-21.9v-94.2h21.9V589z"/>
				<path id="Path_154" d="M1525.6,541.9c0.1,6.5-1.1,13-3.6,19.1c-2.2,5.7-5.5,11-9.9,15.4c-4.4,4.4-9.7,7.8-15.5,10.1
					c-6.4,2.5-13.1,3.7-20,3.6c-6.8,0.1-13.6-1.1-20-3.6c-5.8-2.3-11-5.7-15.4-10.1c-4.3-4.3-7.7-9.5-9.9-15.2
					c-2.4-6.1-3.6-12.5-3.6-19.1c-0.1-6.5,1.2-13,3.6-19.1c2.2-5.7,5.5-10.9,9.9-15.2c4.4-4.4,9.6-7.8,15.4-10.1
					c12.8-5,27.1-5,39.9,0c5.8,2.2,11.1,5.7,15.5,10c4.3,4.4,7.7,9.6,9.9,15.3C1524.4,529.1,1525.6,535.5,1525.6,541.9z
					 M1503.2,541.9c0-4.2-0.6-8.4-1.8-12.5c-1-3.5-2.8-6.7-5.2-9.5c-2.2-2.6-5-4.7-8.1-6.1c-3.5-1.5-7.3-2.3-11.1-2.2
					c-3.8-0.1-7.6,0.6-11.2,2c-3.1,1.4-5.9,3.4-8.1,6.1c-2.3,2.8-4.1,6-5.2,9.5c-2.4,8.2-2.4,16.9,0,25c1,3.5,2.8,6.7,5.2,9.5
					c2.2,2.5,5,4.5,8.1,5.8c7.2,2.7,15.2,2.7,22.4,0c3.1-1.3,5.8-3.3,8.1-5.8c2.4-2.8,4.1-6,5.2-9.5
					C1502.7,550.3,1503.2,546.1,1503.2,541.9z"/>
			</g>
			<g id="Group_412">
				<g id="izI06T">
					<g id="Group_411">
						<path id="Path_155" d="M394.4,687.5c26.3,0.4,31.4-24.2,38.3-41.5c8.1-18.8,10.3-30.2,19.1-48.5c10.7-24,32.2-41.5,57.9-47
							c16.1-2.7,32.5-2.5,48.5,0.4l1.8,4.9c-19.7,0-27.3,12.5-33.1,26.3c-8.1,19.5-15.3,39.2-22.5,59
							C486.1,690.2,435.9,711.3,394.4,687.5z"/>
					</g>
				</g>
				<path id="Path_156" d="M741.8,697.6h-66.6c-8.3,0-15.9-4.8-19.5-12.4L536,382.4h66.8c8.3,0,15.9,4.8,19.5,12.4L741.8,697.6z"/>
			</g>
		</g>
	</g>
</g>
</svg>
