<?xml version="1.0" encoding="utf-8"?>
<!-- Generator: Adobe Illustrator 26.0.2, SVG Export Plug-In . SVG Version: 6.00 Build 0)  -->
<svg version="1.1" id="Layer_1" xmlns="http://www.w3.org/2000/svg" xmlns:xlink="http://www.w3.org/1999/xlink" x="0px" y="0px"
	 viewBox="0 0 1920 1080" style="enable-background:new 0 0 1920 1080;" xml:space="preserve">
<style type="text/css">
	.st0{display:none;}
	.st1{display:inline;}
	.st2{fill:#FFFFFF;}
	.st3{fill:#E32027;}
	.st4{fill:#231F20;}
	.st5{fill:#E9A353;}
</style>
<image style="display:none;overflow:visible;enable-background:new    ;" width="3000" height="2000" xlink:href="E690D514.png"  transform="matrix(0.24 0 0 0.24 600 300)">
</image>
<g id="Layer_2_00000131353510360004033800000005174439335965278108_" class="st0">
	<g id="Layer_1-2" class="st1">
		<rect x="487.8" y="341.5" class="st2" width="349.6" height="349.6"/>
		<path class="st3" d="M733.3,679.1c-1.7-12.3-1.7-24.7,0-37c3.1-19.8,8.7-39.2,16.7-57.6c7.6-18.9,15.8-34.8,17.4-56.7
			c1.4-16-1.1-32.1-7.4-46.8c-6.8-15.1-17.4-26.3-24.6-41c-11.2-22.6-9.7-52.5-4.8-77.5c1.4-7.1,3.2-14.1,5.4-21h-29.7
			c-1.1,2.9-2.1,5.9-3.1,8.9c-3.7,11.2-5.5,23-5.4,34.8c0.9,31.5,19.4,52.8,31.3,78.2c11.2,23.9,15.4,50.5,12.1,76.6
			c-3.5,23.2-11,45.6-22.2,66.2c-14.9,34.5-15.3,61.6-8.2,84.8h24.8C734.4,685.3,733.5,680.4,733.3,679.1z"/>
		<path class="st3" d="M803.1,350.3c-3.7,11.2-5.5,23-5.4,34.8c0.8,31.5,19.4,52.9,31.3,78.2c3.5,7.4,6.3,15.1,8.4,23V341.5h-31.3
			C805,344.4,804,347.3,803.1,350.3z"/>
		<path class="st3" d="M800.8,584.4c7.6-18.9,15.8-34.8,17.4-56.7c1.4-15.9-1.2-32-7.4-46.7c-6.8-15.1-17.4-26.3-24.6-41
			c-11.1-22.6-9.7-52.5-4.8-77.5c1.4-7.1,3.2-14.2,5.4-21.1h-31.5c-1.1,2.9-2.1,5.9-3.1,8.9c-3.7,11.2-5.5,23-5.4,34.8
			c0.7,31.5,19.4,52.9,31.3,78.2c11.2,23.9,15.4,50.5,12.1,76.6c-3.5,23.2-11,45.6-22.2,66.2c-14.9,34.5-15.3,61.6-8.2,84.8h26.6
			c-1.2-5.7-2-10.7-2.2-12c-1.8-12.3-1.8-24.7-0.2-37C787.1,622.2,792.7,602.8,800.8,584.4z"/>
		<path class="st3" d="M818.9,606.2c-14.9,34.5-15.2,61.6-8.2,84.8h26.8V559C833.1,575.4,826.9,591.3,818.9,606.2z"/>
		<path class="st3" d="M684.3,679.1c-1.8-12.3-1.8-24.7-0.2-37c3.1-19.8,8.7-39.2,16.7-57.6c7.6-18.9,15.8-34.8,17.4-56.7
			c1.4-16-1.1-32.1-7.4-46.8c-6.8-15.1-17.4-26.3-24.6-41c-11.2-22.6-9.7-52.5-4.8-77.5c1.4-7.1,3.2-14.1,5.4-21H487.8v32.2h152
			v35.1h-152v9.2h152v12.7L591.7,659H487.8v32.2h198.6C685.3,685.3,684.3,680.4,684.3,679.1z"/>
		<polygon class="st3" points="619.9,435.2 487.8,435.2 487.8,463.6 528,463.6 593.5,463.6 593.5,470.9 528,470.9 487.8,470.9 
			487.8,594.1 528,594.1 568.3,594.1 568.3,601.4 528,601.4 487.8,601.4 487.8,628.4 579.2,628.4 		"/>
		<path class="st4" d="M880.6,542.4h15.5l33,64.6l33.4-64.6h15.6v83.8H965v-61.1l-29.2,55h-13.3l-28.8-54.7v60.7h-13.2L880.6,542.4
			L880.6,542.4z"/>
		<path class="st4" d="M1006.9,542.4v49.1c-0.1,4.4,1,8.8,3.2,12.7c2.1,3.6,5.1,6.6,8.8,8.6c7.6,4.1,16.8,4.1,24.4,0
			c3.6-2,6.7-5,8.8-8.5c2.2-3.9,3.3-8.3,3.2-12.7v-49.1h13.2v49.7c0.1,6.8-1.7,13.5-5.2,19.3c-3.2,5.3-7.9,9.6-13.4,12.3
			c-11.9,5.4-25.7,5.4-37.6,0c-5.5-2.7-10.2-6.9-13.4-12.2c-3.5-5.8-5.3-12.5-5.2-19.3v-49.8L1006.9,542.4L1006.9,542.4z"/>
		<path class="st4" d="M1080.4,564.8c-0.2-4.9,1.6-9.7,4.8-13.4c3.4-3.8,7.7-6.6,12.6-8.2c5.5-1.8,11.2-2.7,17-2.7
			c7.3-0.1,14.5,1,21.4,3.1c5.6,1.7,10.7,4.8,14.8,8.9l-6.5,10.2c-3.6-3.9-8.1-6.7-13.2-8.2c-5.6-1.8-11.4-2.8-17.2-2.8
			c-5.4-0.2-10.7,1-15.5,3.4c-3.7,1.5-6.2,5-6.3,9c-0.1,2.8,1.3,5.5,3.6,7.2c2.6,2,5.5,3.4,8.7,4.2c3.6,1,8.2,2,14,3.2
			c6.3,1.2,12.5,2.7,18.6,4.5c4.6,1.4,8.7,3.8,12.2,7.2c3.4,3.5,5.2,8.2,5,13.1c0.2,4.9-1.6,9.7-4.9,13.4c-3.5,3.8-8,6.6-12.9,8.1
			c-5.6,1.8-11.4,2.7-17.3,2.6c-7.6,0.1-15.1-1-22.3-3.2c-5.8-1.6-11.1-4.7-15.4-8.9l6.4-10.5c3.7,4,8.4,6.8,13.7,8.2
			c5.8,1.9,11.8,2.8,17.9,2.9c3.8,0,7.5-0.5,11.1-1.6c3.1-0.9,5.9-2.4,8.3-4.5c1.9-1.7,3.1-4.1,3.1-6.6c0.1-2.8-1.2-5.5-3.4-7.2
			c-2.6-1.9-5.5-3.3-8.6-4.1c-3.6-1-8.2-2.1-14.1-3.2c-6.3-1.1-12.5-2.6-18.6-4.4c-4.6-1.4-8.8-3.8-12.2-7.2
			C1081.9,574.2,1080.2,569.6,1080.4,564.8z"/>
		<path class="st4" d="M1166.3,626.3v-83.8h67.6v10.7h-54.5v25.8h46.4v10.7h-46.4v25.8h54.5v10.7L1166.3,626.3z"/>
		<path class="st4" d="M1261.4,542.4v49.1c-0.1,4.4,1.1,8.8,3.2,12.7c2.1,3.6,5.1,6.6,8.8,8.6c3.7,2,7.9,3.1,12.2,3.1
			c4.3,0,8.5-1,12.2-3.1c3.6-2,6.7-5,8.8-8.5c2.2-3.9,3.3-8.3,3.2-12.7v-49.1h13.2v49.7c0.1,6.8-1.7,13.5-5.2,19.3
			c-3.2,5.2-7.9,9.5-13.4,12.2c-12,5.5-25.7,5.5-37.7,0.1c-5.5-2.7-10.2-6.9-13.4-12.2c-3.5-5.8-5.3-12.5-5.2-19.3v-49.8
			L1261.4,542.4L1261.4,542.4z"/>
		<path class="st4" d="M1338.6,542.4h15.5l33.1,64.6l33.4-64.6h15.6v83.8H1423v-61.1l-29.2,55h-13.3l-28.8-54.6v60.7h-13.2V542.4z"
			/>
		<path class="st4" d="M877.7,462c-0.1-16.8,13.4-30.4,30.2-30.5c0.1,0,0.3,0,0.4,0c4.8,0,9.5,1.1,13.7,3.3c4.2,2.1,7.9,5.2,10.7,9
			l-9.7,7.1c-3.2-4.8-8.7-7.7-14.5-7.7c-3.2,0-6.4,0.9-9.1,2.6c-2.7,1.7-4.9,4.1-6.4,6.9c-1.6,2.8-2.4,6-2.4,9.2
			c0,3.2,0.8,6.4,2.4,9.2c1.5,2.8,3.7,5.2,6.4,6.9c2.7,1.7,5.9,2.6,9.1,2.6c5.8,0,11.2-3,14.5-7.8l9.7,7.4
			c-2.8,3.7-6.5,6.8-10.7,8.9c-9.3,4.6-20.2,4.3-29.2-0.9c-4.5-2.6-8.3-6.5-11-11C879.1,472.6,877.7,467.3,877.7,462z"/>
		<path class="st4" d="M956.6,432.7v33.8c-0.2,3.7,1,7.2,3.3,10.1c4.7,5,12.5,5.3,17.5,0.6c0.2-0.2,0.4-0.4,0.6-0.6
			c2.3-2.9,3.5-6.5,3.3-10.2v-33.7h14v34.2c0.1,5-1.2,10-3.8,14.3c-2.3,3.7-5.6,6.6-9.5,8.4c-8.2,3.6-17.6,3.6-25.8,0
			c-3.9-1.8-7.2-4.7-9.5-8.4c-2.5-4.3-3.8-9.3-3.8-14.3v-34.2L956.6,432.7L956.6,432.7z"/>
		<path class="st4" d="M1005.9,491.5v-58.8h27.6c4.7-0.1,9.3,0.7,13.7,2.5c3.3,1.4,6.2,3.8,8.1,6.9c3.5,6.1,3.5,13.7,0,19.8
			c-1.9,3.1-4.7,5.6-8.1,7.1c-4.3,1.8-9,2.7-13.7,2.6h-13.8v19.9L1005.9,491.5L1005.9,491.5z M1019.7,460.3h13.8
			c2.8,0.2,5.6-0.6,7.9-2.1c1.8-1.5,2.8-3.7,2.6-6c0.1-2.3-0.8-4.5-2.6-5.9c-2.3-1.6-5.1-2.3-7.9-2.1h-13.8L1019.7,460.3
			L1019.7,460.3z"/>
		<path class="st4" d="M1066.4,491.5v-58.8h15.5l26.5,37.4v-37.4h13.8v58.8h-15.3l-26.7-37.6v37.6H1066.4z"/>
		<path class="st4" d="M1131.3,461.9c-0.1-5.4,1.4-10.7,4.2-15.4c2.7-4.6,6.6-8.4,11.2-11.1c9.5-5.4,21.2-5.4,30.7,0
			c4.6,2.6,8.5,6.5,11.2,11.1c5.5,9.5,5.5,21.2,0,30.8c-2.7,4.6-6.6,8.4-11.2,11.1c-9.5,5.4-21.2,5.4-30.7,0
			c-4.6-2.7-8.5-6.5-11.2-11.1C1132.7,472.6,1131.2,467.3,1131.3,461.9z M1144.7,461.9c0,3.3,0.8,6.5,2.4,9.4
			c1.5,2.8,3.6,5.1,6.3,6.8c2.6,1.6,5.6,2.5,8.6,2.5c3.1,0,6.1-0.9,8.7-2.5c2.7-1.6,4.8-4,6.3-6.8c3.1-5.9,3.1-13,0-18.9
			c-1.4-2.8-3.6-5.1-6.3-6.8c-2.6-1.7-5.6-2.5-8.7-2.5c-3.1,0-6.1,0.8-8.6,2.5c-2.7,1.7-4.8,4-6.3,6.8
			C1145.5,455.3,1144.7,458.6,1144.7,461.9L1144.7,461.9z"/>
		<path class="st4" d="M1199.9,461.9c-0.1-5.4,1.4-10.7,4.2-15.4c8.6-14.6,27.4-19.6,42.1-11c4.5,2.7,8.3,6.4,10.9,11
			c5.5,9.5,5.5,21.2,0,30.8c-2.7,4.6-6.6,8.4-11.2,11.1c-9.5,5.4-21.2,5.4-30.7,0c-4.6-2.6-8.5-6.5-11.2-11.1
			C1201.3,472.6,1199.8,467.3,1199.9,461.9z M1213.3,461.9c0,3.3,0.8,6.5,2.4,9.4c1.4,2.8,3.6,5.1,6.3,6.8c2.6,1.6,5.6,2.5,8.6,2.5
			c3.1,0,6.1-0.9,8.7-2.5c2.7-1.6,4.8-4,6.3-6.8c3.1-5.9,3.1-13,0-18.9c-1.4-2.8-3.6-5.1-6.3-6.8c-2.6-1.7-5.6-2.5-8.7-2.5
			c-3.1,0-6.1,0.8-8.6,2.5c-2.7,1.7-4.8,4-6.3,6.8C1214.1,455.3,1213.3,458.6,1213.3,461.9L1213.3,461.9z"/>
		<path class="st4" d="M1269.9,432.7h20.2c5.9-0.1,11.7,1.1,17,3.6c14.3,7.2,20.1,24.6,12.8,38.9c-0.3,0.7-0.7,1.4-1.1,2
			c-2.9,4.5-6.9,8.1-11.7,10.4c-5.3,2.5-11.2,3.7-17,3.6h-20.2V432.7z M1290.1,480.1c3.6,0.1,7.2-0.7,10.3-2.4
			c2.8-1.5,5.1-3.8,6.5-6.5c3-5.7,3-12.5,0-18.2c-1.5-2.8-3.8-5-6.5-6.5c-3.2-1.7-6.7-2.5-10.3-2.4h-6.3v36L1290.1,480.1
			L1290.1,480.1z"/>
		<path class="st4" d="M1331.7,432.7h13.7v47.4h32.2v11.4h-45.8L1331.7,432.7L1331.7,432.7z"/>
		<path class="st4" d="M1387.6,491.5v-58.8h48.6V444h-34.7v12.3h29.2v11.3h-29.2v12.4h34.7v11.4L1387.6,491.5L1387.6,491.5z"/>
	</g>
</g>
<g id="Layer_2_00000061432658761665415080000003123231503355095975_" class="st0">
	<g id="v2_-_Person" class="st1">
		<path class="st5" d="M1231.5,318c0.8,1.5,1.1,3.3,2.8,4.3c0.4,0.2,0.6,1,0.6,1.6c-0.1,1,0.5,2,1.4,2.5c0.8,0.2,1.3,1.1,1,2
			c0,0.1,0,0.1-0.1,0.2c-0.2,0.6-0.3,1.2-0.3,1.8l0.6-0.5l1.4,4.8l-1,0.3l0.1,2.5l-1.9-0.4v-2.1l-2.9,0.3c0,1.7-0.7,2.1-2.1,1.8
			c-0.5,0-1.2,0.6-1.6,1c-1.1,1.2-1.1,1.3-2.3,1.4l0.3-1.6l-1.4,1l-1-0.9l-0.6,1.2l0.8,0.7h-1.4l0.1,0.7c-2.4,0.3-4.8,1.1-6.8,2.5
			c-0.5,0.2-1,0.4-1.5,0.5c-1.4,0.1-2.8,0.4-4.1,0.8c-1,0.5-2.1,0.3-3.1,0.8c-0.6,0.3-1.2,0.6-1.9,0.9c-0.5,0.2-0.9,0.2-1.4,0.3
			c-0.6,0-1.2,0-1.7,0l0.6,1.3c-0.1,0.1-0.2,0.2-0.3,0.2c-1.3-0.5-2.9-0.3-4,0.5c-1.8,1.5-4.1,1.1-6.2,1.3c-2-0.2-4.1,0.3-5.8,1.3
			c-0.8,0.8-2.1,1.1-3.2,0.8c-1.3-0.4-1.1,0.9-1.5,1.4l-2.4,0.2l0.2,0.3c-0.3,0.4-0.5,1-0.9,1.1c-1.9,0.6-3.9,1-5.8,1.4l3-2.7
			c-1.2,0.8-2.8,0.8-3.1,2.5c-1.1,0.7-2.8,0.2-3.6,1.6c-0.1,0.2-0.9,0-1.3,0l-2.8-0.3l-0.1,0.4l0.9,1.1c-0.7,0.3-1.3,1.2-1.8,0
			c-1.2,0.3-2.5,0.5-3.8,0.6c-1.4,0-2,1-2.8,2.3l2.1-0.4l0.1,0.5l-2.5,0.5c-0.2,0-0.5,0-0.7,0c-0.2,0-1.1,0.2-1.6,0.4l-2.9,0.8
			l-2.6-0.4c0,0.2,0.2,0.5,0.2,0.4l-12.5,5.7c0.2,0.2,0.4,0.3,0.6,0.5c0.3,0.1,0.6,0.2,0.9,0.2l-1.9,0.8c-1.4,0.6-2.8,1-4.1,1.7
			c-0.7,0.3-1.1,1.2-1.8,1.6c-1.3,0.6-2.6,1.1-4,1.5c0,0,0,0.3,0,0.6l-8.5,4.1l-1.2,1.6c-2.3,3-6,4-8.8,6.2c-0.3,0.3-0.7,0.5-1,0.8
			c-0.7,0.9-1.8,1.3-2.9,1.3c-1.3,0-2.7,1.1-4.1,1.7l0.1,0.4l1.5-0.3c0.2,1.8-0.2,2.1-1.9,1.6l-0.1,0.9l-0.2-0.3
			c-0.7,0.4-1.3,0.8-1.9,1.3c-1.8,1.7-3.5,3.5-5.2,5.3c-0.2,0.1-0.4,0.2-0.6,0.1c-1.4,0-2.6,0.9-3.1,2.1c-0.2,0.5-0.5,1-0.8,1.4
			c-0.4,0.5-1.3,0.7-0.5,1.6c0.2,0.2-0.6,1.1-0.9,1.7s-0.2,0.8-0.3,1.1c-0.2,0.3-0.3,0.6-0.6,0.9c-0.3,0.3-0.7,0.6-1,0.9l0.3,0.3
			l0.7-0.4l0.2,0.2l-1.4,1.2l1.1,0.4l-3.7,2.7l-1.2-1l0.7-1.9l-1.3,0.5l-2.1-2.4l2.4-1.6c-1.6-0.4-2.1-1.6-1.7-2.4l-2.1-3.3l0.3-0.2
			c-0.5-0.1-1.1-0.1-1.6-0.1c-0.2,0-0.6,0.4-0.6,0.5c0.1,0.3,0.3,0.6,0.5,0.8c0,0,0.4,0,0.4,0c1.1,1.6,2.1,3.1,3.3,4.7l-0.4,0.4
			l-2.1-1l-0.3,0.3c0.2,0.3,0.3,0.6,0.5,0.9c0.3,0.3,0.7,0.6,0.8,0.9c0.1,0.3,0.1,0.7,0,1c-0.3,0-0.8,0-0.9-0.2
			c-0.8-1.2-2.3-2.1-1.4-4c-0.8-0.9-1.6-2.1-2.6-2.7c-0.6-0.3-1.2-0.5-1.4-1.1c-0.3-0.6-0.6-1.5-0.8-2.1c-0.1-0.3,0-0.8-0.3-1
			c-1.4-1.1-1.3-2.8-2-4.3c-2.5-6.1-4-12.5-4.3-19.1c0-1.7-0.1-3.4-0.3-5.1c-0.9-3.2,0-6.4,0.2-9.4c0.1-3.5,0.4-6.9,1.1-10.3
			c1.2-5.2,3.1-10.2,4.6-15.3c0.3-1.1,0.4-2.4,0.7-3.6c0.4-1.9,0.9-3.7,1.5-5.6c2.6-7,6.4-13.5,11.3-19.2c0.7-0.9,1.4-1.8,2.1-2.6
			c0.5-0.5,1.1-0.9,1.8-1.2c0.2,0,0.4-0.2,0.5-0.4c1.9-3,4.3-5.7,7-7.9c2.8-2.5,5.4-5.2,8.2-7.8c0.9-0.8,1.9-1.4,2.9-2
			c2.1-1.4,4.4-2.8,6.7-4.1c4.5-2.9,9.3-5.4,14.4-7.2c3.5-1.1,7-2.1,10.5-3.2c0.3-0.1,0.6-0.1,0.9,0c1.4,0.8,2.8,0,4.2-0.3
			s2.7-0.3,4-0.5c0.2,0,0.5,0,0.5,0c0.3-1,1.2-0.8,1.9-1.1c1.3-0.5,1.6-0.6,2.5,0.7c0,0.1,0.4,0.2,0.5,0.1c2.3-1.3,5-1.7,7.6-1.2
			c0.9,0,1.9,0,2.8-0.1h0.2c2.3,0.3,4.6,0.5,6.9,0.8c1.1,0.2,2.1,0.5,3.1,0.9c0.3,0,0.5,0.5,0.8,0.7c0.4,0.2,0.7,0.5,1.1,0.7
			l0.3-0.4l-1.2-0.9c1.6,0,3.1,0,3.6,1.8c0,0.2,0.5,0.5,0.6,0.5c1.3-0.5,2.1,1,3.4,0.8l-0.2-0.7l6,1.7c1.2,0.3,2.2,0.9,3.1,1.8
			c1.1,0.9,2.2,1.6,3.4,2.1c2.1,1.3,4.3,2.5,6.4,3.8c0,0,0.1,0,0.1,0c0.3,0.6,0.4,1.3,0.8,1.6c0.4,0.3,1.4,0,1.9,0.4
			c1.8,1.2,3.5,2.5,5.4,3.9l-1.5,1.5c0.3,0,0.8,0.2,0.9,0c0.7-0.8,1.2-0.4,1.7,0c1.1,1.1,2,2.1,3,3.3c0.2,0.3,0.6,0.4,0.8,0.7
			c0.6,0.7,2.1,0.9,1.5,2.3c0,0,0.2,0.3,0.3,0.4c1.2,0.7,1.7,2.4,3.5,2.4c0.1,0,0.3,0.2,0.4,0.4c1,1.5,2.1,3,3.1,4.5
			c0.6,0.9,1,2,1.6,3c0.2,0.3,0.5,0.5,0.9,0.6l-1.4-2.4l0.4-0.3l4.4,4.9V308c1.1,2.8,4.3,4.7,3.5,8.2l-0.6,0.3
			c-0.2-0.5-0.5-1-0.7-1.6c0,0,0.3-0.3,0.5-0.6l-4.3-4.9l-0.3,0.2L1231.5,318L1231.5,318z M1067.9,382.6c-1-8.3-1-16.7,0-25
			c-0.7,0.6-1.3,1.4-1.8,2.1c-0.3,0.9-0.6,2.5-0.2,2.8c0.9,0.6,1.2,1.8,0.7,2.7c-1.1,1.9-0.2,3.9-0.3,5.8c-0.2,3,0.3,6.1,0.4,9.1
			C1066.8,381.2,1066.7,382.1,1067.9,382.6z M1094.9,394.8l0.3,0.3l3.1-2.1l-1-1.7C1095.5,391.7,1095.8,393.7,1094.9,394.8z
			 M1120.6,373.8l0.3,0.5c1.8-0.5,3.3-1.6,4.3-3.2l-0.2-0.4l-2.9,1.5l0.2,0.9L1120.6,373.8z M1184.4,274.4c1,1.7,3.1,1.7,4.5,2.8
			c-0.5-0.5-0.5-1.6-0.9-1.8C1186.8,275,1185.7,274.6,1184.4,274.4L1184.4,274.4z M1107.9,384.5l2.6-1.2
			C1108.6,382.6,1108.4,382.7,1107.9,384.5z M1084.4,400.3l-0.3-1.4c-2.5,1.6-2.4,1.4-1.6,3l0.6-1.8L1084.4,400.3z M1112.9,383.4
			c-0.8-1.9,1.3-1,1.7-1.9c-1.6-0.5-2.1,0.9-3.4,1.7L1112.9,383.4z M1177.5,273.2l0.3-0.4l-1.2-1.1l-0.6,1.2L1177.5,273.2z"/>
		<path class="st5" d="M1345.5,416.6c-0.4,0.6-0.8,1.1-1.3,1.7c-0.6,0.6-1.3,0.5-1.6-0.9l-0.7,2l-3.3,3.3l1.8,0.4l-2.2,0.4v0.7
			l-5.8,4.1c0.9,1.9,0.8,2-1.3,1.9c-1.1,0-2.5-0.2-2.6,1.6c0,0.5-0.2,0.9-0.5,1.3c-0.2,0.3-1,0.5-1.1,0.4c-1.1-1.1-1.6-0.7-2.1,0.6
			l0.8,0.5c-0.8,1.9-3,2.8-4.9,2c0,0-0.1,0-0.1-0.1l-0.9,1.4h2.4v0.3l-4.2,2.9l-0.2-0.3l0.8-0.7c-0.5-0.9-1.1-1-2-0.3
			c-2.1,2-4.4,3.9-6.6,5.9c-0.3,0.2-0.8,0.3-1.1,0.5s-0.9,0.7-1.4,1c-0.5,0.2-0.9,0.5-1.4,0.8c-0.3,0.3-0.5,0.9-0.9,1
			c-0.3,0.1-0.7-0.5-1.1-0.7c-0.4-0.2-0.3,0.1-0.2,0.3s-0.1,0.8-0.3,0.9c-1.6,0.7-3,1.8-4.1,3.1c-0.2,0.2-0.4,0.3-0.7,0.4
			c-0.9,0.3-1.6,1-2.1,1.8c-0.8,1.3-2.3,1.5-3.7,1.8c-0.9,0.4-1.8,0.9-2.5,1.5c-0.2,0.1-0.3,0.5-0.5,0.5c-1.6,0.3-3,1.2-4,2.6
			c-0.7,0.6-1.5,1.1-2.3,1.5c-1.1,0.7-2.6,1.2-3,2.1c-0.6,1.2-1.7,2.2-3,2.7c-0.7,0.3-1.4,0.5-2.1,0.6l0.1,0.9l-8.5,4.7
			c-0.4,0.5-0.8,1.1-1.2,1.6c-1.8,1.9-4.1,3.4-6.6,4.4c-1.7,0.8-3.2,1.9-4.9,2.8c-0.3,0.2-0.7,0.3-1.1,0.2c-1.5-0.5-3.1,0.4-3.5,1.9
			c0,0,0,0.1,0,0.1c-0.1,0.3-0.4,0.8-0.6,0.8c-4,0.5-6.9,3.2-10.2,5c-0.4,0.2-1.1,0-1.5,0.3c-1.1,0.5-2.1,1.1-3.2,1.6
			s-2,0.8-3.1,1.2l-0.3-0.4c0.4-0.5,1-0.9,1.6-1.2c1.1-0.4,2.1-0.1,2.7-1.8c0.3-0.9,2-1.4,3.1-2l2.6-1.5l-0.9-0.6l1.6-0.8l0.2,0.2
			l-0.6,0.6v0.2l6.7-4.6v-0.1c0.3-0.3,0.6-0.8,0.9-0.9c1.9-0.3,3.6-1.3,5-2.6l-1.9-0.3c0.2-0.5,0.2-1.1,0.5-1.5
			c1.4-1.9,3.5-3.1,5.8-3.4c0.8-0.2,1.7-0.4,2.4-0.8c0.2,0,0.5,0.3,0.7,0.3c0.8-0.2,1.9-1,2.4-0.7c1.2,0.8,1.1-0.2,1.6-0.6
			c-1.6-1.1-2.6-1-3.6,0.3c-0.3,0.3-0.7,0.6-1.1,0.8v-0.7l-1.1,0.5l-0.4-0.3c0.8-1.2,1.7-2.3,2.8-3.3c1.8-1.1,3.7-2,5.6-2.9
			c1.5-0.8,2.9-1.7,4.5-2.6l-0.8-0.7c1.5-0.3,3.1-0.3,3.3-2.7l0.7,1.5l1.5-1l-0.1-0.3h-1.3v-0.1l3.6-1.3l-0.5-0.6l3.1-1.2l-0.1-0.5
			l-1.1-0.2c0.3-0.8,1.9-1,0.7-2.5l8.5-2.4h-2c0.5-1.4,2.7-1.6,2.1-3l6.2-4.8c-2.1-1.3-3.6,0.8-5.7,0.6c0.5-0.6,0.7-1.2,1.1-1.4
			c2.7-1.2,5.4-2.3,8.1-3.5c1.1-0.5,2.1-1,3.4-1.5l-1-1.8l1.9,0.6l0.5-1.3l-0.8-0.3l1.9-4l1.9,0.8V428c-1,0-1,0-0.3-1.5l-2.1,0.4
			c0.6-1.6,1.4-1.9,3-1.8c1.3,0,2.6-0.1,3.9-0.3v-0.5l-1.3-0.6l0.8-0.9l-1.8-0.6l5.5-4.1l-1.5-1.7l3.6-0.2c-0.1-0.8-0.2-1.6-0.2-2.4
			c0-0.1,0.5-0.5,0.8-0.4c0.5,0.1,0.9,0.3,1.3,0.5c0.8,0.5,1.4,0.2,1.8-0.6c0.3-0.4,0.7-0.8,1.1-1.2h-2.5l0.7,1.3l-0.2,0.2l-1.6-1.3
			c1.1-2.1,1.8-2.5,3.7-1.9v-1.3l-1.8,0.3l-0.2-0.4c1.3-0.5,1-2.5,2.8-2.6c0.5,0,1-0.9,1.5-1.3c1.7-1.2,3-2.8,3.7-4.7
			c0.6-1.1,1.3-2.2,2.1-3.2c0.3-0.4,0.6-0.9,0.8-1.4c0.4-1.4,1.2-2.6,2.1-3.7c0.5-0.5,0.4-1.5,0.6-2.1c0.4-1.6,0.9-3.2,1.4-5.2
			l-2.9,1.5l-0.2-0.2c0.5-0.3,0.9-0.8,1.4-1.1c1.5-0.9,1.6-1.1,0.9-2.8c-0.2-0.4-0.3-0.7-0.5-1l-1,0.7l-1.2-3.8h-0.4
			c-0.2,1,0.8,2.5-1.1,3l0.3-2.9l-3.8,0.3c0,0-0.4,0.4-0.6,0.3c-1.1-0.5-2.1-1-3.1-1.6c-0.3-0.2-0.4-0.8-0.8-1.5l-2.1-0.4
			c-0.2-1.9-1.5,0.1-2.3-0.1l0.8,0.3l-0.1,0.4l-4-0.9c-0.6-0.1-1.3-0.2-1.9-0.3c-1,0-2,0-2.9-0.2c-0.5,0-0.6-0.3,0-0.5l-1-0.8
			c-0.6,0.9-1.2,0.1-1.8,0c-0.3,0-0.6,0.2-1.1,0.4l1.1,1l-0.2,0.2l-3.5-2.3l-1,2.1c-1.3-0.9-2.5-1.7-3.7-2.5
			c-0.4-0.2-1.1-0.5-1.3-0.3c-0.4,0.3-0.6,0.8-0.5,1.3c0.4,1.6,0.1,2.7-1.5,3.3c-0.4,0.1-0.6,0.7-1,1.2c-2.1-0.7-4.2-1.6-6.1-2.7
			c-1.5-1-3.1-1.7-4.8-2.3c-0.7-0.1-1.3,0-1.9,0.5l2.4,1v0.3l-7,0.6v-0.5h1.6c-0.1-1.2-0.7-1.6-1.9-1.3c-1.1,0.4-2.9,0-4.1,1
			c-0.3,0.2-1,0-1.5,0c-0.6,0.1-1.3,0.2-1.9,0.3c-0.8-1.5-2.3,0.3-3.6-0.2l-0.3,0.3l1.9,1.5l-0.4,0.2l-4.3-0.4l-0.2,0.4l1.5,1.4
			l-0.2,0.3l-2.8-1.6l-4.1,0.3c-0.3,0-1.1-0.1-0.4,0.6c-0.2,0-0.3,0-0.5,0c0-0.3-0.2-0.6-0.3-1l-1.1-0.1l0.3,0.3
			c-0.2,0.3-0.4,0.5-0.6,0.8c-0.2,0.1-0.4,0.1-0.5,0c-2.4,0-4.8,0.4-7.1,1.3c-0.7,0.2-1.5,0-2.2,0.1c-1.6,0.2-3.2,0.6-4.9,0.8
			c-0.3,0-0.5,0-0.8,0c-1.4-0.2-3-0.9-4.1-0.4c-3.1,1.3-6.4,0-9.4,1c-0.4,0.1-0.9,0-1.4,0l3.9,1.4l-6,2.2l-3.3-1.7l-0.7,2.1
			c-1.3-1-3.1-1.1-4.5-0.2c-2.1,1-4.4,2.1-6.7,2.9c-1.9,0.8-4,0.6-5.7-0.5l3.9-1.7c-0.2-0.7-0.9-1.1-1.6-1c-0.1,0-0.2,0.1-0.3,0.1
			c-1.7,0.3-3.4,0.8-4.9,1.6c-2,1.5-4,0.7-6,1.1c-0.5,0.2-1,0.4-1.4,0.7c-2.9,1.4-5.8,2.7-8.7,4c-1.3,0.5-2.6,0.9-3.9,1.4
			c-0.9,0.3-1.7,0.7-2.7,1l0.4-0.9l-2.4,0.4l1.1,0.5l0.1,0.4c-1.2,0.3-2.5,0.6-3.7,1c-0.6,0.2-1.2,0.4-1.7,0.6
			c-2.2,1.3-4.6,2.4-7.1,3.2c-2.3,0.6-4.4,1.9-6.7,2.3c-1.3,0.3-2.6,0.8-3.7,1.4c-0.9,0.5-2.4,0.6-2.8,1.3c-0.8,1.3-1.9,1.3-2.9,1.8
			c-2.3,1.1-4.5,2.3-6.9,3.4c-0.9,0.3-1.8,0.5-2.7,0.7c-1.6,0.4-3.1,0.9-4.6,1.5c-0.8,0.5-1.5,1-2.1,1.7l0.3,0.5l2.7-1.4
			c-0.2,1.2-1.6,1.8-3.6,1.5l0.6-2.1c-1.8,0.7-3.8-0.5-5.4,1.1l2.7,0.4c0.2,1.1-0.5,1.7-1.3,2.1c-3.1,1.9-6.4,3.3-9.9,4.1
			c-0.4,0-0.9,0.2-1,0.5c-1.5,2.5-3.6,4.5-6.1,5.9l-3.5,2.5c-0.2,0.1-0.4,0.3-0.5,0.5c-0.7,1.3-2,2.2-3.4,2.4l0.7,0.5
			c-1.7,2.7-5.1,1.9-7.4,3.5h1.1l0.2,0.3c-1.8,1.1-3.6,2.2-5.4,3.2c-3.3,1.4-6.5,3.4-9.2,5.8c-0.7,0.8-1.3,1.6-2.1,2.4l-0.4-0.3
			l0.8-1.5l-0.2-0.3c-0.9,0.4-1.7,0.9-2.5,1.6c-2.4,2.5-4.7,5.1-7.3,7.9l1.3-0.2c-1.6,2.6-5.2,2-6.5,4.7l2.2-0.3l0.2,0.3
			c-1.5,1-2.9,2.2-4.1,3.6c-1.5,2.1-3.7,3.4-5.3,5.4c-1.3,1.3-2.7,2.5-4.3,3.6c0.3-0.6,0.6-1.1,0.9-1.6c-1.4,0.5-2.4,1.8-2.6,3.2
			l1.7-1.3c-0.2,0.4-0.5,0.8-0.7,1.1c-1.9,2.5-4.3,4.7-6.3,7.2c-2.3,2.8-4.7,5.5-6.9,8.5c-1.1,1.5-2.4,2.8-3.5,4.3l-12.1,15.1
			l-0.6-0.4c0.9-1.8,1.6-3.8,2.7-5.5c1.1-1.7,2.5-3.5,3.7-5.2c-1-0.4-0.6-1-0.2-1.6c1.8-2.8,3.7-5.6,5.5-8.4l3.2-5
			c0.3-0.4,0.6-0.7,1-1l-0.5,1.4h0.2c0.4-0.5,0.8-0.9,1.2-1.5c0.6-1.5,1.8-2.7,3.2-3.5c0.7-0.3,1-1.6,1.3-2.6l-1.1,0.9
			c0.9-1.5,1.9-3,3-4.4c4.3-5.1,8.9-9.9,12.7-15.3c3.5-4.9,8.2-8.2,12.2-12.4l3.7-3.8l-0.5-0.3c0,0,0-0.2,0.2-0.2l6.4-5.1
			c1.2-1,2.3-1.9,3.4-3c0.7-0.7,0.9-1.8,1.9-2.3c1.4-0.9,2.7-1.9,4-3c1.1-0.8,2.1-1.5,3.4-2.1l-2.1-0.9l3.7-2.1
			c1.1-0.6,2.1-1.4,3.4-1.9c1.4-0.7,2.6-1.8,3.2-3.3c0-0.1,0.1-0.4,0.3-0.5c2.8-1.2,4.2-4,6.8-5.4c2.6-1.4,5.2-3.2,8-4.7
			c2.7-1.5,5.4-2.7,8.2-4c4.9-2,9.5-4.8,13.5-8.2c2.8-2.5,6.2-4,9.9-4.5c1.4-0.2,2.7-1.1,3.2-2.5c0.4-0.8,0.9-1.6,1.5-2.4
			c0.4,0.2,0.6,0.5,0.8,0.5c2.3-0.7,4.5-1.5,6.8-2.1c0.2,0,0.2-0.4,0.4-0.7l-1.9-0.5c0.4-0.4,0.9-0.8,1.4-1.1
			c3.1-1.4,6.2-2.9,9.3-4.1c3.7-1.4,7.4-2.6,11.4-4l-3.6,2.7l2.6-0.1c0.1,0,0.2-0.1,0.2-0.1c1.9-2.2,4.5-3.6,7.4-4
			c0.8-0.2,1.7-0.5,2.4-0.9c0.5-0.2,0.8-0.8,1.2-1c2.4-1,4.8-2,7.3-3c0.3-0.1,0.6-0.3,1.2-0.6l-1.4-0.4v-0.3
			c1.5-0.5,3.1-0.9,4.6-1.4c1.8-0.3,3.6-0.9,5.2-1.9c1.3-1,2.8-1.8,4.4-2.1c1.6-0.4,3.2-0.6,4.8-0.8l0.2-0.9h0.4
			c3.2-0.7,6.4-1.4,9.7-2c1.1-0.2,2.2-0.3,3.3-0.4c1,0,2,0.3,2.5-1c0.1-0.3,0.9-0.2,1.3-0.4c5-2.3,10.4-2,15.7-2.5
			c1.9-0.3,3.7-0.5,5.6-0.5c2.1,0.1,4-0.8,6.2-0.7l-0.3,0.4c-0.2,0.1-0.3,0.3-0.4,0.5c1.9-1.6,4.5-2,6.8-1l-0.4-1.3
			c2-0.2,4.1,1.6,6-0.6l-1.2-0.1v-0.4c2.2-0.2,4.5,0.1,6.6,0.9c1.8-0.6,3.6,0.5,4.7-0.2c1.7-0.9,3.4,0,5.1-0.5l-0.4-1.1
			c0.8,0.2,1.6,0.4,2.5,0.5c0.8,0,1.6-0.1,2.3-0.4c1.4-0.4,2.8-0.1,4,0.7l0.4-0.7c1.2,0.2,2.3,0.5,3.4,0.7l3.2,0.8
			c1.2-0.9,2.8-1.1,4.3-0.7c2.1,0.4,4.3,1,6.3,1.5c0.2,0,0.4,0.4,0.6,0.6l1.4,1l0.3-0.3l-0.2-1c0.5,0,0.9,0.1,1.3,0.3
			c1,0.3,1.9,0.8,3.1,0c1.2-0.5,2.6,0,3.2,1.2l0.4-0.8l5.8,2.5c1.3-0.5,2.8-0.3,3.9,0.6c1.7,1.1,3.3,2.2,4.9,3.5
			c0.3,0.2,0.3,0.8,0.5,1.2c0.2-0.2,0.4-0.3,0.6-0.5c0.3,0.3,0.5,0.6,0.8,0.9l1.3,0.3l-0.2-1.2c0.4,0,1,0.2,1,0.3
			c0,0.6,0,1.3-0.2,1.9c0.6,0.1,1.3,0.1,1.9,0c0.3-0.1,0.5-0.9,0.6-1.3c0.4,1,0.9,1.9,1.4,2.8c0.2,0.3,1.1,0,1.9,0.1l-0.6,2l2.1-0.4
			l-1.2,1.7l2.4-0.7l-0.7,2.5l0.3,0.1l1-1.6l1,1.6c-0.5,0.3-1,0.6-1.4,0.9c-0.1,0,0,0.5,0.4,0.8l0.2-0.9l0.5,1.5l0.4-0.7h0.3
			l-0.1,2.3l1.6-0.2v-1.5l0.6,0.9c0.6,0,1.2-0.1,1.3,0c0.7,0.9,1.2,1.8,1.8,2.7l-1.3,0.7l1.2,4.7l0.4,0.3l0.9-1.5l0.2,2l1.2-0.9
			l-0.8,1.8c1.7,1.4-0.4,2.1-0.6,3.3l0.6-0.1c0,0,0,0.2,0,0.3c-0.2,0.5-0.3,1-0.4,1.6c0.4,2.3,0.4,4.7-0.1,7
			c-0.4,1.7-1.1,3.4-1.6,5.1c-0.1,0.6-0.2,1.3-0.4,1.9c-0.3,0.5-0.6,0.9-1.1,1.3c-0.4,0.4-1.2,0.5-0.6,1.3c0,0-0.2,0.5-0.3,0.7
			c-1.5,1.4-3,2.7-4.6,4.1l0.5,0.8h-1.1l-0.8,2.5h1.1l-5.3,3l2.4,2.1h-1.9l-1.3,1.8c-1.2,0-1.6,0.7-2.1,2L1345.5,416.6z M1220,361
			v0.4l10.3-2.3C1226.8,358.9,1223.2,359.6,1220,361z M1168.5,389.2l-0.2,0.5c0.5,0.3,1.1,0.9,1.6,0.8c1.4-0.4,2.9-0.8,4.3-1.3v-0.3
			L1168.5,389.2z M1140.6,393.5c1.9,0.5,2.8-0.9,4.2-1.8C1143.2,391.1,1141.3,391.8,1140.6,393.5L1140.6,393.5z M1264.6,468.9
			l0.2,0.3l5.4-2.5l-0.2-0.4C1268.1,466.8,1266.2,467.7,1264.6,468.9L1264.6,468.9z M1081.8,442.2c3.6-1.8,4.7-2.7,5-3.9
			c-1.2,0.8-2.5,1.6-3.6,2.4C1082.7,441.2,1082.3,441.7,1081.8,442.2z M1179.7,381.9l-0.2-0.7l-4.4,1.2l0.2,0.7L1179.7,381.9z
			 M1222,378.4c-0.9-1-2.3-0.9-4.4,0.4L1222,378.4z M1160.4,395.2l2.3-1.8l-0.3-0.3C1160.4,393.6,1159.8,394.2,1160.4,395.2z
			 M1121.4,415.1l-0.3-0.5l-3.9,2.8l0.3,0.4L1121.4,415.1z M1338.9,383l-1.1,1.8l1.9,0.7L1338.9,383z M1346.3,387.3l-1,3.3
			C1346.6,389.4,1347,388.4,1346.3,387.3L1346.3,387.3z M1257.3,372.3c-0.8-1.8-0.9-1.8-2.1-0.2L1257.3,372.3z M1306.6,353.5
			l-2.8,0.1l2.1,1.3L1306.6,353.5z M1208.6,374.9c0.2,1.5,1.2,1.9,2.4,1.1L1208.6,374.9z"/>
		<path class="st5" d="M1206.2,486.2l2.7,0.1c-0.3,0.5-0.5,0.9-0.6,1.4c-0.1,2.5-1.9,3.4-3.8,4.4c-0.6,0.3-0.8,1.4-1.2,2h2.3
			l-0.5,2.3h-1.6l0.5,0.9c-1.6,0-1.3,1.4-1.4,2.4c-0.3,1.8-0.6,2.1-2.5,2l0.3-0.6l-0.3-0.3l-3.1,3.5l1.5,1.6l-3.7,0.8l0.4,3.2
			c-0.8-0.2-1.7-0.5-2.5-0.6c-0.5,0-0.9,0.1-1.3,0.4c-0.5,0.5-0.9,1.1-1.3,1.8l3.6-0.7c-0.8,2.5-0.8,2.5-3.6,2.6
			c0,1.3,1,0.9,1.8,0.8c0,0.3,0,0.8,0,0.8c-0.9,0.4-1.1,1.4-1.7,1.9c-1.1,1-0.8,2-0.9,3.1c0,0.3,0,0.6,0,0.9l-0.9-0.7
			c-0.5,0.5-0.9,1.1-1.3,1.8c-0.2,0.4,0,0.9,0,1.4l1.3-0.4c-0.2,0.3-0.3,0.7-0.4,0.7c-0.4,0.1-0.8,0-1.2-0.2
			c-0.6-0.7-1.1-1.4-1.6-2.1l-1.2,2.1c0.3,0,0.6,0,1,0c0.4,0.2,1.1,0.4,1.2,0.7c0.1,0.5,0.1,1-0.3,1.3c-0.8,0.6-1.6,1.2-2.4,1.8
			c0,1.3,0,2.4,0,3.5s-0.2,1.9-0.3,3.1l0.4,0.6l-1.7,1h0.2c-0.4,0.7-0.8,1.3-1.4,1.9c-0.7,0.6-1.6,1-2.3,1.6c-0.7,0.6-1,1.2,0.2,1.7
			l-0.8,0.7c-0.2-0.2-0.3-0.5-0.4-0.6s-1-0.7-1.2-0.6c-0.4,0.3-0.7,0.7-0.8,1.2c0.1,1.1,0.3,2.3,0.6,3.4l1.2-0.2
			c-0.5,1.7-2.7,0.2-3.1,1.9l2.9,0.3l-0.9,2.1l0.2,0.1c-0.4,0.5-0.8,1-1.1,1.5c-0.2,0.2-0.2,0.7-0.3,0.7c-1.4,0.2-1.1,1.3-1.4,2.1
			s-0.7,1.2-1,1.9c-0.3,0.6-1.1,0.7-0.2,1.2c0,0,0,0.3,0,0.5c-0.8,1.5-1.8,2.9-2.8,4.3c-1.4,1.6-2.9,3-4.5,4.3l1.1-2.9l-0.8-7.7
			l0.9,0.9l0.3-0.1l-0.3-1.6l1.1-0.5l-0.9-1.2l-0.8,0.6l0.4-1.6h-0.4c0.2-2.6,0-5.2-0.5-7.8c-0.7-1.7-0.3-3.8,1.1-5.1
			c0.4-0.7,0.7-1.4,1-2.1l-0.7-0.5l0.1-0.2c0.7-1.1,1.8-2.2,1.8-3.4c0-1.1,0.3-2.7-1.3-3.3c-0.6-0.2-1.5-0.7-1-1.8l2.1,0.7l0.2-0.3
			l-1-0.9l1.7-0.2v-0.3l-2.4-0.7c-0.3,0,0.8-1.5-0.6-0.8c-0.2-1.6,0.2-3.7-0.7-4.8c-1.2-1.6-0.2-2.3,0.3-3.3c0.4-1,0.4-1.6-0.4-2.1
			c0-1,1.3-2,0-3.1c-0.1-0.1,0-0.7,0.1-0.9c0.3-0.4,0.7-0.8,1.1-1.1h-2.5l1.8-1.7c-1.4-1-1.7-2.8-0.7-4.2c0.1-0.1,0.2-0.2,0.2-0.3
			c0.3-0.6,0.7-1.1,1-1.7c0.9-1.1,0.7-2.8-0.4-3.7c-0.1-0.1-0.3-0.2-0.5-0.3l1.4-1.8l-1.8-0.5l0.5-1.6c-1.6,0.4-2.1-0.1-1.9-1.7
			c0-0.7,0.1-1.4,0.2-2.1l2.4,1.6h0.3l-1.1-1.9c-0.8,0.3-1.7,0.6-1.6-0.9c0-0.4-0.4-0.8-0.8-1.4l1.3-2.5l-0.3-0.3l-1.9,1.3
			c0-0.5-0.3-1-0.2-1.2c0.9-1,1.2-2.3,0.8-3.6c-2.1-0.8-2.5-0.6-2.5,1c-1.1-0.1-1.2-0.6-0.8-1.4l-0.6-3.7c0.5-0.7,0.5-0.8-0.4-1.7
			c-0.2-0.1-0.2-0.4-0.3-0.6c-0.4-1.1-0.9-2.3-1.4-3.4l-0.5,0.4c-0.5-0.2-1-0.6-1.5-0.9c-0.6-0.7-1.2-1.5-1.8-2.3l-0.9,2.1
			c-0.4-0.8-0.8-1.3-1.1-1.9c-0.5-0.9-0.8-1.7-2.2-1.1c-0.4,0.2-1.4-0.7-2.1-1.2c-0.3-0.3-0.4-0.8-0.6-1.4l-0.6,1
			c-1.7-1.9-3.2-2.3-6.2-1.4c-1.3,0.1-2.6,0-3.8-0.4c0,0,0,0.2-0.1,0.4l-1.9-1.2l-0.4,1.4c-1.8-1-3.7-2.1-6.1-0.7v0.9l-1.1-0.3
			c-1.5,1.6-3.3,0.6-4.6,0.8c-2.1,2.3-4.3,1.3-6.4,0.8l0.6,1.4c-1.4-0.5-2.6-0.8-3.2,0.8c-0.1,0.1-0.1,0.1-0.2,0.1c-1.5-1-3,1-4.7,0
			c0.6-0.9,1-1.8,2.5-2.1c1-0.1,2.7,0,2.9-1.8l-0.6-1.1c0.5-0.3,1.1-0.4,1.7-0.5c0.9,0,0.9,0.2,1.2-0.4c-0.4-0.8-1.2-1.8-0.9-2.1
			c1-1.4,1.8,0.4,3,0.5l-1.2-1.8l5.7-0.3l0.5-2.1c1.6,1.5,2.8-0.6,4.6-0.8l-1.6-1.5l0.2-0.4c0.6,0.2,1.1,0.3,1.6,0.5
			c1,0.5,2,1,3,1.4c0.6,0.2,1.3,0.2,0.7-0.8l3.2,0.8l-1.3-1.9l0.2-2.3c1.6,0.7,1,2.6,2,3.9l1-2.1c1.3,0.9,3.7,0,4.3,2.6
			c0.7-0.9,0.5-2.3-0.4-3c-0.1-0.1-0.3-0.2-0.4-0.2c-0.3,1.3-1.1,1.4-2.5,0.1l1.4-0.5l-1-0.9c0.5-0.2,1-0.5,1.3-0.4
			c1.7,0.3,3.9-0.1,4.3,2.5l-1.2,0.3c0,0.1,0,0.3,0,0.3c1.1,0.4,2,1.9,3.5,0.5c-1.7-0.3-0.8-1-0.3-1.6l1.1,1v-1.2l1.7,0.7v1.1h0.2
			l0.5-0.7l2.1,1.1l-0.7-2.7l2,3.3l1.5-1l2.8,3.6l0.1-1.1l0.3-0.1l1.2,2.3c1.2-0.5,2.1,0.2,2.7,1.4l2.5-1.8l1.4,4.5l-0.8-0.4
			c-0.1,0.6,0,1.2,0.1,1.8c0,0.2,0.7,0.3,1.1,0.3c1,0,2.1-0.4,2.5,1.1l0.9-1.2l0.4,1l0.8-0.8l0.3,0.2c-0.5,0.5-1,1-1.4,1.6
			c-0.4,0.7-0.8,1.4-1.2,2.1l2.3,1l0.8-1.8l3.3,2.6c-0.6,1.5-1.1,3.1-1.7,4.7c0,0.1,0,0.5,0.2,0.5s1,0,1.2-0.1
			c0.7-0.8,1.4-1.6,2-2.4l1.4,1.1l-0.9,1c0.2,0,0.4,0.1,0.4,0.2c0,1.5,1.6,1.8,2,2.9c0.2,0.5-0.1,1.2-0.2,1.8h-0.7l-0.3-1.8
			l-2.8,1.5l0.3,1.2l1.1-0.5c-0.3,0.6-1.1,1.4,0,1.4l-0.3,2.9l1.2-0.7c0.4,1,0.2,2.1-0.6,2.8c-0.4,0.6-1.2,1-0.2,1.9
			c0.4,0.4,0.2,1.5,0.3,2.4l1.4,0.1l-0.7,1.1c1.5,0.3,1.8,1.3,2,2.5c0.3,0.8,0.7,1.6,1.2,2.3c-0.5,0.5-0.8,1.1-1.1,1.8
			c0,0.4,0.4,0.9,0.7,1.5l-2.5-0.8l-0.2,0.5c0.3,0.2,0.7,0.3,1.1,0.3c0.7,0,1.1,0.8,2,0.8c0.4,0,0.8-0.2,1.1-0.5
			c1.1-1.2,2.1-2.6,3.1-3.9l0.2,0.6c0.6-0.9,1.4-1.8,1.9-2.8c0.2-0.6,0.2-1.2,0.2-1.9l4.3-2.1l-0.2-0.5l-2.3-0.5l0.8-1.6l1.1,0.5
			c0.4-0.4,0.8-0.8,1.3-1.1c1.8-0.9,2.9-2.8,2.8-4.8c-0.1-0.3-0.2-0.7-0.4-1l-1.6,1.5h-0.3c0.1-0.4,0.2-0.9,0.4-1.2
			c0.4-0.4,0.8-0.8,1.3-1c0.3-0.2,0.8-0.3,0.8-0.4c-0.3-1.1,0.6-1.1,1.2-1.4c0.5-0.3,0.9-0.7,1.3-1.1l-0.2-0.3l0.9,0.2v-1
			c0.8-0.3,1.4-0.6,2.1-0.7c0.6-0.1,1.2-0.2,1.9-0.2l-1.2-0.8l5.5-5.5l-0.6-0.8l4.6-5.3l-2.1-0.2c1.2-2.5,4.5-2.6,5-5.3
			c0-0.6,0.1-1.2,0.3-1.8c0.9-1.7,2.6-2.8,4.5-2.9l-1-1.2l7.9-7.5l-0.3-0.9c0.8-1.4,1.4-2.7,2.1-3.9c0.1-0.3,0.3-0.6,0.5-0.8
			c1.8-1.6,3.7-3.2,5.5-4.9c0.8-0.9,1.6-1.9,2.3-3l0.8,0.3l3-4.7l1.6,0.1l-0.2-1c1.2,0.2,1.9-0.5,2.6-1.4c0.8-0.9,1.6-1.7,2.5-2.4
			l3.3-3.2c1.8,0.4,3.5-0.5,4.3-2.1c0.3-0.6,1.1-0.9,1.7-1.3c0.4-0.2,0.9-0.4,1.4-0.6l1,1.1c-0.8,1.3-3.3,0.5-3.6,2.4
			c0.2,0.7,0.5,1.5,0.4,1.6c-0.8,0.6-1.6,1.1-2.5,1.6l0.6,0.8c-1.7,1.8-4.5,2.3-6,4.7h1l-1.5,2.1l-2.3,0.2v0.4l2.6,1l-1.8-0.2
			l0.6,1.1c-1.5-0.3-1.8,0.7-2.1,1.9l2.4-0.2l-3.4,2.7c-0.2,0.1-0.4,0.2-0.6,0.1c-1.5-0.9-2.1,0.5-3.1,1.3l0.9,0.1l-1.6,2.1l1.7,0.3
			c-1.2,1.1,0,1.2,0.7,1.5c-1.2,1.6-2.9-0.4-3.8,0.5l-2.3,4.3h0.2l1.6-1.5l0.3,0.3l-1.3,1.6l0.2,0.3l1.3-0.7
			c0.4,1.5-1.3,3.8-4.3,5.5l-0.8-1.9l-1.9,1.4l1.2,1l-0.4,1.9l-0.8-1.1l0.3-0.3l-0.8-0.3c-0.2,0.7-0.6,1.5-0.9,2.1
			c-0.6,0.6-1.2,1.2-1.8,1.7l2.8,0.1c0,0.9-0.6,1.3-1.5,1.6c-0.4,0.2-0.8,0.5-1.1,0.9c-0.2,0.2-0.2,0.6-0.3,0.9h0.9l2-0.1l-3.9,1.7
			c1.6,2.1-0.3,1.7-1.4,1.9l0.2,0.4h1.9l-3.7,1.8c0.9,2.5-1.8,1.8-2.4,3l1.1,1.5l-3.5,1.2l2.8,3.2c-1.7,0.5-2.9,0.7-4.1,1.2
			c-0.5,0.2-0.9,0.8-1.3,1.2c-0.3,0.3-0.6,0.6-0.8,0.9c-0.2,0.7-0.4,1.4-0.5,2.1c0,0.1,0,0.4,0,0.5c-1.5,0.6-0.4,0.9,0.2,1.3
			l-0.6,0.9l1.1,0.4v0.2h-2.1v-0.9c-0.1,0-0.3,0-0.4,0c-0.6,0.5-1.2,1.3-1.8,0c0-0.1-0.8-0.2-1,0c-0.2,0.3-0.2,0.6,0,0.9
			c1,0.9,0.3,1.5-0.3,2.1c-0.9,0-1,0.1-0.8,1.5C1206.9,487.5,1206.9,487.4,1206.2,486.2z M1230.2,449.6c2.1,0.5,3,0.2,4-1.5
			c-1.4,0.9-2.7-0.8-4.3,0.5l1.4,0.2L1230.2,449.6z"/>
		<path class="st5" d="M1184.7,460c0-0.5,0-1.1-1.2-0.5c-0.3,0.2-0.9,0-1.3,0l-0.6,2.1l-0.7-2l-0.6,1l-0.3-0.4
			c-0.5-1.2-1.7-1.9-3-1.7c-0.7,0.1-1.4-0.1-2-0.5c-0.8-0.6-1.7-0.9-2.5-1.4c-0.4-0.3-0.7-0.8-1.1-1.2c-0.8-0.8-1.7-1.5-2.5-2.3
			c-0.3-0.4-0.6-0.9-0.9-1.4h1.7l-0.8-2.1h-0.3l-0.6,1.7c-0.1-1.3,0.4-2.6-1.1-3.4c-0.4-0.2-0.4-1.3-0.5-1.9c0-0.4-0.1-0.8-0.2-1.2
			c-0.4-1-0.9-2-1.4-3c-0.5-1.4-0.4-2.9,0.3-4.3c0.2-0.6,0.4-1.3,0.4-1.9h-0.4c-0.2,0.4-0.4,0.8-0.6,1.1c-0.2,0.4-0.5,0.8-0.7,1.2
			c-0.4-0.9-0.4-0.9,0.1-3.3c0.3-1.1-0.4-2.5,1.1-3.2l-0.6,1.6c0.6-0.4,1-0.6,1.3-0.9c0.3-0.3-0.2-0.3-0.2-0.3l1.6-2.1
			c-0.9-0.6-0.2-1.4-0.2-2.1c0.2-1.9,1.8-3.2,3.7-3.1l0.5-2l-2.5,1.1c0.1-1.3,3.8-4.7,5.1-4.5l-1.4,0.9l0.8,0.6
			c0.8-0.2,1.6-0.6,2.3-1.1c2.2-2.1,5.4-2.1,8-3.3c0.4-0.1,0.8-0.2,1.2-0.1c0.8,0,1.5,0,2.1,0c2.2-0.1,4.4,0.3,6.4,1.2
			c0.8,0.3,1.6,0.5,2.4,0.6c2.9,0.5,4.5,2.8,6.3,4.6c3.4,3.1,5.7,7.3,6.3,11.9c0.2,1.5,0.5,2.9,0.8,4.4l0.8-0.8c0,2.7-1.9,4.7-2.7,7
			l2.7,0.3c-0.7,1.5-1.9,0.6-2.6,0.8v4l-0.4,0.2c-0.6-0.7-1.7-0.8-2.5-0.2c-0.2,0.2-0.4,0.4-0.5,0.6c0.8,0.2,1.7,0.6,2.3,0.4
			c0.7-0.2,1.2-1,1.9-1.8c0.2,1.1-0.9,1.7-1.2,2.5c-0.1,0.3-0.5,0.5-0.8,0.7c-1,0.7-1.3,0.6-1.7-1l-4.9,3.5l1.7,0.5l-2.4,1.5l2,0.7
			c-0.9,0-1.5,0-2.1,0s-0.8,0.1-0.8,0.3c-0.3,1.4-1.3,1-2.1,1.3c-0.3,0.2-0.6,0.3-0.9,0.4c-0.3,0-0.6-0.1-0.9-0.3
			c-1.4-0.5-2.5,0.4-3.7,0.8l-0.8-1.1c-0.4,1.6-0.1,1.8,1.8,1.3c-0.6,0.8-1.6,1.1-2.5,0.9c-0.8-0.3-1.6-0.7-2.3-1.1
			C1185.8,460.3,1185.3,460.1,1184.7,460z M1190.4,453.9l0.2-0.4l-0.4-1c0.6,0.1,1.1,0.1,1.7,0.1c0.5,0,1.2,0,1.4-0.3
			c0.7-1.1,2.1-1.6,3.3-1.1l-0.2-0.4l4.9-2.5c0-0.4-0.2-0.8,0-1.1c0.7-1.1,1.5-2.1,2.1-3.1s1.3-2.1,2-3.2l0,0l2-2.6h-1.6
			c0.4-0.9,0.6-1.8,0.7-2.7c-0.2-3.1-1.5-6.1-3.7-8.4c-1-1.1-2.1-2.1-3.2-3c-1.8-1-3.7-1.9-5.7-2.6c-0.9-0.3-1.8-0.5-2.7-0.6
			c-0.9-0.4-1.9-0.5-2.9-0.5c-1.3,0.3-2.8-0.1-3.9,0.9c-0.5,0.5-1.1,0.8-1.8,1c-2.1,0.9-4.3,1.8-6.4,2.6l0.5,0.9
			c-1.1,0.6-2.9,0.5-2.1,2.5l0.9-0.4c-0.4,1.4-1.1,2.6-1.9,3.8c-1.2,1.1-0.9,2.4-1.4,3.6c-0.2,0.5-0.5,1.5-0.2,1.7
			c1.1,1,0.3,2.1,0.5,3.3l0.6,0.1c0.2,1.1,0,2.5,0.6,3c0.8,0.6,1.2,1.5,1.1,2.5l2.4,3.5l0.8-1.1c0.2,0.5,0.5,0.9,0.8,1.3
			c0.4,0.4,0.9,1.1,1.4,1c1.4-0.2,2.1,0.8,2.8,1.9l0.2-0.6l1.7,1.1C1186.8,454.6,1188.6,453.2,1190.4,453.9L1190.4,453.9
			L1190.4,453.9z"/>
		<path class="st5" d="M1091.2,195.4l1.3,0.3c-0.5,1-1,2-1.4,2.9c-0.1,0.4-0.2,0.9-0.3,1.3h1.1c0.1,0,0.2,0,0.3,0
			c1.3,0.8,2.4,0.1,3.3-0.9l0.2,0.3c-0.3,0.3-0.6,0.7-0.9,1.1c-0.3,0.4-1.7,0.8-1.2,2.1c0,0.2-0.9,0.9-1.3,1.6l5.7-3.2l0.3,0.5
			l-3.2,1.8l1.9,0.4l-2.7,2.5l0.2,0.3c1.5-0.9,3.1-1.8,4.6-2.8c0.2,0,0-0.6,0-1.2c0.5,0.2,1.2,0.3,1.3,0.6c0,0.5-0.2,1-0.5,1.4
			c-0.2,0.2-0.5,0.4-0.8,0.4c-1.9,0-2.1,1.6-2.9,2.9c1.7,1.1,2.7-0.3,3.8-1c0.6,1.4,1.1,0.2,1.8,0l-0.2,0.8h1.5l-1.7,1.9l1.3-0.5
			l-0.9,1l0.7,1.1l3.2-1l0.2,0.4l-4.3,3.3l4.5-0.5l0.1,0.2l-4.4,2.7l-1.9,0.8l0.5,1.9l3.8-2.5c0,0,0-0.3,0-0.4
			c1.1-0.9,2.1-1.6,3.7-0.4l-4.3,3.3c1,0.2,2.1-0.1,2.8-0.9c0.8-0.8,1.7-1.9,3.2-1.4l-0.9,1.2l1.3,0.4v0.5c-0.6,0.1-1.3,0.2-1.9,0.3
			c-1.2,0.4-2.3,1-3.4,1.6c-0.2,0,0.2,1,0.3,1.6l1.7-0.6l-0.8,1.1l0.8,0.6l-2.8,0.6v0.3l5.8,1.4l-1.2,1.1l1.3,0.8l-1.3,1.5l4.1,0.4
			l-2.6,3.1l0.6,0.3l-2.3,1l0.1,0.4c1.5-0.5,3.1,0.6,4.6-0.6c0.2-0.1,0.9,0.3,1.4,0.6s0.1,0.5,0.2,0.9l8,0.2
			c-0.9,1.8-2.8,2.9-4.8,2.9c-0.4,0.1-0.8,0.2-1.2,0.4c-1.2,0.7-2.5,1.2-3.8,1.6c-2,0.4-3.9,0.9-5.8,1.7c-1.8,0.4-3.6,0.5-5.4,0.4
			c0.4-0.2,0.9-0.3,1.3-0.5c0.2-0.1,0.2-0.4,0.3-0.6c0.1-0.2-0.4-0.2-0.6-0.1c-1,0.7-2.3,0.7-3.2,0c-0.8-0.3-1.7-0.5-2.5-0.5
			l0.4-1.5c-1.1,0.3-1.4-0.1-1.2-1.2l-1.4,0.3l0.5-1.1l-1.8,0.8l-0.2-0.2l0.8-1l-1.6-0.6l0.7-1.7c0-0.1,0.1-0.1,0.2-0.2
			c1.2-1.6,1.2-1.8-0.9-2.1l1-1.2l-1.6,0.3l0.4-0.9l-2.3,0.6l0.4-2.4h3.2v-0.5h-2.5l-0.8-1.2l2.1-1.2l-0.3-0.4l-2.5,1.1l-0.2-0.3
			l2.8-2.4c-1.7-1-2.7,0-3.8,0.8c0.8-2.5,3.1-4.3,3.4-7h-1.1l0.4-2.1l-2.1,1.1l-0.2-0.2l1.2-1.9h-1.8l0.9-5.4c-0.2,0-0.7,0.3-1.1,0
			c-0.8-0.4-1.8-0.7-1.1-2.1c0.3-0.6,0-1.5,0-2.3l2.7-2.4l-0.2-0.3l-3.3,1.5l-0.2-0.4l1.8-1.7l-1.3-2.5l-0.5,0.6l2.1-1.9l-0.2-0.3
			l-1.2,0.3c0.6-1,1.1-1.9,2.3-2.1c0.4,0,0.8-0.7,1.2-1c0.3-0.1,0.7-0.1,1.1,0l-1.8,2.1C1089.7,196.3,1090.6,196,1091.2,195.4z"/>
		<path class="st5" d="M997.1,325.7l-0.9,0.8l-1.1-1.7l-0.7,2.5h-0.3l-0.6-2l-1.6,0.7l-0.7-1.6l-0.4,0.5l-2-3
			c-0.4,0.4-0.7,0.7-1.2,1c-0.9,0.6-1.5,0.4-2-0.7c-0.5-0.7-1.1-1.4-1.7-2l0.3-3.5h-0.3l-1.2,3.3h-0.5v-2.4l-2.5-0.6l0.3-3l-1.1,1.3
			l-0.3-0.1c0.3-1-0.2-2.3,0.9-3.2c0.2-0.2,0.2-0.7,0.2-1.1s0-0.7,0.2-1.3l0.4,1l0.3-0.6h0.1l-0.4,2.5l0.2,0.1l1.6-3l0.3,0.1
			l-0.1,1.1l0.7-0.7l0.8,3.5h0.2l0.4-1.6h0.3l0.2,0.8c1.2-0.5,2.1-1.5,2.3-2.8v3.6l0.7-0.4c0,0.8-0.2,1.5-0.2,2.1h0.4l1.6-6.2
			l0.6,0.1l-1,3.7l1.2-1h0.4v3.2h0.3l1.3-5.3l-0.8-0.1l0.7-1c0.4,0.3,1,0.5,1.1,0.9c0.1,0.5,0,1.1-0.4,1.5c-1.2,1.5-0.2,2.6,0.2,3.9
			c1.8-0.6,1.5-2.1,1.8-3.5l0.8,0.4l0.7-3.3v2.4l1-1.2l0.4,1.8l0.6-0.4l0.1,1.1h1.2l1.3-3.2h0.4l-0.6,5.5h0.3l2.3-4.1h0.3l-1.4,7.6
			l1.7,0.7c0.3-1.4,0.5-2.8,0.3-4.3c-0.5-1.7-0.3-2.7,1.6-3.5v5.3c2.1-1.5-0.2-4.3,1.7-6l0.4,1.4l1.3-0.9c-0.2,1,0,1.5-0.8,2.3
			s-0.7,2.1-0.8,3.4c0,0.2,0.8,0.5,1.4,0.9l0.4-1.5h0.4l0.3,3.5l4.3-4.3v1.9c2-1.4,1.4,0.5,1.9,1.1l2.4-3.3l1.7,5.9
			c0.5-1.1,2-2.1,1.8-3.9c0-0.5,0.8-1,1.4-1.8l0.2,1.5l4-7.5c0.9,1.8,1,4,0.2,5.8c-0.2,1.3-0.3,2.6-0.4,3.8c-0.2,0.9,0.4,2.1-1,2.7
			c0,0,0,0.4,0,0.7c0.1,0.8,0.1,1.6,0,2.4c-0.6,2.2-1.3,4.3-2.3,6.4l0.2-2.3h-0.1l-0.4,1v-1.4h-0.2c0,0.6-0.1,1.3-0.2,1.9
			c-0.2,0.7-0.3,1.4-1.3,1.7s-1.4,1.5-2.1,2.3l-1-1.2l-0.8,1.1c-0.9-0.7-1-0.7-1.6,0.7l-0.3-0.6c0-0.1-0.2-0.3-0.4-0.7l-0.2,2.3
			h-0.2l-0.5-1.4l-1.3,1.2c-0.4-0.5-0.8-1-1.1-1.5c-0.4-0.7-0.7-1.4-1.1-2.3l-1.5,1.5l-0.4-1.8l-0.6,1.5l-0.7-0.5
			c0,0.3-0.1,0.7-0.2,1c-0.1,0.3-0.3,0.6-0.6,0.8c-0.1,0-0.5-0.2-0.7-0.5c-0.6-0.7-1.1-1.4-1.7-2.1l-0.6,1.1l-0.3-3.5l-1.1,3.1
			l-0.3-0.1l-0.1-4.3c-1.2,1.2-2.1,2-1.5,3.4c0,0-0.3,0.3-0.5,0.5c-0.1-0.1-0.3-0.3-0.3-0.5c-0.4-1.2-0.9-2.4-1.4-3.6
			C998.3,327.4,997.8,326.5,997.1,325.7z"/>
		<path class="st5" d="M1326.8,309.2l-2.8-1.4c-0.9,1.5,0,2.6,0.8,3.8c-1.6,0.8,0,1.4,0,2.1l-0.9-0.6l-0.2,1.3l-1.9-1.6l0.4,1h-0.2
			l-1.1-1.1v0.9l-0.9-0.5l0.8,3.5l-0.4,0.2l-2.8-4.5v4.5h-0.3c-0.5-1.1-0.9-2.4-1.4-3.5c-0.2-0.4-0.5-0.7-0.8-1
			c-0.1-0.7-0.2-1.5-0.4-2.1l-2,0.1l2.1,4.3h0.2l-0.6-2.7h0.2l0.4,0.6c0.4,1.3,0.8,2.6,1,4c0,0.5-0.5,1-0.9,1.9l-2.7-4.5
			c-0.5,0.8-0.4,1.4,0.3,2.3s1.8,2.1,1.2,3.6l-1.1-1.1l-0.6,1.3h-0.5c0.1-0.6,0.1-1.2,0-1.9c-0.3-1.3-0.7-2.5-1.1-3.7
			c0-0.1-1,0-1.6,0l0.3,1.5l-0.3,0.1c-0.4-0.5-0.7-0.9-1.1-1.4c-0.3-0.5-0.5-0.9-0.9-1.6l-2.5,6.2l-0.7-2.1l-1.2,1.6l-1-1.8l-1.1,4
			l-0.6,0.5l-2.7-3.1l0.4-0.4l-0.3,0.6l-0.6-2.4h-0.5c0,1,0.4,2.2,0,3.1s0.8,2.5-1.1,2.8c-0.2,0-0.4,0-0.7,0c-0.3,0.5-0.5,1-0.7,1.5
			c-0.2,0.6-0.1,1.2-0.3,1.8l-1.1,4.6c-1.6-1.3-2.3-3.4-1.8-5.4c0-0.5,0-0.9-0.2-1.4c-0.5-1.4-0.7-2.8-0.7-4.3
			c0.4-1.8-0.4-3.3-0.4-5c0-0.9,0.2-1.8,0.3-2.6c0-1.1,0.1-2.3,0.3-3.4l0.4,2.1h0.2c0-0.4,0.3-0.9,0.2-1.2c-0.2-0.9-0.4-1.6,0.5-2.4
			s0.8-1.8,1.2-2.8l1.1,0.6v-0.4c0.4-0.1,0.7-0.3,1.1-0.5c0.3-0.4,0.5-0.8,0.7-1.2l0.7,0.5l-0.4-1.9l0.2-0.1l0.6,1.2l0.3-0.1
			c0-0.3,0-0.6,0-0.8c0.2-0.7,0.6-1,1.3-0.5c0.7,0.6,0.7,0.8,1.1,1.1c0.4,0.3,0.8,0.6,1.2,0.9l0.8-1.6l0.6,1.4l0.4-0.2l-0.1-1.4h0.7
			l-0.3-2.1l2.1,0.6l-0.2,3.5c0.3-0.3,0.6-0.4,0.6-0.6c0.2-1,0.4-1.9,0.6-2.9h0.3l1.5,2.4h0.2l-0.7-2.7h0.3l1.8,3l0.6-0.3l-0.9-3.8
			c1.1,0.7,2,1.5,2.9,2.5c0.8,1.2,2.3,1.1,3.1,2.1l0.5-1.1l1.6,0.5l-0.8-2.4l0.2-0.1l1.6,1.4c0.1-0.4,0.1-0.7,0.3-1.1
			c0.1-0.2,0.5-0.6,0.6-0.5c1.5,0.4,3,0.9,4.6,1.4c0-0.3,0-0.7,0.1-1.1c0.3-1.2,0.8-1.8,2.1-1c0.7,0.2,1.4,0.3,2.1,0.2l2.1,2.7
			l0.3-0.2l-1.2-3.1l0.4-0.3l1.6,1.8l2.1-1.6l1.6,2.1l0.3-0.2l-0.3-1.3c2.1,0.8,1.7,3.3,3.4,4.1l-0.5,0.5l-2.1-1.9l1.3,3.9
			c-0.8-0.2-1.5-0.5-2.2-0.8c-0.7-0.4-1.4-0.7-2.1-0.9l0.8,1.6l-0.3,0.2l-0.6-0.6c-0.8,1-0.6,2.4,0.3,3.2c0.1,0.1,0.3,0.2,0.4,0.3
			l-0.6,0.2c-0.4-0.5-0.9-1-1.4-1.5c-0.4-0.3-0.6-1.5-1.5-0.6l-1.1-1.8l-0.5,0.3l2.9,5.8l-0.5,0.2l-1.8-3.6l-0.2,1.7l-0.4,0.2
			l-2.1-2.6h-0.2l1.2,3.1L1326.8,309.2z"/>
		<path class="st5" d="M1006.5,451.6c0,0.5,0.2,1,0.2,1.6c0,0.6-0.4,1.1-1.3,1.1c-0.9,0.1-1.7,0.2-2.5,0.4l-3-1.9l-0.2,0.3l2.4,2.7
			l-0.3,0.3l-2.1-1.3l-1.5,2.1l-2.1-1.4l-0.2,0.3l0.7,1.3c-2.3-0.3-2.7-2.7-4.6-3.2l0.3-0.5l2.3,1.1c0.2-1.3-1.9-1.6-1.7-3.2
			l4.6,0.5l-1.7-1.4l0.3-0.3l0.6,0.4c0.6-1.5-0.3-2.4-1.7-3l0.3-0.3c0.2,0.1,0.5,0.2,0.8,0.3c1,0.1,1.5,1.7,2.9,0.8
			c0.2-0.1,1.1,0.7,1.6,1.1l0.3-0.3c-0.8-0.7-1.7-1.4-2.5-2.1s-1.4-1.6-2.1-2.4l0.3-0.3l2.7,2.6l-0.1-2l3,1.9l0.3-0.3
			c-1.3-1.2-2.6-2.4-3.9-3.5c0,0-0.5,0.2-1.2,0.5c0-0.6,0-1.3,0.3-1.6s0.9,0,1.3,0s0.6,0.6,0.8,0.9c0.8,1.2,2.2,1.9,3.7,1.6
			c0-0.5,0-1-0.3-1.3c-1-1.2-1.8-2.4-2.6-3.8l1,0.4l-0.7-1.7l2.1,0.8l-0.6-1l1.3,0.6c0.4,0-0.3-1.5,1.2-0.4l-2.4-3.4l0.3-0.3
			l4.4,3.4l-2-4.3c0.6,0.3,0.9,0.3,1.2,0.6c1,1,1.9,2.1,2.8,3.1c0.9,1,1.5,2.1,2.9,0.5c-1-1.2-2.3-2.2-3.8-2.9
			c-1.2-0.5-1.8-1.9-1.3-3.1c0,0,0-0.1,0-0.1l4.3,3.1c0-0.9-0.4-1.6-1.2-2c-1.1-0.6-2.4-1.2-2.6-2.9l1.3,0.6l0.2-1.4
			c0.7,0.3,1.2,1,1.3,1.7c0.2,1,1.4,1.9,2.3,2.6c0.2,0.2,1-0.4,1.8-0.7l-1.3-1.1l0.4-0.4l3,1.9l-0.4-6.2l1.5,1.2l0.5-1.5l1.6,0.8
			l-0.8-4l3.8,1.7v-0.5l1.5,2.1l0.6-0.4c-0.7-1.4-1.4-2.8-2.1-4.3c-0.6-1.1,0-1.5,1-1.8l-0.8-3.5l-1.3-4.3c2,0.5,3.6,2,4.3,4
			c0.5,1.2,1.7,2,2.5,3.1c0.4,0.7,0.8,1.5,1.1,2.3c0.1,0.3,0.2,0.6,0.4,0.8c0.8,0.8,1.5,1.5,2.1,2.4c0.4,0.8,0.7,1.6,1,2.4
			c0.6,1,1,2,1.4,3.1l-1.6-1.4l-0.3,0.2c0.3,0.4,0.5,0.7,0.8,1.1c0.6,0.5,0.8,1.4,0.5,2.1c-0.3,0.9,0.2,2.1,0.3,3.3l-1.7-0.2
			l0.7,1.2c-1.4-0.1-1.4,0.6-0.8,1.6l-1.1-0.7l1.4,1.8l-1.4-0.6v1.7c-0.6,0-1.1,0-1.7,0c-0.2,0-0.3-0.1-0.5-0.2
			c-1.8-0.7-1.9-0.6-1.6,1.5l-1.4-0.7c0.2,0.3,0.4,0.6,0.5,1c0,0.2-0.3,0.4-0.4,0.6l1.1,2l-3.6-0.2l0.5,1.1l-2.6-1.7l-0.2,0.2
			l1.7,1.9l-0.2,0.4c-0.5-0.3-0.9-0.6-1.3-0.9s-1.2-0.6-1.8-1c-0.4,1.9,1.3,2.4,1.9,3.5l-7.5-2l0.4,1.5l-2.1,0.1l1.7,1.9l-0.2,0.2
			l-2.1-0.7l0.3,1.7l-1.9-0.2v0.5L1006.5,451.6z"/>
		<path class="st5" d="M1224.4,218.9l-3.2,0.3c0.4,1.7,1.8,1.8,3,2.1l-0.2,0.3l1.5,1.1l-0.7,0.2l1,0.6l-0.2,0.3h-1.8l0.8,0.7
			l-1.1-0.1l-0.1,1.2l2.7,1.5l-0.1,0.3c-0.8-0.2-1.7-0.5-2.6-0.7c-0.8-0.2-1.8-0.4-2.8-0.6l4.3,3v0.1l-7.6-2.5l-0.8,1.5
			c1.5,0.4,3,0.6,4.5,0.8c1.4,0,2.4,0.3,3,1.8l-5.1-0.3l0,0c0.7,0.3,1.4,0.6,2.1,0.8c1.2,0.3,2.6,0,3.6,1.2l-1.2,0.3l0.5,0.9
			l-0.3,0.3c-0.5-0.4-1.1-0.8-1.7-1.1c-1.1-0.5-2.2-0.9-3.4-1.1c-0.3,0-0.7,0.8-1.2,1.2l1.5,0.4v0.4l-3.5-0.1l4.6,5l-3.5,0.9l3,2.4
			l-3.8,0.8l0.8,0.6l-2.8-0.6l-0.2,0.4l3.3,1.3h-1.6v0.1c0.8,0,1.5,0.1,2.3,0.3c0.6,0.2,1,0.9,1.4,1.4l-0.8,0.1l2,0.8l-0.4,0.2
			l5.4,2.5c-1.4,0.7-3,0.9-4.6,0.5c-1.7-0.2-3.4-0.4-5.1-0.8c-0.9-0.2-2.1,0.3-2.8-1c0,0-0.4,0-0.7,0c-1.7,0.3-3.5-0.1-5-0.9
			c-1.1-0.6-2.4-0.8-3.6-1.4l2.1,0.2c-0.4-1.1-1.1-1-1.9-0.9c0-0.7-0.8-0.6-1.1-1.3c-0.2-0.7-1.5-1.5-2.3-2.1l1.2-0.9l-1-0.4
			c0.2-0.8,1.2-1.7-0.8-2l1.2-0.6l-2.1-0.6l1.8-0.4c-0.2-0.1-0.5-0.3-0.7-0.5c-0.2-0.2-0.6-0.6-0.6-0.8c0.1-0.4,0.4-0.7,0.7-0.9
			c1.1-0.4,2.1-0.9,3.1-1.5l-1.6-1.3l1.9-0.2l-1.5-0.8l0.6-0.5l-2-1c0.9-0.5,1.2-1.5,2.3-1.4c0.1,0,0.4-0.8,0.6-1.3l-0.4-0.3
			l2.8,0.1c-0.6-1.1-2.4-0.2-2.7-1.9c1.3,0.4,2.6,1,3.7,0c-0.6-1.5-1.9-1.6-3.3-1.4v-0.5l7.7-2l-1.1-0.9l1.7-1.2l-2.3-0.9v-0.3
			l2.1-0.3l-0.6-1.6l1.6-0.6l-0.5-0.4l3.4-1.4c-0.2-0.3-0.7-0.6-0.8-1c-0.3-1-0.3-1.8,1.1-2.1c0.7-0.3,1.3-0.7,1.8-1.2l3.6,1v-0.3
			l-3.1-2l0.2-0.4l2.3,0.6l0.9-2.4l2.5,0.9l0.4-0.4l-1.3-0.6c2.3-0.5,3.3,1.2,4.7,2.1l-0.1,0.3l-1.9-0.8l-0.2,0.2l2.6,2.1l-0.1,0.4
			l-4.4,0.3c0.4,0.2,0.7,0.4,1.1,0.6c0.2,0.2,1.6,0,0.3,0.9c0.1,0.6,0.3,1.1,0.7,1.6c0.4,0.4,1,0.5,1.5,0.9c-0.4,0-0.7-0.2-1.1-0.2
			c-1.5-0.2-3-0.2-4.5-0.1l5.8,2.8l-0.4,0.6l-3.3-1.6l0.8,1.6l-3.3-0.8l-0.1,0.2l1.5,0.9l1.5,0.9L1224.4,218.9z"/>
		<path class="st5" d="M1103.9,215.8c0,0.1,0,0.3,0,0.4l-3.8,2.5l-0.5-1.9l1.9-0.8L1103.9,215.8z"/>
		<path class="st5" d="M1328.7,395.3c0.2,2.3-0.9,3.5-2.9,3.3L1328.7,395.3z"/>
		<path class="st5" d="M1234.9,321.7l0.4-1.2c0.3,0.2,0.8,0.3,1,0.6c0.4,0.9,0.8,1.8,1.1,2.7
			C1235.6,323.8,1235.8,322.1,1234.9,321.7L1234.9,321.7z"/>
		<path class="st5" d="M1220.7,501.3l7.1-5.2l0.2,0.3l-7.1,5.2L1220.7,501.3z"/>
		<path class="st5" d="M1326.7,309.3l1.5,2.1l0.6-0.9c0,0.6,0.2,1.2,0.1,1.3c-0.1,0.1-1.1,0.5-1.3,0.3
			C1326.7,311.5,1326.3,310.3,1326.7,309.3L1326.7,309.3z"/>
		<path class="st5" d="M1264.7,462.6c1.7-1.6,4.1-2.2,6.4-1.6l-1.9,1.2l0.1-1.4L1264.7,462.6z"/>
		<path class="st5" d="M1224.4,218.9c0.8-0.1,1.6-0.1,2.4,0c0.3,0,0.7,0.6,0.7,0.6c0,0.1-0.7,0.9-0.8,0.8
			C1225.9,219.9,1225.1,219.4,1224.4,218.9L1224.4,218.9z"/>
		<path class="st5" d="M1345.5,416.6l-2.4,0.5c0.5-1.3,0.9-2.1,2.1-2L1345.5,416.6z"/>
		<path class="st5" d="M1052.3,471.6l-1.7,1.3c0.3-1.5,1.3-2.7,2.6-3.2c-0.3,0.5-0.6,1.1-0.9,1.6L1052.3,471.6z"/>
		<path class="st5" d="M1091.2,195.4c-0.6,0.8-1.5,1.2-2.5,1.1l1.8-2.1L1091.2,195.4z"/>
		<path class="st5" d="M1322.2,377.3c-0.6,0.8-0.6,0.8-3-0.6c0.5,0,1,0.1,1.4,0.3C1321.1,377,1321.6,377.2,1322.2,377.3z"/>
		<path class="st5" d="M1071.2,386.2c-1.2-0.5-1.1-1.4-1.1-2.4c0-3-0.6-6.1-0.4-9.1c0.1-1.9-0.8-3.8,0.3-5.8c0.5-1,0.2-2.1-0.7-2.7
			c-0.4-0.3-0.2-1.9,0.2-2.7c0.5-0.8,1.1-1.5,1.8-2.1C1070.2,369.6,1070.2,378,1071.2,386.2z"/>
		<path class="st5" d="M1098.2,398.4c0.9-1.1,0.6-3,2.4-3.5l1,1.7l-3.1,2.1L1098.2,398.4z"/>
		<path class="st5" d="M1123.9,377.4l1.6-0.7l-0.2-0.9l2.9-1.5l0.2,0.4c-1,1.5-2.5,2.7-4.3,3.2L1123.9,377.4z"/>
		<path class="st5" d="M1187.8,278c1.2,0.2,2.4,0.5,3.6,1c0.4,0.2,0.4,1.3,0.9,1.8C1190.9,279.7,1188.8,279.7,1187.8,278z"/>
		<path class="st5" d="M1111.2,388.3c0.5-1.9,0.7-2.1,2.6-1.2L1111.2,388.3z"/>
		<path class="st5" d="M1087.6,404l-1.3-0.1l-0.6,1.8c-0.8-1.6-0.9-1.4,1.6-3L1087.6,404z"/>
		<path class="st5" d="M1177.7,359.4c0.3-1.8,1.9-1.8,3.1-2.5l-3,2.7L1177.7,359.4z"/>
		<path class="st5" d="M1116.2,387.1l-1.8-0.2c1.3-0.8,1.8-2.1,3.4-1.7C1117.5,386.1,1115.3,385.2,1116.2,387.1z"/>
		<path class="st5" d="M1180.7,276.9l-1.6-0.3l0.6-1.2l1.2,1.1L1180.7,276.9z"/>
		<path class="st5" d="M1220,361c3.3-1.4,6.8-2.1,10.4-2l-10.3,2.3L1220,361z"/>
		<path class="st5" d="M1260.4,471.9c0.4-0.2,0.8-0.5,1.1-0.8c1-1.3,2-1.4,3.6-0.3c-0.4,0.4-0.4,1.4-1.6,0.6
			c-0.5-0.3-1.6,0.5-2.4,0.7C1261,472.1,1260.7,471.9,1260.4,471.9L1260.4,471.9z"/>
		<path class="st5" d="M1168.5,389.2l5.7-0.4v0.3c-1.4,0.5-2.8,0.9-4.3,1.3c-0.4,0-1.1-0.5-1.6-0.8L1168.5,389.2z"/>
		<path class="st5" d="M1140.6,393.4c0.7-1.6,2.5-2.4,4.2-1.8C1143.4,392.5,1142.5,393.8,1140.6,393.4z"/>
		<path class="st5" d="M1264.6,468.9c1.6-1.2,3.5-2.1,5.4-2.6l0.2,0.4l-5.4,2.5L1264.6,468.9z"/>
		<path class="st5" d="M1081.8,442.2c0.4-0.5,0.9-1,1.4-1.5c1.2-0.8,2.4-1.6,3.6-2.4C1086.6,439.5,1085.4,440.3,1081.8,442.2z"/>
		<path class="st5" d="M1179.7,381.8l-4.4,1.3l-0.2-0.8l4.4-1.3L1179.7,381.8z"/>
		<path class="st5" d="M1222,378.4l-4.4,0.4C1219.7,377.5,1221.1,377.4,1222,378.4z"/>
		<path class="st5" d="M1160.4,395.2c-0.6-1.1,0-1.7,2-2.1l0.3,0.3L1160.4,395.2z"/>
		<path class="st5" d="M1121.4,415.2l-3.9,2.8l-0.3-0.4l3.9-2.8L1121.4,415.2z"/>
		<path class="st5" d="M1338.9,383l0.8,2.5l-1.9-0.7L1338.9,383z"/>
		<path class="st5" d="M1346.3,387.2c0.7,1.2,0.4,2.1-1,3.3L1346.3,387.2z"/>
		<path class="st5" d="M1257.3,372.2l-2.1-0.2C1256.4,370.4,1256.5,370.4,1257.3,372.2z"/>
		<path class="st5" d="M1306.6,353.4l-0.8,1.5l-2.1-1.3L1306.6,353.4z"/>
		<path class="st5" d="M1208.6,374.8l2.4,1.1C1209.8,376.7,1208.8,376.3,1208.6,374.8z"/>
		<path class="st5" d="M1230.2,449.6l1.2-0.9l-1.4-0.2c1.5-1.3,2.7,0.4,4.3-0.5C1233.2,449.8,1232.3,450.1,1230.2,449.6z"/>
		<path class="st5" d="M1206.2,486.2c0.7,1.2,0.6,1.3-0.8,1.5C1205.2,486.4,1205.4,486.2,1206.2,486.2L1206.2,486.2z"/>
		<path class="st5" d="M1315.1,312.7l-0.4-0.6h-0.2l0.6,2.7h-0.2l-2.1-4.3l2-0.1c0.1,0.7,0.2,1.4,0.4,2.1L1315.1,312.7z"/>
		<path class="st5" d="M578.6,544.4c0,6.9,3.5,13.7,11.2,13.7c6.4,0,8.2-2.6,9.7-5.9h15.4c-2,6.8-8,17.9-25.5,17.9
			c-18.3,0-26.2-13.7-26.2-28.2c0-17.4,8.9-29.9,26.8-29.9c19,0,25.6,13.8,25.6,27.6c0,1.6,0,3.1-0.2,4.7L578.6,544.4z M599.9,534.9
			c-0.1-6.4-2.7-11.9-10.2-11.9s-10.3,5.1-10.9,11.9H599.9z"/>
		<path class="st5" d="M640,513.3c5.8,10.4,8.1,14.5,9.8,17.4l0,0c1.9-3.3,5.3-9.5,9.8-17.4h17.1l-18,26.4l17.9,29.1h-17.3
			c-5-9.4-8.1-15.5-9.7-18.7h-0.1c-1.5,2.9-5.2,10.1-9.8,18.7h-16.8l17.1-27l-17.1-28.5L640,513.3L640,513.3z"/>
		<path class="st5" d="M702.9,563.9v26.2h-15.3v-63.4c0-4.5,0-8.9,0-13.4h15c0.3,2.3,0.5,4.6,0.5,6.9c2.4-4.1,7.3-8.2,16.1-8.2
			c12.5,0,22.1,10.4,22.1,27.6c0,19.6-10.7,30.4-24.2,30.4C709.1,570.1,705,567.2,702.9,563.9z M725.4,540.3
			c0-10.2-4.1-15.9-11.4-15.9c-8.7,0-11.8,5.6-11.8,16.8c0,10.7,2.8,16.8,11.2,16.8S725.4,551.6,725.4,540.3z"/>
		<path class="st5" d="M768.9,544.4c0,6.9,3.5,13.7,11.2,13.7c6.4,0,8.2-2.6,9.7-5.9h15.4c-2,6.8-8,17.9-25.5,17.9
			c-18.3,0-26.2-13.7-26.2-28.2c0-17.4,8.9-29.9,26.8-29.9c19,0,25.5,13.8,25.5,27.6c0,1.6,0,3.1-0.2,4.7L768.9,544.4z M790.2,534.9
			c-0.1-6.4-2.7-11.9-10.2-11.9s-10.3,5.1-10.9,11.9H790.2z"/>
		<path class="st5" d="M820.8,528.4c0-5.5,0-10.4,0-15.1h15c0.2,1.2,0.4,6.8,0.4,9.7c2.4-6.4,8.4-11,17.8-11v14.7
			c-11.2-0.3-17.8,2.7-17.8,17.9v24.2h-15.4V528.4z"/>
		<path class="st5" d="M866.8,490.6h15.4v13.7h-15.4V490.6z M866.8,513.3h15.4v55.5h-15.4V513.3z"/>
		<path class="st5" d="M912.5,544.4c0,6.9,3.5,13.7,11.1,13.7c6.4,0,8.2-2.6,9.7-5.9h15.4c-2,6.8-8,17.9-25.5,17.9
			c-18.3,0-26.2-13.7-26.2-28.2c0-17.4,8.9-29.9,26.7-29.9c19,0,25.6,13.8,25.6,27.6c0,1.6,0,3.1-0.2,4.7L912.5,544.4z M933.9,534.9
			c-0.1-6.4-2.7-11.9-10.2-11.9s-10.3,5.1-10.9,11.9H933.9z"/>
		<path class="st5" d="M964.5,527.3c0-4.7,0-9.9-0.1-14h15c0.3,2.3,0.5,4.7,0.6,7.1c1.9-3.5,6.4-8.3,16.1-8.3
			c11.1,0,18.4,7.5,18.4,21.4v35.3h-15.4v-33.5c0-6.2-2.1-10.7-8.8-10.7s-10.3,3.6-10.3,13.4v30.9h-15.4L964.5,527.3z"/>
		<path class="st5" d="M1080.3,550.9c-1.9,9.2-8.4,19.2-25,19.2c-17.3,0-26.1-11.9-26.1-28.6s10-29.4,26.9-29.4
			c18.7,0,23.9,13.4,24.2,19.7h-14.9c-0.4-4.7-4.6-8.1-9.3-7.7c-0.1,0-0.1,0-0.2,0c-7,0-11,6.2-11,16.9c0,11.8,4.3,17.2,10.9,17.2
			c4.5,0.1,8.5-2.9,9.5-7.3L1080.3,550.9z"/>
		<path class="st5" d="M1107.1,544.4c0,6.9,3.5,13.7,11.1,13.7c6.4,0,8.2-2.6,9.7-5.9h15.4c-2,6.8-8,17.9-25.5,17.9
			c-18.3,0-26.2-13.7-26.2-28.2c0-17.4,8.9-29.9,26.8-29.9c19.1,0,25.6,13.8,25.6,27.6c0,1.6,0,3.1-0.2,4.7L1107.1,544.4z
			 M1128.5,534.9c-0.1-6.4-2.7-11.9-10.2-11.9c-7.5,0-10.3,5.1-10.9,11.9H1128.5z"/>
		<path class="st5" d="M687.5,679.7v-78.3h15.4v78.3H687.5z"/>
		<path class="st5" d="M721,601.5h15.4v13.7H721V601.5z M721,624.2h15.4v55.5H721V624.2z"/>
		<path class="st5" d="M757.3,679.7v-44h-8.1v-11.5h8.1v-4.8c0-11.5,5.7-19,17.7-19c2.4,0,4.8,0.2,7.1,0.6v12.1
			c-1.1-0.2-2.2-0.3-3.2-0.3c-4.5,0-6.2,1.7-6.2,7.6v3.7h9.7v11.5h-9.7v44L757.3,679.7z"/>
		<path class="st5" d="M806,655.3c0,6.9,3.5,13.7,11.1,13.7c6.4,0,8.2-2.6,9.7-5.9h15.4c-2,6.8-8,17.9-25.5,17.9
			c-18.3,0-26.2-13.7-26.2-28.2c0-17.4,8.9-29.9,26.7-29.9c19,0,25.6,13.8,25.6,27.6c0,1.6,0,3.1-0.2,4.7L806,655.3z M827.3,645.8
			c0-6.4-2.7-11.9-10.2-11.9s-10.3,5.1-10.9,11.9H827.3z"/>
		<path class="st5" d="M887.1,618.5c-0.9,5.3-5.7,9.1-11.1,8.8c-7.4,0-11.8-5.3-11.8-13.6c0-7.5,4.3-13.9,12.2-13.9
			c5.4-0.4,10.1,3.5,10.7,8.9h-5c-0.4-2.9-3-4.9-5.8-4.7c-4.4,0-6.9,3.8-6.9,9.6s2.4,9.7,6.8,9.7c2.8,0.1,5.3-1.8,5.9-4.6
			L887.1,618.5L887.1,618.5z"/>
		<path class="st5" d="M917.7,613.4c0,7.7-4.4,13.8-12.5,13.8c-7.7,0-12.3-5.8-12.3-13.7s4.5-13.8,12.6-13.8
			C912.9,599.7,917.7,605.1,917.7,613.4z M898.1,613.4c0,5.6,2.7,9.6,7.2,9.6s7.1-3.8,7.1-9.6c0-5.8-2.6-9.6-7.2-9.6
			S898.1,607.5,898.1,613.4L898.1,613.4z"/>
		<path class="st5" d="M925.5,607.1c0-2.3,0-4.6,0-6.8h4.9c0,0.8,0.2,2.6,0.2,3.9c1.4-2.9,4.4-4.6,7.6-4.5c3.1-0.2,6.1,1.6,7.2,4.6
			c1.7-3,4.9-4.8,8.3-4.6c4.3,0,8.3,2.6,8.3,9.7v17.3h-5v-16.7c0-2.9-1-6-4.9-6c-3.9,0-5.8,3-5.8,7.5v15.1h-5v-16.5
			c0-3.2-0.9-6.1-4.8-6.1c-4,0-5.9,3.1-5.9,8v14.6h-5L925.5,607.1z"/>
		<path class="st5" d="M971.6,607.1c0-2.3,0-4.6,0-6.8h4.9c0.1,1.3,0.2,2.6,0.2,3.9c1.4-2.9,4.4-4.6,7.6-4.5c3.1-0.2,6,1.6,7.2,4.6
			c1.7-3,4.9-4.8,8.3-4.6c4.3,0,8.3,2.6,8.3,9.7v17.3h-5v-16.7c0-2.9-1-6-4.9-6c-3.9,0-5.8,3-5.8,7.5v15.1h-5v-16.5
			c0-3.2-0.9-6.1-4.8-6.1s-5.9,3.1-5.9,8v14.6h-5L971.6,607.1z"/>
		<path class="st5" d="M1039,618.9c0,2.6,0,6,0,7.7h-5c0-0.7-0.2-2.3-0.2-3.8c-1.4,3-4.6,4.7-7.8,4.4c-4.6,0-8.7-2.4-8.7-9.7v-17.3
			h5v16.2c0,3.3,1,6.4,5.2,6.4c4.6,0,6.4-2.5,6.4-8.8v-13.8h5.1L1039,618.9z"/>
		<path class="st5" d="M1048.6,606.9c0-2.3,0-4.6,0-6.6h4.9c0.1,0.8,0.2,3.3,0.2,4.1c1.4-3.2,4.7-5.1,8.2-4.8c5,0,8.8,3.1,8.8,10
			v16.9h-5.1v-16.3c0-3.8-1.4-6.4-5.3-6.4c-4.6,0-6.6,3.4-6.6,8.5v14.1h-5.1L1048.6,606.9L1048.6,606.9z"/>
		<path class="st5" d="M1080.2,588.7h5.1v5.8h-5.1V588.7z M1080.2,600.3h5.1v26.3h-5.1V600.3z"/>
		<path class="st5" d="M1091.8,600.2h4.4v-7.7h5.1v7.7h5.7v4.1h-5.7v15c0,2.5,0.6,3.7,3,3.7c0.7,0,1.4,0,2.1-0.2v3.7
			c-1.3,0.4-2.7,0.5-4.1,0.5c-4.3,0-6.1-2.2-6.1-6.7v-16h-4.4L1091.8,600.2z"/>
		<path class="st5" d="M1117.4,600.2c4,11.9,6.3,19.2,6.9,21.7l0,0c0.8-2.9,2.6-8.9,6.7-21.7h5.1l-9.4,27.5
			c-2.6,7.7-4.6,9.7-10.2,9.7c-1,0-2-0.1-2.9-0.2v-4.3c0.7,0.1,1.4,0.1,2.1,0.1c3.2,0,4.5-1.3,5.9-5.5l-9.7-27.3L1117.4,600.2
			L1117.4,600.2z"/>
		<path class="st5" d="M869,672.1c0.7,2.8,3.3,4.6,6.2,4.3c3.7,0,5.1-1.5,5.1-3.8c0-2.2-1.2-3.3-6-4.5c-7.7-1.9-9.2-4.3-9.2-7.9
			s2.7-7.5,9.7-7.5c7,0,9.8,4,10.1,7.7h-4.9c-0.5-2.5-2.9-4.2-5.4-3.8c-3.4,0-4.5,1.6-4.5,3.3s1,2.7,5.8,3.9
			c8.1,1.9,9.7,4.6,9.7,8.5c0,4.6-3.6,8-10.4,8s-10.4-3.5-11-8.2L869,672.1z"/>
		<path class="st5" d="M896.5,667.5c0,5,2.5,8.5,6.8,8.5c2.7,0.3,5.2-1.3,6-3.8h5.1c-1.4,5-6.1,8.4-11.3,8
			c-8.3,0-11.8-6.7-11.8-13.5c0-7.9,4-14.1,12.1-14.1c8.5,0,11.4,6.8,11.4,12.5c0,0.8,0,1.5,0,2.1L896.5,667.5z M909.7,664.1
			c0-4.1-2.1-7.4-6.4-7.4s-6.4,3-6.8,7.4H909.7z"/>
		<path class="st5" d="M922.6,660.5c0-3.5,0-5.6,0-7.1h5c0,0.7,0.2,2.9,0.2,5.2c1.4-3.6,4.9-5.9,8.8-5.8v5c-5.4,0-8.8,2.7-8.8,9.4
			v12.5h-5.1L922.6,660.5z"/>
		<path class="st5" d="M947.1,653.4c3.3,10.4,5.8,18.4,6.6,21.7l0,0c0.7-3.2,3.4-11.1,7-21.7h5.2l-9.6,26.3h-5.5l-9.1-26.3H947.1z"
			/>
		<path class="st5" d="M972.4,641.8h5.1v5.8h-5.1L972.4,641.8z M972.4,653.4h5.1v26.3h-5.1L972.4,653.4z"/>
		<path class="st5" d="M1008.2,671.6c-0.9,5.3-5.7,9.1-11.1,8.8c-7.4,0-11.8-5.3-11.8-13.6c0-7.5,4.3-13.9,12.2-13.9
			c5.4-0.5,10.1,3.5,10.7,8.9h-5c-0.4-2.8-3-4.9-5.8-4.7c-4.3,0-6.9,3.8-6.9,9.6s2.5,9.7,6.8,9.7c2.8,0.1,5.3-1.8,5.9-4.6
			L1008.2,671.6L1008.2,671.6z"/>
		<path class="st5" d="M1019.2,667.5c0,5,2.5,8.5,6.8,8.5c2.7,0.3,5.2-1.3,6-3.8h5.1c-1.3,5-6.1,8.4-11.3,8
			c-8.3,0-11.8-6.7-11.8-13.5c0-7.9,4-14.1,12.1-14.1c8.5,0,11.4,6.8,11.4,12.5c0,0.8,0,1.5,0,2.1L1019.2,667.5z M1032.4,664.1
			c0-4.1-2.1-7.4-6.4-7.4s-6.3,3-6.7,7.4H1032.4z"/>
		<path class="st5" d="M1048.4,672.1c0.7,2.8,3.3,4.6,6.2,4.3c3.6,0,5-1.5,5-3.8c0-2.2-1.2-3.3-6-4.5c-7.7-1.9-9.3-4.3-9.3-7.9
			s2.7-7.5,9.7-7.5s9.8,4,10.1,7.7h-4.9c-0.5-2.5-2.9-4.2-5.4-3.8c-3.4,0-4.5,1.6-4.5,3.3s1,2.7,5.8,3.9c8.1,1.9,9.7,4.6,9.7,8.5
			c0,4.6-3.6,8-10.4,8s-10.4-3.5-11-8.2L1048.4,672.1z"/>
	</g>
</g>
<g id="Layer_2_00000101063005036446262460000003670250159836671373_">
	<g id="Layer_1-2_00000178172281912176938880000011004845839412412821_">
		<rect x="441.4" y="283.2" class="st2" width="383.8" height="383.8"/>
		<path class="st3" d="M710.9,653.9c-1.9-13.5-1.9-27.2,0-40.6c3.4-21.8,9.5-43,18.3-63.3c8.4-20.7,17.3-38.2,19.1-62.2
			c1.5-17.5-1.2-35.2-8.1-51.4c-7.5-16.6-19.1-28.9-27-45c-12.2-24.9-10.6-57.7-5.3-85c1.6-7.8,3.5-15.5,5.9-23.1h-32.6
			c-1.2,3.2-2.4,6.4-3.4,9.7c-4,12.3-6,25.2-5.9,38.2c0.9,34.6,21.3,58,34.4,85.9c12.3,26.2,16.9,55.4,13.3,84.1
			c-3.8,25.5-12.1,50.1-24.4,72.7c-16.4,37.9-16.8,67.6-9.1,93.1h27.2C712.1,660.7,711.1,655.4,710.9,653.9z"/>
		<path class="st3" d="M787.5,292.9c-4,12.3-6,25.2-5.9,38.2c0.8,34.6,21.3,58.1,34.4,85.9c3.8,8.1,6.9,16.6,9.3,25.3V283.2h-34.3
			C789.7,286.4,788.5,289.6,787.5,292.9z"/>
		<path class="st3" d="M785,550c8.4-20.7,17.3-38.2,19.1-62.2c1.5-17.5-1.3-35.1-8.1-51.3c-7.5-16.6-19.1-28.9-27-45
			c-12.2-24.9-10.6-57.7-5.3-85c1.6-7.8,3.5-15.6,5.9-23.2h-34.6c-1.2,3.2-2.4,6.4-3.4,9.7c-4,12.3-6,25.2-5.9,38.2
			c0.8,34.6,21.3,58.1,34.4,85.9c12.3,26.2,16.9,55.4,13.3,84.1c-3.8,25.5-12.1,50.1-24.4,72.7c-16.4,37.9-16.8,67.6-9.1,93.1h29.2
			c-1.3-6.3-2.2-11.8-2.4-13.1c-1.9-13.5-2-27.1-0.2-40.6C769.9,591.4,776.1,570.2,785,550z"/>
		<path class="st3" d="M804.9,573.9c-16.4,37.9-16.7,67.6-9.1,93.1h29.4V522.1C820.5,540.1,813.6,557.5,804.9,573.9z"/>
		<path class="st3" d="M657.2,653.9c-1.9-13.5-2-27.1-0.2-40.6c3.4-21.8,9.5-43,18.3-63.3c8.4-20.7,17.3-38.2,19.1-62.2
			c1.5-17.5-1.2-35.2-8.1-51.4c-7.5-16.6-19.1-28.9-27-45c-12.2-24.9-10.6-57.7-5.3-85c1.6-7.8,3.5-15.5,5.9-23.1H441.4v35.3h166.9
			V357H441.4v10.2h166.9v13.9l-52.8,250.7H441.4v35.3h218C658.2,660.7,657.2,655.4,657.2,653.9z"/>
		<polygon class="st3" points="586.4,386.1 441.4,386.1 441.4,417.3 485.5,417.3 557.4,417.3 557.4,425.3 485.5,425.3 441.4,425.3 
			441.4,560.5 485.5,560.5 529.7,560.5 529.7,568.6 485.5,568.6 441.4,568.6 441.4,598.2 541.7,598.2 		"/>
		<path class="st4" d="M869.7,416.3c-0.1-16.7,13.5-30.4,30.2-30.4c4.8,0,9.5,1.1,13.8,3.2c4.2,2.1,7.8,5.2,10.6,8.9l-9.6,7.2
			c-3.2-4.7-8.6-7.6-14.4-7.5c-3.2,0-6.3,0.9-9,2.6c-2.7,1.7-4.9,4.1-6.4,6.9c-3.1,5.7-3.1,12.6,0,18.3c1.5,2.8,3.7,5.1,6.4,6.8
			c2.7,1.7,5.8,2.6,9,2.6c5.8-0.1,11.2-3,14.4-7.8l9.6,7.3c-2.8,3.7-6.4,6.7-10.6,8.8c-9.2,4.7-20.1,4.4-29.1-0.7
			c-4.6-2.6-8.3-6.4-11-11C871.1,426.9,869.7,421.6,869.7,416.3z"/>
		<path class="st4" d="M948.1,387.2v33.3c-0.2,3.6,1,7.2,3.3,10.1c4.6,5,12.3,5.2,17.3,0.6c0.2-0.2,0.4-0.4,0.6-0.6
			c2.3-2.9,3.4-6.4,3.3-10.1v-33.3h13.7v33.9c0.1,5-1.1,10-3.7,14.4c-2.2,3.7-5.5,6.7-9.5,8.5c-8.2,3.6-17.5,3.6-25.7,0
			c-3.9-1.8-7.2-4.7-9.5-8.4c-2.6-4.4-3.9-9.3-3.7-14.4v-34H948.1z"/>
		<path class="st4" d="M997.1,445.6v-58.3h27.5c4.6-0.2,9.3,0.7,13.5,2.5c3.3,1.4,6.2,3.8,8.1,6.8c3.5,6.1,3.5,13.5,0,19.6
			c-1.9,3.1-4.7,5.5-8.1,6.9c-4.3,1.8-8.9,2.7-13.5,2.5h-13.7v19.8L997.1,445.6z M1010.9,414.5h13.7c2.8,0.2,5.6-0.5,7.8-2.2
			c1.8-1.5,2.7-3.6,2.6-5.9c0.1-2.3-0.8-4.5-2.6-5.9c-2.3-1.5-5.1-2.2-7.8-2h-13.7L1010.9,414.5z"/>
		<path class="st4" d="M1057.3,445.6v-58.3h15.4l26.2,37.2v-37.2h13.8v58.3h-15.3l-26.5-37.2v37.2H1057.3z"/>
		<path class="st4" d="M1121.7,416.2c-0.1-5.4,1.4-10.7,4.1-15.3c8.5-14.6,27.3-19.4,41.8-10.9c4.5,2.6,8.3,6.4,10.9,10.9
			c5.5,9.4,5.5,21.1,0,30.6c-2.7,4.6-6.5,8.4-11.1,11c-9.4,5.4-21,5.4-30.5,0c-4.6-2.6-8.5-6.4-11.1-11
			C1123,426.8,1121.6,421.6,1121.7,416.2z M1135,416.2c0,3.3,0.8,6.5,2.3,9.4c1.5,2.7,3.6,5,6.3,6.7c2.6,1.6,5.5,2.5,8.6,2.5
			c3.1,0,6.1-0.8,8.6-2.5c2.7-1.6,4.9-3.9,6.4-6.7c1.5-2.9,2.3-6.1,2.3-9.4c0-3.3-0.8-6.5-2.3-9.5c-1.4-2.8-3.6-5.1-6.2-6.7
			c-2.6-1.6-5.6-2.5-8.6-2.4c-3,0-6,0.8-8.6,2.4c-2.6,1.7-4.8,4-6.3,6.7C1135.8,409.7,1135,412.9,1135,416.2z"/>
		<path class="st4" d="M1189.8,416.2c-0.1-5.4,1.4-10.7,4.1-15.3c8.6-14.6,27.3-19.4,41.9-10.9c4.5,2.6,8.2,6.4,10.9,10.9
			c5.5,9.4,5.5,21.1,0,30.6c-2.7,4.6-6.5,8.4-11.1,11c-9.4,5.4-21,5.4-30.5,0c-4.6-2.6-8.5-6.4-11.1-11
			C1191.2,426.8,1189.8,421.6,1189.8,416.2z M1203.1,416.2c0,3.3,0.8,6.5,2.4,9.4c1.5,2.7,3.6,5,6.2,6.7c2.6,1.6,5.5,2.5,8.6,2.5
			c3,0,6-0.8,8.6-2.5c2.7-1.6,4.8-4,6.3-6.7c1.5-2.9,2.3-6.1,2.3-9.4c0-3.3-0.8-6.5-2.3-9.5c-1.4-2.8-3.6-5.1-6.3-6.7
			c-2.6-1.6-5.6-2.5-8.6-2.4c-3,0-6,0.8-8.6,2.4c-2.6,1.7-4.8,4-6.2,6.7C1203.9,409.6,1203.1,412.9,1203.1,416.2z"/>
		<path class="st4" d="M1259.4,387.2h20c5.9-0.1,11.7,1.1,16.9,3.7c9.8,4.6,15.9,14.6,15.7,25.4c0.3,10.9-5.9,20.9-15.7,25.5
			c-5.3,2.6-11.1,4-16.9,3.9h-20V387.2z M1279.4,434.3c3.6,0.1,7.1-0.7,10.3-2.4c2.7-1.5,5-3.8,6.5-6.5c1.5-2.8,2.3-5.9,2.2-9.1
			c0-3.1-0.7-6.3-2.2-9c-1.5-2.7-3.7-4.9-6.5-6.4c-3.2-1.6-6.7-2.5-10.3-2.4h-6.3v35.8L1279.4,434.3z"/>
		<path class="st4" d="M1320.7,387.2h13.7v47.1h31.8v11.3h-45.5V387.2z"/>
		<path class="st4" d="M1376.2,445.6v-58.3h48.2v11.3H1390v12.2h29V422h-29v12.3h34.5v11.3H1376.2z"/>
		<path class="st4" d="M1431.1,403c-0.1-3.4,1.1-6.7,3.3-9.3c2.3-2.7,5.3-4.6,8.7-5.8c3.9-1.3,7.9-2,12-1.9c5-0.1,10.1,0.7,14.8,2.3
			c3.9,1.3,7.4,3.4,10.3,6.4l-5.9,9.3c-2.6-2.4-5.7-4.2-9-5.3c-3.3-1.1-6.7-1.7-10.1-1.7c-2.7-0.1-5.4,0.4-7.8,1.7
			c-1.8,0.8-2.9,2.6-3,4.6c0,1.5,0.7,2.8,1.9,3.7c1.4,1.1,3,1.8,4.6,2.3c1.8,0.5,4.5,1.2,7.8,2c4.1,0.8,8.2,1.9,12.1,3.3
			c3.1,1.1,5.9,2.9,8.1,5.3c2.4,2.6,3.6,6.1,3.4,9.6c0.1,3.4-1.1,6.8-3.4,9.4c-2.4,2.7-5.6,4.7-9,5.8c-4,1.3-8.1,2-12.3,1.9
			c-5.2,0.1-10.4-0.7-15.4-2.4c-4-1.2-7.7-3.4-10.7-6.4l6.3-9.3c2.6,2.4,5.7,4.2,9.1,5.2c3.4,1.1,6.9,1.7,10.4,1.7
			c2.9,0.1,5.8-0.5,8.5-1.8c1.9-0.7,3.2-2.5,3.3-4.6c0-1.4-0.7-2.8-1.8-3.6c-1.4-1-2.9-1.8-4.6-2.2c-1.8-0.6-4.5-1.3-7.8-2
			c-4.1-0.9-8.2-2-12.2-3.4c-3.1-1.1-5.9-2.9-8.2-5.2C1432.2,410,1430.9,406.6,1431.1,403z"/>
		<path class="st4" d="M872.6,503.9h17.1l36.3,71l36.7-71h17.1v92h-14.5v-67l-32.1,60.3h-14.6L887,529.1v66.7h-14.4V503.9z"/>
		<path class="st4" d="M1011.3,503.9v53.9c-0.1,4.9,1.1,9.7,3.6,13.9c2.3,4,5.6,7.3,9.7,9.5c8.4,4.5,18.4,4.5,26.8,0
			c4-2.2,7.3-5.4,9.6-9.4c2.4-4.3,3.6-9.1,3.5-14v-53.9h14.5v54.6c0.1,7.5-1.9,14.8-5.6,21.2c-3.5,5.8-8.6,10.5-14.7,13.5
			c-13.1,6-28.2,6-41.3,0c-6.1-2.9-11.2-7.6-14.7-13.3c-3.8-6.4-5.8-13.8-5.6-21.2v-54.7H1011.3z"/>
		<path class="st4" d="M1092,528.5c-0.2-5.4,1.7-10.6,5.3-14.7c3.7-4.2,8.5-7.2,13.8-8.9c6-2,12.3-3,18.7-2.9c8-0.1,15.9,1,23.5,3.5
			c6.1,1.9,11.7,5.3,16.3,9.8l-7.1,11.3c-3.9-4.2-8.9-7.3-14.5-8.9c-6.1-2-12.5-3-18.9-3c-5.9-0.2-11.7,1.1-17,3.7
			c-4.1,1.6-6.8,5.5-6.9,9.8c-0.1,3.1,1.4,6,3.9,7.8c2.8,2.2,6.1,3.7,9.5,4.6c3.9,1.1,8.9,2.2,15.4,3.5c6.9,1.3,13.7,2.9,20.4,5
			c5,1.5,9.6,4.2,13.4,7.8c3.8,3.8,5.8,9,5.5,14.4c0.2,5.4-1.8,10.7-5.4,14.7c-3.9,4.2-8.8,7.2-14.2,8.9c-6.1,2-12.5,2.9-18.9,2.9
			c-8.3,0.1-16.5-1.1-24.5-3.5c-6.4-1.7-12.2-5.1-16.9-9.8l7.1-11.6c4.1,4.3,9.3,7.5,15,9.1c6.3,2.1,13,3.1,19.6,3.1
			c4.1,0,8.2-0.6,12.2-1.8c3.4-0.9,6.5-2.6,9.1-4.9c2.1-1.8,3.4-4.5,3.4-7.3c0.1-3.1-1.3-6-3.7-7.8c-2.8-2.1-6-3.6-9.4-4.6
			c-3.9-1.1-8.9-2.3-15.5-3.5c-6.9-1.2-13.7-2.8-20.4-4.8c-5-1.5-9.6-4.2-13.4-7.8C1093.7,538.7,1091.8,533.7,1092,528.5z"/>
		<path class="st4" d="M1186.3,595.9v-92h74.3v11.8h-59.8v28.3h51v11.8h-51V584h59.8v11.8L1186.3,595.9z"/>
		<path class="st4" d="M1290.7,503.9v53.9c-0.1,4.9,1.2,9.7,3.6,13.9c2.3,4,5.6,7.3,9.6,9.5c4.1,2.2,8.7,3.4,13.4,3.4
			c4.7,0.1,9.3-1.1,13.4-3.4c4-2.2,7.3-5.4,9.6-9.4c2.4-4.3,3.6-9.1,3.6-14v-53.9h14.4v54.6c0.1,7.5-1.8,14.8-5.6,21.2
			c-3.5,5.8-8.6,10.4-14.7,13.3c-13.1,6-28.2,6.1-41.4,0.1c-6.1-2.9-11.2-7.6-14.7-13.3c-3.8-6.4-5.8-13.8-5.6-21.2v-54.7H1290.7z"
			/>
		<path class="st4" d="M1375.4,503.9h17.1l36.3,71l36.7-71h17.1v92h-14.5v-67l-32.1,60.3h-14.6l-31.6-59.9v66.7h-14.4V503.9z"/>
	</g>
</g>
</svg>
