<?xml version="1.0" encoding="utf-8"?>
<!-- Generator: Adobe Illustrator 26.0.2, SVG Export Plug-In . SVG Version: 6.00 Build 0)  -->
<svg version="1.1" id="Layer_1" xmlns="http://www.w3.org/2000/svg" xmlns:xlink="http://www.w3.org/1999/xlink" x="0px" y="0px"
	 viewBox="0 0 1920 1080" style="enable-background:new 0 0 1920 1080;" xml:space="preserve">
<style type="text/css">
	.st0{display:none;}
	.st1{display:inline;}
	.st2{fill:#FFFFFF;}
	.st3{fill:#E32027;}
	.st4{fill:#231F20;}
	.st5{fill:#E9A353;}
</style>
<image style="display:none;overflow:visible;enable-background:new    ;" width="3000" height="2000" xlink:href="6EDEC07.png"  transform="matrix(0.24 0 0 0.24 600 300)">
</image>
<g id="Layer_2_00000131353510360004033800000005174439335965278108_" class="st0">
	<g id="Layer_1-2" class="st1">
		<rect x="684.9" y="441.1" class="st2" width="200.3" height="200.3"/>
		<path class="st3" d="M825.5,634.5c-1-7-1-14.2,0-21.2c1.8-11.4,5-22.5,9.5-33c4.4-10.8,9-19.9,10-32.5c0.8-9.2-0.7-18.4-4.2-26.8
			c-3.9-8.7-10-15.1-14.1-23.5c-6.4-13-5.5-30.1-2.7-44.4c0.8-4.1,1.8-8.1,3.1-12h-17c-0.6,1.7-1.2,3.4-1.8,5.1
			c-2.1,6.4-3.1,13.2-3.1,19.9c0.5,18.1,11.1,30.2,17.9,44.8c6.4,13.7,8.8,28.9,6.9,43.9c-2,13.3-6.3,26.2-12.7,38
			c-8.5,19.8-8.7,35.3-4.7,48.6h14.2C826.1,638.1,825.6,635.3,825.5,634.5z"/>
		<path class="st3" d="M865.5,446.2c-2.1,6.4-3.2,13.2-3.1,19.9c0.4,18.1,11.1,30.3,17.9,44.8c2,4.2,3.6,8.7,4.8,13.2v-83h-17.9
			C866.6,442.8,866,444.5,865.5,446.2z"/>
		<path class="st3" d="M864.2,580.3c4.4-10.8,9-19.9,10-32.5c0.8-9.1-0.7-18.3-4.2-26.8c-3.9-8.7-10-15.1-14.1-23.5
			c-6.4-13-5.5-30.1-2.7-44.4c0.8-4.1,1.8-8.1,3.1-12.1h-18c-0.6,1.7-1.2,3.4-1.8,5.1c-2.1,6.4-3.1,13.2-3.1,19.9
			c0.4,18.1,11.1,30.3,17.9,44.8c6.4,13.7,8.8,28.9,6.9,43.9c-2,13.3-6.3,26.2-12.7,38c-8.5,19.8-8.7,35.3-4.7,48.6h15.2
			c-0.7-3.3-1.2-6.1-1.3-6.9c-1-7-1-14.2-0.1-21.2C856.3,602,859.5,590.9,864.2,580.3z"/>
		<path class="st3" d="M874.5,592.8c-8.5,19.8-8.7,35.3-4.7,48.6h15.3v-75.6C882.7,575.2,879.1,584.2,874.5,592.8z"/>
		<path class="st3" d="M797.5,634.5c-1-7-1-14.2-0.1-21.2c1.8-11.4,5-22.5,9.6-33c4.4-10.8,9-19.9,10-32.5
			c0.8-9.2-0.7-18.4-4.2-26.8c-3.9-8.7-10-15.1-14.1-23.5c-6.4-13-5.5-30.1-2.7-44.4c0.8-4.1,1.8-8.1,3.1-12h-114v18.4H772v20.1
			h-87.1v5.3H772v7.3L744.4,623h-59.5v18.4h113.8C798,638.1,797.5,635.3,797.5,634.5z"/>
		<polygon class="st3" points="760.5,494.8 684.9,494.8 684.9,511.1 707.9,511.1 745.4,511.1 745.4,515.3 707.9,515.3 684.9,515.3 
			684.9,585.8 707.9,585.8 731,585.8 731,590 707.9,590 684.9,590 684.9,605.5 737.2,605.5 		"/>
		<path class="st4" d="M909.9,556.2h8.9l18.9,37l19.1-37h8.9v48h-7.5v-35l-16.7,31.5h-7.6l-16.5-31.4v34.8h-7.5V556.2z"/>
		<path class="st4" d="M982.2,556.2v28.2c0,2.5,0.6,5,1.9,7.2c1.2,2.1,2.9,3.8,5,4.9c4.4,2.3,9.6,2.3,14,0c2.1-1.2,3.8-2.8,5-4.9
			c1.2-2.2,1.9-4.7,1.8-7.3v-28.2h7.5v28.5c0,3.9-1,7.7-3,11.1c-1.8,3-4.5,5.5-7.7,7c-6.8,3.1-14.7,3.1-21.5,0c-3.2-1.5-5.8-4-7.7-7
			c-2-3.3-3-7.2-3-11.1v-28.5L982.2,556.2L982.2,556.2z"/>
		<path class="st4" d="M1024.4,569.1c-0.1-2.8,0.9-5.5,2.7-7.7c1.9-2.2,4.4-3.8,7.2-4.7c3.1-1,6.4-1.6,9.7-1.5
			c4.2-0.1,8.3,0.5,12.3,1.8c3.2,1,6.1,2.7,8.5,5.1l-3.7,5.9c-2.1-2.2-4.7-3.8-7.6-4.7c-3.2-1-6.5-1.6-9.9-1.6
			c-3.1-0.1-6.1,0.6-8.9,1.9c-2.1,0.8-3.5,2.9-3.6,5.1c0,1.6,0.7,3.2,2.1,4.1c1.5,1.1,3.2,2,4.9,2.4c2.1,0.6,4.7,1.2,8,1.8
			c3.6,0.7,7.2,1.5,10.7,2.6c2.6,0.8,5,2.2,7,4.1c2,2,3,4.7,2.9,7.5c0.1,2.8-0.9,5.6-2.8,7.7c-2,2.2-4.6,3.8-7.4,4.6
			c-3.2,1-6.5,1.5-9.9,1.5c-4.3,0-8.6-0.6-12.8-1.8c-3.3-0.9-6.4-2.7-8.8-5.1l3.7-6c2.1,2.3,4.8,3.9,7.8,4.7
			c3.3,1.1,6.8,1.6,10.2,1.6c2.2,0,4.3-0.3,6.3-0.9c1.8-0.5,3.4-1.4,4.8-2.6c1.1-0.9,1.8-2.3,1.8-3.8c0.1-1.6-0.7-3.1-1.9-4.1
			c-1.5-1.1-3.1-1.9-4.9-2.4c-2.1-0.6-4.7-1.2-8.1-1.8c-3.6-0.6-7.1-1.5-10.6-2.5c-2.6-0.8-5-2.2-7-4.1
			C1025.2,574.5,1024.2,571.8,1024.4,569.1z"/>
		<path class="st4" d="M1073.6,604.3v-48h38.8v6.1h-31.2v14.8h26.6v6.1h-26.6v14.8h31.2v6.1L1073.6,604.3z"/>
		<path class="st4" d="M1128.1,556.2v28.2c0,2.5,0.6,5,1.9,7.2c1.2,2.1,2.9,3.8,5,4.9c2.1,1.2,4.5,1.8,7,1.8c2.4,0,4.8-0.6,7-1.8
			c2.1-1.1,3.8-2.8,5-4.9c1.3-2.2,1.9-4.7,1.9-7.3v-28.2h7.5v28.5c0.1,3.9-0.9,7.7-2.9,11.1c-1.8,3-4.5,5.4-7.7,7
			c-6.8,3.1-14.7,3.2-21.6,0.1c-3.2-1.5-5.8-4-7.7-7c-2-3.3-3-7.2-2.9-11.1v-28.5L1128.1,556.2L1128.1,556.2z"/>
		<path class="st4" d="M1172.3,556.2h8.9l18.9,37l19.1-37h8.9v48h-7.6v-35l-16.7,31.5h-7.6l-16.5-31.3v34.8h-7.5L1172.3,556.2
			L1172.3,556.2z"/>
		<path class="st4" d="M908.2,510.2c-0.1-9.6,7.7-17.4,17.3-17.5c0.1,0,0.2,0,0.2,0c2.7,0,5.4,0.6,7.8,1.9c2.4,1.2,4.5,3,6.1,5.1
			l-5.5,4.1c-1.9-2.8-5-4.4-8.3-4.4c-1.8,0-3.7,0.5-5.2,1.5c-1.5,1-2.8,2.3-3.7,4c-0.9,1.6-1.4,3.5-1.3,5.3c0,1.8,0.5,3.7,1.3,5.3
			c0.9,1.6,2.1,3,3.7,4c1.5,1,3.4,1.5,5.2,1.5c3.3,0,6.5-1.7,8.3-4.5l5.5,4.2c-1.6,2.1-3.7,3.9-6.1,5.1c-5.3,2.7-11.6,2.5-16.7-0.5
			c-2.6-1.5-4.8-3.7-6.3-6.3C909,516.2,908.2,513.2,908.2,510.2z"/>
		<path class="st4" d="M953.4,493.4v19.4c-0.1,2.1,0.6,4.2,1.9,5.8c2.7,2.9,7.2,3,10,0.3c0.1-0.1,0.2-0.2,0.3-0.3
			c1.3-1.7,2-3.7,1.9-5.8v-19.3h8V513c0.1,2.9-0.7,5.7-2.2,8.2c-1.3,2.1-3.2,3.8-5.5,4.8c-4.7,2-10.1,2-14.8,0
			c-2.2-1-4.2-2.7-5.5-4.8c-1.5-2.5-2.2-5.3-2.2-8.2v-19.6L953.4,493.4L953.4,493.4z"/>
		<path class="st4" d="M981.7,527.1v-33.7h15.8c2.7-0.1,5.3,0.4,7.8,1.5c1.9,0.8,3.5,2.2,4.7,3.9c2,3.5,2,7.8,0,11.4
			c-1.1,1.8-2.7,3.2-4.7,4.1c-2.5,1.1-5.1,1.6-7.8,1.5h-7.9v11.4L981.7,527.1L981.7,527.1z M989.6,509.2h7.9
			c1.6,0.1,3.2-0.3,4.5-1.2c1-0.8,1.6-2.1,1.5-3.4c0.1-1.3-0.5-2.5-1.5-3.4c-1.3-0.9-2.9-1.3-4.5-1.2h-7.9V509.2z"/>
		<path class="st4" d="M1016.3,527.1v-33.7h8.9l15.2,21.4v-21.4h7.9v33.7h-8.8l-15.3-21.5v21.5L1016.3,527.1L1016.3,527.1z"/>
		<path class="st4" d="M1053.5,510.1c0-3.1,0.8-6.1,2.4-8.8c1.5-2.6,3.8-4.8,6.4-6.4c5.4-3.1,12.1-3.1,17.6,0
			c2.7,1.5,4.9,3.7,6.4,6.4c3.2,5.5,3.2,12.2,0,17.6c-1.6,2.6-3.8,4.8-6.4,6.3c-5.5,3.1-12.1,3.1-17.6,0c-2.7-1.5-4.9-3.7-6.4-6.3
			C1054.3,516.3,1053.5,513.2,1053.5,510.1z M1061.2,510.1c0,1.9,0.4,3.8,1.3,5.4c0.8,1.6,2.1,2.9,3.6,3.9c1.5,0.9,3.2,1.4,4.9,1.4
			c1.8,0,3.5-0.5,5-1.4c1.5-0.9,2.8-2.3,3.6-3.9c1.8-3.4,1.8-7.5,0-10.9c-0.8-1.6-2.1-3-3.6-3.9c-1.5-1-3.2-1.5-5-1.4
			c-1.8,0-3.5,0.5-4.9,1.4c-1.5,1-2.8,2.3-3.6,3.9C1061.7,506.3,1061.2,508.2,1061.2,510.1L1061.2,510.1z"/>
		<path class="st4" d="M1092.8,510.1c0-3.1,0.8-6.1,2.4-8.8c4.9-8.4,15.7-11.2,24.1-6.3c2.6,1.5,4.8,3.7,6.3,6.3
			c3.2,5.5,3.2,12.2,0,17.6c-1.6,2.6-3.8,4.8-6.4,6.3c-5.5,3.1-12.1,3.1-17.6,0c-2.7-1.5-4.9-3.7-6.4-6.3
			C1093.6,516.3,1092.8,513.2,1092.8,510.1z M1100.5,510.1c0,1.9,0.4,3.8,1.3,5.4c0.8,1.6,2.1,2.9,3.6,3.9c1.5,0.9,3.2,1.4,4.9,1.4
			c1.8,0,3.5-0.5,5-1.4c1.5-0.9,2.8-2.3,3.6-3.9c1.8-3.4,1.8-7.5,0-10.9c-0.8-1.6-2.1-3-3.6-3.9c-1.5-1-3.2-1.5-5-1.4
			c-1.8,0-3.5,0.5-4.9,1.4c-1.5,1-2.8,2.3-3.6,3.9C1101,506.3,1100.5,508.2,1100.5,510.1L1100.5,510.1z"/>
		<path class="st4" d="M1132.9,493.4h11.6c3.4-0.1,6.7,0.6,9.8,2c8.2,4.1,11.5,14.1,7.4,22.3c-0.2,0.4-0.4,0.8-0.7,1.2
			c-1.6,2.6-4,4.7-6.7,6c-3.1,1.4-6.4,2.1-9.8,2h-11.6V493.4z M1144.5,520.5c2.1,0.1,4.1-0.4,5.9-1.4c1.6-0.8,2.9-2.2,3.8-3.8
			c1.7-3.3,1.7-7.2,0-10.4c-0.9-1.6-2.2-2.9-3.8-3.7c-1.8-1-3.9-1.4-5.9-1.4h-3.6v20.6L1144.5,520.5L1144.5,520.5z"/>
		<path class="st4" d="M1168.3,493.4h7.8v27.1h18.4v6.5h-26.3V493.4z"/>
		<path class="st4" d="M1200.4,527.1v-33.7h27.8v6.5h-19.9v7.1h16.7v6.5h-16.7v7.1h19.9v6.5L1200.4,527.1L1200.4,527.1z"/>
	</g>
</g>
<g id="Layer_2_00000061432658761665415080000003123231503355095975_">
	<g id="v2_-_Person">
		<path class="st5" d="M1299.5,339.7c1,1.9,1.4,4.1,3.5,5.3c0.5,0.3,0.8,1.3,0.8,2c-0.1,1.3,0.7,2.5,1.8,3.1c1,0.3,1.6,1.4,1.3,2.4
			c0,0.1-0.1,0.2-0.1,0.2c-0.2,0.7-0.3,1.5-0.4,2.2l0.8-0.6l1.7,6l-1.3,0.4l0.1,3.2l-2.3-0.5v-2.7l-3.6,0.3c0,2.1-0.9,2.7-2.7,2.3
			c-0.6,0-1.5,0.7-2,1.3c-1.4,1.6-1.4,1.6-2.9,1.7l0.4-2.1l-1.8,1.3l-1.2-1.2l-0.7,1.6l1,0.9h-1.7l0.1,0.8c-3,0.4-6,1.4-8.5,3.1
			c-0.6,0.3-1.2,0.5-1.8,0.6c-1.7,0.1-3.5,0.5-5.1,1c-1.3,0.6-2.7,0.4-3.9,1c-0.8,0.4-1.5,0.8-2.3,1.1c-0.6,0.2-1.2,0.3-1.8,0.4
			c-0.7,0-1.4,0-2.2,0l0.8,1.6c-0.2,0.1-0.3,0.2-0.3,0.2c-1.7-0.7-3.6-0.4-5.1,0.7c-2.3,1.9-5.1,1.4-7.7,1.6
			c-2.5-0.2-5.1,0.4-7.3,1.6c-1.1,1-2.6,1.4-4,1c-1.7-0.5-1.4,1.1-1.9,1.7l-3,0.3l0.3,0.4c-0.4,0.5-0.7,1.3-1.2,1.4
			c-2.4,0.7-4.8,1.2-7.3,1.8l3.7-3.4c-1.6,1-3.6,1-3.9,3.2c-1.4,0.9-3.5,0.2-4.5,2c-0.2,0.2-1.1,0-1.7,0l-3.5-0.4l-0.1,0.5l1.1,1.4
			c-0.9,0.4-1.7,1.5-2.3,0c-1.6,0.4-3.1,0.6-4.7,0.8c-1.8,0-2.5,1.3-3.5,2.8l2.6-0.5l0.1,0.6l-3.2,0.6c-0.3,0-0.6,0-0.9,0
			c-0.3,0-1.3,0.3-2,0.5l-3.7,1l-3.2-0.5c0,0.3,0.2,0.6,0.2,0.5l-15.7,7.1c0.3,0.2,0.5,0.4,0.8,0.6c0.4,0.1,0.7,0.2,1.1,0.3l-2.4,1
			c-1.7,0.7-3.5,1.3-5.1,2.1c-0.9,0.4-1.4,1.5-2.2,2c-1.6,0.7-3.3,1.3-5,1.9c0,0,0,0.4,0,0.7l-10.7,5.1l-1.5,2
			c-2.8,3.8-7.5,5.1-11.1,7.7c-0.4,0.3-0.9,0.6-1.3,0.9c-0.9,1.1-2.2,1.7-3.6,1.6c-1.6,0-3.4,1.3-5.1,2.1l0.2,0.5l1.9-0.4
			c0.3,2.2-0.2,2.7-2.4,2l-0.2,1.1l-0.2-0.3c-0.8,0.5-1.6,1-2.3,1.6c-2.2,2.2-4.4,4.4-6.6,6.6c-0.2,0.2-0.5,0.2-0.8,0.2
			c-1.7,0-3.3,1.1-3.9,2.7c-0.3,0.6-0.6,1.2-1.1,1.7c-0.5,0.6-1.6,0.8-0.7,2c0.2,0.3-0.8,1.4-1.1,2.1s-0.2,1-0.4,1.4
			c-0.2,0.4-0.4,0.8-0.7,1.1c-0.4,0.4-0.8,0.8-1.3,1.2l0.4,0.4l0.9-0.5l0.2,0.3l-1.7,1.5l1.4,0.5l-4.6,3.3l-1.5-1.3l0.9-2.3
			l-1.6,0.6l-2.7-2.9l3-2.1c-2-0.5-2.7-2-2.1-3l-2.7-4.1l0.3-0.3c-0.7-0.1-1.3-0.2-2-0.2c-0.3,0-0.8,0.5-0.8,0.6
			c0.1,0.4,0.4,0.7,0.7,0.9c0,0,0.5,0,0.6,0c1.4,2,2.7,3.9,4.2,5.9l-0.5,0.5l-2.7-1.3l-0.4,0.4c0.2,0.4,0.4,0.8,0.7,1.1
			c0.3,0.4,0.8,0.7,1,1.2c0.1,0.4,0.1,0.9,0,1.3c-0.4,0-1,0-1.1-0.3c-1-1.5-2.9-2.7-1.8-4.9c-1.1-1.2-2-2.7-3.3-3.3
			c-0.8-0.4-1.5-0.6-1.8-1.4c-0.4-0.8-0.7-1.8-1-2.7c-0.2-0.4,0-1-0.4-1.3c-1.8-1.3-1.6-3.5-2.5-5.3c-3.2-7.6-5-15.7-5.3-23.9
			c0-2.2-0.1-4.3-0.4-6.5c-1.1-4,0-8,0.3-11.8c0.1-4.3,0.6-8.7,1.3-13c1.6-6.5,3.9-12.7,5.8-19.1c0.4-1.4,0.5-3,0.8-4.5
			c0.6-2.4,1.2-4.7,1.8-7c3.2-8.8,8-17,14.1-24.1c0.8-1.1,1.7-2.2,2.7-3.3c0.7-0.6,1.4-1.1,2.2-1.5c0.2,0,0.5-0.3,0.6-0.5
			c2.4-3.8,5.3-7.1,8.8-9.9c3.6-3.1,6.8-6.6,10.2-9.8c1.1-1,2.4-1.8,3.7-2.5c2.7-1.8,5.5-3.5,8.3-5.2c5.6-3.7,11.7-6.7,18-9
			c4.4-1.4,8.7-2.7,13.1-4c0.4-0.1,0.8-0.1,1.2,0c1.8,0.9,3.5,0,5.2-0.4s3.3-0.4,5-0.6c0.2,0,0.6,0,0.6,0c0.4-1.3,1.5-1,2.4-1.4
			c1.7-0.7,2-0.8,3.1,0.9c0,0.2,0.5,0.3,0.6,0.2c2.9-1.6,6.2-2.1,9.5-1.6c1.2,0.1,2.4,0,3.6-0.2h0.2c2.9,0.3,5.8,0.6,8.7,1
			c1.3,0.3,2.6,0.6,3.9,1.1c0.4,0,0.7,0.6,1,0.8c0.5,0.3,0.9,0.6,1.4,0.8l0.4-0.5l-1.5-1.2c2,0,3.9,0,4.5,2.2c0,0.3,0.6,0.6,0.7,0.6
			c1.7-0.6,2.7,1.2,4.2,1l-0.2-0.9l7.5,2.2c1.5,0.4,2.8,1.2,3.9,2.2c1.3,1.1,2.8,2,4.3,2.7c2.7,1.6,5.3,3.2,8,4.7c0.1,0,0.1,0,0.1,0
			c0.4,0.7,0.5,1.7,1.1,2c0.6,0.4,1.8,0,2.4,0.5c2.2,1.5,4.3,3.1,6.7,4.9l-1.9,1.9c0.4,0,1,0.2,1.1,0c0.8-1,1.6-0.5,2.2,0
			c1.3,1.3,2.5,2.7,3.8,4.1c0.3,0.3,0.8,0.5,1,0.8c0.8,0.9,2.7,1.1,1.9,2.9c0,0,0.2,0.4,0.4,0.5c1.6,0.8,2.2,3,4.3,3
			c0.2,0,0.3,0.3,0.5,0.5c1.3,1.9,2.7,3.7,3.8,5.6c0.8,1.2,1.3,2.5,2,3.7c0.3,0.4,0.7,0.7,1.1,0.8l-1.7-3l0.5-0.4l5.6,6.1v-1.5
			c1.3,3.5,5.3,5.9,4.4,10.3l-0.8,0.4c-0.3-0.6-0.6-1.3-0.8-2c0,0,0.3-0.4,0.6-0.8l-5.3-6.1l-0.3,0.3L1299.5,339.7L1299.5,339.7z
			 M1094.5,420.7c-1.3-10.4-1.3-20.9,0-31.3c-0.9,0.8-1.6,1.7-2.2,2.7c-0.4,1.1-0.7,3.1-0.2,3.5c1.1,0.8,1.5,2.2,0.9,3.4
			c-1.4,2.4-0.2,4.8-0.4,7.2c-0.2,3.8,0.4,7.6,0.5,11.4C1093.1,419,1093.1,420.1,1094.5,420.7z M1128.4,436l0.4,0.4l3.9-2.7
			l-1.3-2.1C1129.1,432.1,1129.5,434.6,1128.4,436z M1160.5,409.7l0.4,0.7c2.2-0.7,4.1-2.1,5.3-4l-0.3-0.5l-3.7,1.8l0.2,1.1
			L1160.5,409.7z M1240.5,285.2c1.2,2.1,3.9,2.1,5.6,3.5c-0.6-0.6-0.6-2-1.1-2.2c-1.4-0.6-2.9-1-4.4-1.3L1240.5,285.2z
			 M1144.7,423.1l3.3-1.6C1145.6,420.7,1145.3,420.8,1144.7,423.1z M1115.2,442.8l-0.4-1.7c-3.1,2-3,1.7-2,3.7l0.7-2.2L1115.2,442.8
			z M1151,421.6c-1-2.4,1.7-1.2,2.1-2.4c-2.1-0.6-2.7,1.2-4.3,2.1L1151,421.6z M1231.9,283.6l0.4-0.5l-1.6-1.4l-0.8,1.5
			L1231.9,283.6z"/>
		<path class="st5" d="M1442.3,463.2c-0.5,0.7-1,1.4-1.6,2.1c-0.8,0.7-1.6,0.6-2-1.1l-0.9,2.5l-4.2,4.2l2.2,0.5l-2.8,0.5v0.9
			l-7.2,5.1c1.2,2.3,1,2.5-1.7,2.4c-1.4,0-3.2-0.3-3.2,2c0,0.6-0.3,1.2-0.6,1.6c-0.3,0.4-1.2,0.6-1.4,0.5c-1.3-1.4-2-0.9-2.7,0.8
			l0.9,0.7c-1,2.4-3.8,3.5-6.2,2.5c-0.1,0-0.1-0.1-0.2-0.1l-1.2,1.7h3v0.4l-5.2,3.6l-0.3-0.4l1-0.9c-0.7-1.1-1.4-1.3-2.5-0.4
			c-2.7,2.5-5.5,4.9-8.3,7.3c-0.4,0.3-0.9,0.3-1.4,0.6c-0.4,0.2-1.2,0.8-1.8,1.2c-0.6,0.3-1.2,0.6-1.7,1c-0.4,0.4-0.7,1.1-1.1,1.2
			c-0.4,0.1-0.8-0.6-1.3-0.9c-0.5-0.3-0.4,0.2-0.2,0.4c0.2,0.3-0.2,1-0.4,1.1c-2,0.9-3.8,2.3-5.2,3.9c-0.3,0.2-0.5,0.4-0.9,0.5
			c-1.1,0.4-2.1,1.2-2.7,2.2c-1,1.6-2.9,1.8-4.7,2.2c-1.1,0.5-2.2,1.1-3.1,1.9c-0.2,0.2-0.4,0.6-0.6,0.6c-2,0.4-3.8,1.5-5,3.2
			c-0.9,0.7-1.8,1.3-2.9,1.8c-1.3,0.9-3.3,1.5-3.8,2.7c-0.8,1.5-2.1,2.7-3.7,3.4c-0.9,0.4-1.8,0.7-2.7,0.8l0.1,1.2l-10.7,5.9
			c-0.5,0.7-1,1.3-1.6,2c-2.3,2.4-5.1,4.3-8.2,5.5c-2.1,1-4.1,2.4-6.1,3.5c-0.4,0.2-0.9,0.4-1.4,0.3c-1.9-0.6-3.8,0.5-4.4,2.3
			c0,0.1,0,0.1-0.1,0.2c-0.1,0.4-0.5,0.9-0.8,1c-5,0.6-8.6,4-12.8,6.2c-0.5,0.3-1.3,0-1.9,0.4c-1.4,0.6-2.7,1.4-4.1,2
			c-1.4,0.6-2.5,1-3.8,1.5l-0.4-0.5c0.6-0.6,1.2-1.1,2-1.5c1.3-0.5,2.7-0.2,3.4-2.2c0.4-1.2,2.5-1.7,3.9-2.5l3.3-1.9l-1.1-0.8l2-1
			l0.2,0.3l-0.8,0.7v0.2l8.4-5.7v-0.2c0.4-0.4,0.7-1,1.2-1.1c2.4-0.4,4.5-1.6,6.2-3.3l-2.4-0.4c0.2-0.6,0.2-1.4,0.6-1.8
			c1.8-2.3,4.4-3.9,7.3-4.3c1.1-0.2,2.1-0.5,3-1c0.3,0,0.6,0.4,0.8,0.4c1-0.3,2.4-1.2,3-0.9c1.5,0.9,1.4-0.3,2-0.8
			c-2-1.4-3.3-1.3-4.5,0.4c-0.4,0.4-0.8,0.7-1.3,1v-0.8l-1.3,0.6l-0.5-0.4c1-1.5,2.1-2.9,3.5-4.1c2.3-1.4,4.6-2.6,7-3.6
			c1.9-1,3.7-2.2,5.6-3.3l-1.1-0.9c1.9-0.3,3.9-0.4,4.2-3.4l0.9,1.9l1.9-1.3l-0.2-0.4h-1.6v-0.2l4.5-1.6l-0.6-0.8l3.9-1.5l-0.1-0.6
			l-1.3-0.3c0.4-0.9,2.4-1.2,0.9-3.1l10.7-3h-2.5c0.6-1.7,3.4-2,2.7-3.8l7.8-6c-2.7-1.6-4.4,1-7.1,0.7c0.6-0.7,0.9-1.5,1.4-1.7
			c3.4-1.5,6.8-2.9,10.2-4.4c1.4-0.6,2.7-1.2,4.3-1.9l-1.2-2.3l2.4,0.7l0.7-1.6l-1-0.4l2.4-5l2.4,1v-3.2c-1.2,0-1.2,0-0.3-1.9
			l-2.7,0.5c0.8-2,1.7-2.4,3.7-2.2c1.6,0,3.3-0.1,4.9-0.4V473l-1.7-0.8l0.9-1.2l-2.2-0.7l6.9-5.1l-1.9-2.1l4.5-0.3
			c-0.2-1-0.3-2-0.3-3c0-0.2,0.7-0.6,1-0.5c0.6,0.1,1.1,0.4,1.6,0.7c1,0.6,1.7,0.3,2.2-0.8c0.4-0.5,0.9-1,1.4-1.5h-3.2l0.9,1.7
			l-0.3,0.3l-2-1.6c1.3-2.7,2.2-3.1,4.6-2.4v-1.7l-2.2,0.4l-0.2-0.5c1.6-0.6,1.2-3.2,3.5-3.2c0.7,0,1.3-1.1,1.9-1.6
			c2.1-1.5,3.7-3.5,4.7-5.9c0.8-1.4,1.7-2.8,2.7-4.1c0.4-0.6,0.8-1.2,1-1.8c0.5-1.7,1.4-3.3,2.7-4.6c0.6-0.6,0.5-1.9,0.8-2.7
			c0.6-2.1,1.1-4.1,1.8-6.6l-3.6,1.8l-0.2-0.2c0.6-0.4,1.2-0.9,1.8-1.3c1.9-1.2,2-1.4,1.2-3.5c-0.2-0.4-0.4-0.9-0.7-1.3l-1.3,0.9
			l-1.4-4.8h-0.5c-0.2,1.3,1.1,3.1-1.3,3.8l0.4-3.7l-4.8,0.4c0,0-0.5,0.5-0.8,0.4c-1.4-0.6-2.7-1.3-3.9-2c-0.4-0.3-0.6-1-1-1.9
			l-2.7-0.5c-0.2-2.4-1.9,0.2-2.9-0.2l1,0.4l-0.1,0.5l-5-1.1c-0.8-0.2-1.6-0.3-2.4-0.3c-1.2,0-2.5,0-3.7-0.2c-0.6,0-0.7-0.4,0-0.6
			l-1.2-1c-0.8,1.1-1.4,0.2-2.2,0c-0.3,0-0.8,0.3-1.4,0.5l1.4,1.2l-0.2,0.3l-4.3-2.9l-1.3,2.7c-1.7-1.1-3.2-2.2-4.7-3.1
			c-0.5-0.3-1.3-0.6-1.7-0.4c-0.5,0.4-0.7,1-0.6,1.6c0.5,2,0.2,3.3-1.9,4.1c-0.5,0.2-0.8,0.9-1.3,1.6c-2.7-0.9-5.2-2-7.7-3.4
			c-1.9-1.2-3.9-2.2-6-2.9c-0.8-0.2-1.7,0.1-2.3,0.6l3,1.3v0.4l-8.7,0.8v-0.6h2.1c-0.2-1.5-0.9-2.1-2.3-1.6c-1.4,0.5-3.6,0-5.1,1.3
			c-0.3,0.3-1.2,0-1.8,0c-0.8,0.1-1.6,0.2-2.4,0.4c-1-1.8-2.9,0.4-4.4-0.3l-0.4,0.4l2.4,1.8l-0.5,0.3l-5.3-0.5l-0.2,0.5l1.9,1.7
			l-0.3,0.4l-3.5-2l-5.2,0.4c-0.4,0-1.3-0.1-0.5,0.8c-0.2,0-0.4,0-0.6,0c0-0.4-0.2-0.8-0.3-1.3l-1.3-0.1l0.4,0.3
			c-0.2,0.4-0.5,0.7-0.8,1c-0.2,0.1-0.5,0.1-0.7,0c-3,0-6,0.5-8.8,1.6c-0.9,0.2-1.9,0-2.8,0.2c-2,0.3-4.1,0.7-6.1,1
			c-0.3,0.1-0.7,0.1-1,0c-1.7-0.2-3.7-1.1-5.1-0.5c-3.9,1.6-8,0-11.7,1.3c-0.5,0.2-1.1,0-1.7,0l4.9,1.7l-7.5,2.8l-4.1-2.1l-0.9,2.7
			c-1.6-1.3-3.9-1.4-5.6-0.3c-2.7,1.2-5.6,2.7-8.4,3.6c-2.3,1-5,0.8-7.1-0.6l4.9-2.1c-0.2-0.9-1.1-1.4-2-1.2c-0.1,0-0.3,0.1-0.4,0.2
			c-2.2,0.4-4.2,1.1-6.2,2.1c-2.5,1.9-5.1,0.9-7.5,1.4c-0.6,0.2-1.2,0.5-1.8,0.8c-3.6,1.7-7.3,3.4-10.9,5c-1.6,0.7-3.3,1.2-4.9,1.7
			c-1.1,0.4-2.2,0.8-3.3,1.3l0.5-1.1l-3,0.5l1.3,0.6l0.2,0.5c-1.6,0.4-3.1,0.8-4.6,1.3c-0.7,0.2-1.4,0.5-2.1,0.8
			c-2.8,1.6-5.8,2.9-8.8,4c-2.9,0.7-5.5,2.4-8.4,2.9c-1.6,0.4-3.2,1-4.7,1.8c-1.2,0.6-3,0.7-3.5,1.6c-0.9,1.6-2.4,1.7-3.7,2.3
			c-2.9,1.4-5.7,2.9-8.6,4.2c-1.1,0.4-2.2,0.7-3.4,0.9c-1.9,0.5-3.9,1.1-5.7,1.8c-1,0.6-1.9,1.3-2.7,2.1l0.4,0.7l3.4-1.7
			c-0.2,1.5-2,2.3-4.4,1.9l0.7-2.7c-2.3,0.8-4.8-0.6-6.8,1.4l3.3,0.5c0.2,1.4-0.7,2.1-1.6,2.7c-3.8,2.4-8,4.1-12.4,5.1
			c-0.5,0-1.1,0.3-1.3,0.6c-1.9,3.1-4.5,5.6-7.7,7.4l-4.3,3.1c-0.3,0.2-0.5,0.3-0.7,0.6c-0.9,1.6-2.5,2.7-4.3,3l0.8,0.6
			c-2.2,3.4-6.4,2.3-9.3,4.4h1.4l0.2,0.4c-2.2,1.3-4.4,2.8-6.8,4c-4.2,1.8-8.1,4.2-11.5,7.3c-0.9,0.9-1.7,2-2.7,3l-0.5-0.4l1-1.9
			l-0.2-0.4c-1.1,0.5-2.2,1.2-3.1,2c-3,3.1-5.9,6.4-9.1,9.9l1.6-0.3c-2,3.3-6.5,2.5-8.2,5.9l2.8-0.3l0.3,0.4
			c-1.9,1.3-3.6,2.8-5.2,4.5c-1.9,2.7-4.6,4.3-6.7,6.8c-1.6,1.7-3.4,3.2-5.3,4.5c0.4-0.7,0.7-1.4,1.1-2c-1.7,0.7-3,2.2-3.3,4
			l2.1-1.6c-0.3,0.5-0.6,1-0.9,1.4c-2.4,3.2-5.3,5.9-7.9,9c-2.9,3.6-5.9,7-8.6,10.7c-1.4,1.8-3,3.5-4.4,5.3l-15.1,18.9l-0.7-0.5
			c1.1-2.3,2-4.7,3.3-6.9c1.3-2.2,3.1-4.4,4.7-6.5c-1.3-0.5-0.8-1.3-0.2-2.1c2.3-3.5,4.6-7,6.9-10.5l4-6.3c0.4-0.5,0.8-0.9,1.2-1.3
			l-0.6,1.8h0.2c0.5-0.6,1-1.2,1.4-1.8c0.8-1.8,2.2-3.4,4-4.3c0.9-0.4,1.2-2,1.7-3.2l-1.4,1.1c1.2-1.9,2.4-3.7,3.8-5.5
			c5.3-6.4,11.1-12.4,15.9-19.1c4.3-6.1,10.3-10.3,15.3-15.5l4.6-4.8l-0.6-0.4c0,0,0-0.2,0.2-0.3l8-6.4c1.5-1.2,2.9-2.4,4.3-3.7
			c0.9-0.9,1.1-2.2,2.4-2.9c1.7-1.2,3.4-2.4,5-3.7c1.3-1,2.7-1.8,4.3-2.7l-2.7-1.2l4.6-2.7c1.4-0.8,2.7-1.7,4.2-2.4
			c1.8-0.9,3.2-2.3,4-4.1c0-0.2,0.2-0.5,0.3-0.6c3.5-1.5,5.2-5,8.5-6.8c3.3-1.7,6.6-4,10-5.9c3.4-1.8,6.8-3.4,10.2-5
			c6.1-2.5,11.9-6,16.9-10.3c3.5-3.1,7.8-5,12.4-5.6c1.8-0.2,3.3-1.4,4-3.1c0.5-1.1,1.2-2.1,1.9-3c0.5,0.3,0.8,0.7,1,0.6
			c2.8-0.9,5.6-1.8,8.5-2.7c0.2,0,0.3-0.5,0.5-0.8l-2.4-0.7c0.6-0.5,1.2-1,1.8-1.4c3.9-1.8,7.7-3.6,11.7-5.2
			c4.6-1.8,9.3-3.3,14.3-5.1l-4.5,3.4l3.2-0.2c0.1,0,0.2-0.1,0.3-0.2c2.4-2.8,5.6-4.5,9.3-5c1.1-0.3,2.1-0.7,3.1-1.2
			c0.6-0.3,1-1,1.6-1.3c3-1.3,6.1-2.5,9.1-3.7c0.4-0.2,0.8-0.4,1.5-0.8l-1.8-0.5v-0.4c1.9-0.6,3.9-1.1,5.7-1.7
			c2.3-0.3,4.5-1.1,6.5-2.3c1.6-1.3,3.5-2.2,5.6-2.7c2-0.5,4-0.8,6-0.9l0.3-1.1h0.5c4.1-0.9,8-1.7,12.2-2.5c1.4-0.3,2.7-0.4,4.1-0.5
			c1.3,0,2.5,0.3,3.2-1.3c0.1-0.4,1.1-0.2,1.7-0.5c6.3-2.8,13.1-2.5,19.7-3.1c2.3-0.4,4.7-0.6,7-0.7c2.7,0.2,5.1-1,7.8-0.9l-0.4,0.5
			c-0.2,0.2-0.4,0.4-0.5,0.6c2.4-2,5.7-2.5,8.6-1.3l-0.5-1.6c2.5-0.3,5.2,2.1,7.5-0.8l-1.5-0.2V375c2.8-0.3,5.6,0.1,8.3,1.1
			c2.2-0.7,4.4,0.6,5.9-0.2c2.2-1.2,4.3,0,6.3-0.7l-0.5-1.4c1,0.3,2,0.5,3.1,0.6c1,0,2-0.2,2.9-0.5c1.7-0.5,3.5-0.1,5,0.9l0.5-0.9
			c1.4,0.3,2.9,0.6,4.3,0.9l4.1,0.9c1.5-1.1,3.5-1.4,5.3-0.8c2.7,0.5,5.3,1.2,7.9,1.9c0.3,0,0.5,0.5,0.8,0.7l1.7,1.3l0.4-0.4
			l-0.2-1.3c0.6,0,1.2,0.2,1.7,0.4c1.3,0.4,2.3,1,3.9,0c1.5-0.6,3.3,0.1,4.1,1.5l0.6-1l7.3,3.2c1.7-0.7,3.5-0.4,4.9,0.7
			c2.1,1.3,4.2,2.8,6.1,4.4c0.4,0.3,0.4,0.9,0.6,1.6c0.2-0.2,0.5-0.4,0.8-0.6c0.3,0.3,0.7,0.7,1,1.1l1.6,0.4l-0.3-1.5
			c0.5,0,1.3,0.2,1.3,0.4c0,0.8-0.1,1.6-0.2,2.4c0.8,0.2,1.6,0.2,2.4,0c0.4-0.2,0.6-1.2,0.8-1.6c0.5,1.2,1.1,2.4,1.8,3.5
			c0.3,0.4,1.4,0,2.4,0.2l-0.8,2.5l2.7-0.5l-1.5,2.1l3-0.8l-0.9,3.1l0.3,0.2l1.3-2l1.3,2c-0.6,0.4-1.2,0.8-1.8,1.2
			c-0.1,0,0,0.7,0.5,1l0.3-1.1l0.6,1.8l0.6-0.9h0.4l-0.1,2.9l2-0.2v-1.9l0.7,1.2c0.7,0,1.5-0.2,1.7,0c0.9,1.1,1.5,2.3,2.3,3.4
			l-1.6,0.9l1.5,5.9l0.5,0.3l1.2-1.8l0.2,2.5l1.6-1.2l-1,2.2c2.1,1.7-0.5,2.7-0.7,4.1l0.8-0.2c0,0,0,0.2,0,0.3
			c-0.3,0.6-0.4,1.3-0.5,2c0.5,2.9,0.5,5.9-0.2,8.8c-0.5,2.2-1.4,4.3-2,6.4c-0.1,0.8-0.3,1.6-0.5,2.4c-0.3,0.6-0.8,1.2-1.3,1.6
			c-0.5,0.5-1.5,0.6-0.7,1.7c0,0-0.2,0.6-0.4,0.9c-1.9,1.7-3.8,3.4-5.7,5.2l0.6,1h-1.4l-1.1,3.2h1.4l-6.7,3.8l3,2.7h-2.4l-1.7,2.3
			c-1.5,0-2.1,0.9-2.7,2.5L1442.3,463.2z M1285.1,393.7v0.5l12.9-2.9C1293.6,391.1,1289.2,391.9,1285.1,393.7z M1220.6,428.9
			l-0.2,0.6c0.7,0.4,1.4,1.1,2,1c1.8-0.5,3.6-1,5.3-1.6v-0.4L1220.6,428.9z M1185.6,434.3c2.4,0.6,3.5-1.2,5.2-2.2
			C1188.8,431.3,1186.6,432.3,1185.6,434.3L1185.6,434.3z M1341,528.9l0.2,0.4l6.8-3.2l-0.2-0.5C1345.3,526.2,1343,527.3,1341,528.9
			L1341,528.9z M1112,495.4c4.5-2.3,5.9-3.3,6.3-4.9c-1.6,1-3.1,2-4.5,3C1113.1,494.1,1112.5,494.7,1112,495.4z M1234.5,419.8
			l-0.2-0.9l-5.5,1.5l0.2,0.9L1234.5,419.8z M1287.6,415.5c-1.1-1.3-2.9-1.1-5.6,0.5L1287.6,415.5z M1210.5,436.5l2.9-2.3l-0.4-0.4
			C1210.4,434.4,1209.7,435.2,1210.5,436.5z M1161.6,461.5l-0.4-0.6l-4.9,3.5l0.4,0.5L1161.6,461.5z M1434,421.2l-1.3,2.2l2.4,0.9
			L1434,421.2z M1443.2,426.5l-1.3,4.2c1.7-1.5,2.2-2.8,1.3-4.3V426.5z M1331.8,407.8c-1-2.2-1.2-2.2-2.7-0.3L1331.8,407.8z
			 M1393.5,384.3l-3.6,0.2l2.7,1.7L1393.5,384.3z M1270.8,411c0.3,1.8,1.5,2.3,3,1.4L1270.8,411z"/>
		<path class="st5" d="M1267.8,550.5l3.4,0.2c-0.3,0.6-0.6,1.2-0.8,1.8c-0.2,3.1-2.4,4.3-4.8,5.5c-0.8,0.4-1,1.7-1.5,2.5h2.8
			l-0.7,2.8h-2l0.6,1.2c-2,0-1.6,1.8-1.8,2.9c-0.4,2.3-0.8,2.7-3.2,2.5l0.3-0.7l-0.4-0.4l-3.9,4.4l1.9,2l-4.6,1l0.5,4
			c-1-0.3-2.1-0.6-3.2-0.8c-0.6,0-1.2,0.2-1.6,0.5c-0.6,0.7-1.2,1.4-1.6,2.2l4.4-0.9c-1,3.1-1,3.1-4.5,3.2c0,1.6,1.2,1.1,2.2,1
			c0,0.4,0,0.9,0,1c-1.1,0.5-1.4,1.8-2.1,2.4c-1.3,1.2-1,2.5-1.2,3.9c0,0.4,0,0.7,0,1.1l-1.2-0.9c-0.6,0.7-1.2,1.4-1.6,2.2
			c-0.2,0.5,0,1.2,0,1.7l1.6-0.5c-0.2,0.3-0.4,0.8-0.5,0.8c-0.5,0.1-1.1,0-1.5-0.2c-0.7-0.9-1.4-1.7-2-2.7l-1.6,2.7
			c0.4-0.1,0.8-0.1,1.2,0c0.6,0.2,1.3,0.5,1.5,0.9c0.2,0.6,0.1,1.2-0.3,1.7c-1,0.8-2,1.5-3,2.2c0,1.6,0,3,0,4.4s-0.2,2.4-0.4,3.9
			l0.5,0.8l-2.2,1.2h0.3c-0.5,0.9-1.1,1.7-1.7,2.4c-0.9,0.8-2.1,1.3-2.9,2.1c-0.9,0.8-1.2,1.5,0.3,2.1l-0.9,0.9
			c-0.2-0.3-0.3-0.6-0.5-0.7s-1.2-0.9-1.4-0.7c-0.5,0.4-0.9,0.9-0.9,1.5c0.2,1.4,0.4,2.8,0.7,4.2l1.6-0.2c-0.7,2.1-3.3,0.2-3.8,2.3
			l3.7,0.4l-1.1,2.7l0.2,0.2c-0.5,0.6-0.9,1.2-1.4,1.9c-0.2,0.3-0.2,0.9-0.4,0.9c-1.8,0.2-1.4,1.6-1.8,2.7c-0.4,1.1-0.9,1.6-1.2,2.4
			c-0.4,0.8-1.4,0.9-0.2,1.5c0,0,0,0.4,0,0.6c-1,1.9-2.2,3.6-3.5,5.3c-1.7,2-3.6,3.8-5.7,5.3l1.3-3.6l-1-9.6l1.1,1.2l0.3-0.1l-0.4-2
			l1.4-0.6l-1.2-1.5l-1,0.7l0.5-2h-0.5c0.3-3.3,0.1-6.5-0.6-9.7c-0.9-2.2-0.4-4.7,1.3-6.3c0.5-0.9,0.9-1.7,1.3-2.7l-0.9-0.6l0.1-0.2
			c0.8-1.4,2.2-2.8,2.3-4.2c0.1-1.4,0.4-3.3-1.7-4.2c-0.7-0.3-1.9-0.9-1.3-2.3l2.7,0.9l0.2-0.4l-1.3-1.2l2.1-0.3v-0.4l-3-0.9
			c-0.4,0,0.9-1.8-0.7-1c-0.2-2,0.3-4.7-0.8-6c-1.6-2-0.2-2.9,0.3-4.1c0.5-1.3,0.5-2-0.5-2.7c0-1.3,1.7-2.5,0-3.9
			c-0.2-0.1,0-0.9,0.2-1.2c0.4-0.5,0.9-1,1.4-1.4h-3.1l2.2-2.2c-1.7-1.2-2.1-3.5-0.9-5.2c0.1-0.1,0.2-0.3,0.3-0.4
			c0.4-0.7,0.9-1.4,1.3-2.1c1.1-1.4,0.9-3.5-0.5-4.6c-0.2-0.1-0.4-0.3-0.6-0.4l1.8-2.2l-2.2-0.6l0.6-2c-2,0.5-2.7-0.1-2.4-2.1
			c0-0.8,0.2-1.7,0.3-2.7l3.1,2h0.3l-1.3-2.4c-1.1,0.4-2.1,0.7-2-1.1c0-0.5-0.5-0.9-0.9-1.7l1.7-3.2l-0.4-0.4l-2.4,1.7
			c0-0.6-0.4-1.3-0.2-1.5c1.1-1.2,1.5-2.9,1.1-4.5c-2.7-1-3.1-0.8-3.1,1.3c-1.4-0.2-1.6-0.7-0.9-1.7l-0.8-4.6
			c0.6-0.9,0.6-0.9-0.6-2.1c-0.2-0.2-0.2-0.5-0.3-0.8c-0.6-1.4-1.2-2.8-1.7-4.3l-0.6,0.5c-0.7-0.3-1.3-0.7-1.8-1.2
			c-0.8-0.9-1.5-1.8-2.2-2.8l-1.2,2.7c-0.5-0.9-1-1.6-1.3-2.3c-0.6-1.2-1-2.2-2.8-1.3c-0.5,0.3-1.8-0.9-2.7-1.5
			c-0.4-0.3-0.5-1-0.8-1.8l-0.8,1.3c-2.1-2.3-4-2.8-7.7-1.7c-1.6,0.1-3.3-0.1-4.8-0.5c0,0,0,0.3-0.2,0.5l-2.4-1.5l-0.5,1.7
			c-2.3-1.3-4.7-2.7-7.6-0.9v1.1l-1.4-0.4c-1.9,2.1-4.2,0.8-5.7,1c-2.7,2.9-5.3,1.6-8,1l0.8,1.8c-1.8-0.6-3.3-1-4,0.9
			c-0.1,0.1-0.2,0.1-0.3,0.1c-1.9-1.3-3.7,1.2-5.9,0c0.8-1.2,1.3-2.3,3.1-2.7c1.3-0.2,3.4,0,3.7-2.2l-0.8-1.4
			c0.7-0.3,1.4-0.6,2.1-0.6c1.1,0,1.1,0.3,1.6-0.5c-0.5-1-1.4-2.3-1.2-2.7c1.2-1.7,2.3,0.5,3.7,0.6l-1.6-2.3l7.2-0.4l0.6-2.7
			c2.1,1.8,3.5-0.7,5.7-1l-2.1-1.8l0.2-0.5c0.7,0.2,1.4,0.4,2.1,0.7c1.3,0.6,2.5,1.2,3.8,1.7c0.7,0.2,1.6,0.2,0.8-1l4,1l-1.7-2.3
			l0.3-2.9c2.1,0.9,1.3,3.2,2.5,4.9l1.2-2.7c1.7,1.2,4.7,0,5.3,3.3c0.9-1.2,0.7-2.9-0.5-3.8c-0.2-0.1-0.3-0.2-0.5-0.3
			c-0.3,1.7-1.3,1.7-3.2,0.2l1.8-0.6l-1.3-1.1c0.7-0.2,1.2-0.6,1.7-0.5c2.2,0.4,4.9-0.2,5.3,3.2l-1.5,0.4c0,0.2,0,0.4,0,0.4
			c1.4,0.5,2.5,2.4,4.4,0.6c-2.1-0.4-1-1.2-0.4-2l1.4,1.3v-1.5l2.1,0.9v1.4h0.3l0.7-0.9l2.7,1.4l-0.9-3.4l2.5,4.1l1.9-1.3l3.6,4.6
			l0.2-1.4l0.4-0.2l1.5,2.9c1.6-0.6,2.7,0.3,3.3,1.8l3.2-2.2l1.8,5.6l-1-0.5c-0.1,0.7,0,1.5,0.2,2.2c0,0.3,0.9,0.4,1.4,0.4
			c1.2,0,2.7-0.5,3.1,1.4l1.2-1.5l0.5,1.3l1-1l0.4,0.3c-0.7,0.6-1.2,1.3-1.8,2c-0.5,0.9-1,1.8-1.4,2.7l2.9,1.3l1.1-2.2l4.1,3.2
			c-0.7,1.9-1.4,3.9-2.1,5.9c0,0.2,0,0.7,0.2,0.7c0.2,0,1.3,0,1.5-0.2c0.9-1,1.7-2,2.5-3l1.8,1.4l-1.1,1.3c0.3,0,0.6,0.2,0.6,0.2
			c0,1.9,2,2.3,2.5,3.6c0.3,0.6-0.2,1.5-0.3,2.2h-0.8l-0.4-2.2l-3.5,1.9l0.4,1.6l1.4-0.6c-0.4,0.8-1.4,1.7,0,1.7l-0.4,3.6l1.5-0.9
			c0.5,1.2,0.2,2.6-0.7,3.5c-0.5,0.7-1.5,1.3-0.3,2.4c0.5,0.5,0.2,1.8,0.4,3l1.7,0.2l-0.9,1.4c1.9,0.3,2.2,1.6,2.5,3.2
			c0.3,1,0.9,2,1.6,2.8c-0.6,0.7-1.1,1.4-1.4,2.2c0,0.5,0.5,1.2,0.9,1.8l-3.1-1l-0.2,0.6c0.4,0.2,0.9,0.3,1.3,0.4c0.9,0,1.4,1,2.5,1
			c0.5,0,1-0.2,1.3-0.6c1.3-1.6,2.7-3.2,3.9-4.9l0.2,0.7c0.8-1.2,1.7-2.2,2.4-3.5c0.2-0.8,0.3-1.5,0.3-2.3l5.3-2.7l-0.2-0.6
			l-2.8-0.7l1.1-2l1.4,0.6c0.5-0.5,1-1,1.6-1.4c2.3-1.1,3.7-3.5,3.6-6c-0.1-0.4-0.3-0.9-0.5-1.3l-2,1.8h-0.4
			c0.1-0.5,0.2-1.1,0.5-1.6c0.5-0.5,1-1,1.6-1.3c0.3-0.2,1-0.4,1-0.5c-0.4-1.4,0.8-1.4,1.6-1.7c0.6-0.4,1.1-0.9,1.6-1.4l-0.3-0.4
			l1.1,0.2V540c1-0.4,1.8-0.7,2.7-0.9c0.8-0.1,1.5-0.2,2.3-0.3l-1.5-1l6.9-6.9l-0.8-1l5.7-6.6l-2.7-0.3c1.4-3.1,5.6-3.2,6.2-6.6
			c0-0.8,0.1-1.5,0.4-2.2c1.1-2.1,3.3-3.5,5.7-3.7l-1.2-1.6l9.9-9.3l-0.4-1.1c1-1.8,1.8-3.3,2.7-4.9c0.2-0.4,0.4-0.7,0.6-1
			c2.3-2.1,4.7-4,6.9-6.2c1.1-1.2,2-2.4,2.9-3.7l1.1,0.3l3.8-5.8l2,0.2l-0.2-1.3c1.4,0.2,2.4-0.6,3.2-1.7c1-1.1,2-2.1,3.1-3l4.2-4
			c2.2,0.5,4.4-0.6,5.3-2.7c0.4-0.7,1.4-1.1,2.2-1.6c0.6-0.3,1.1-0.5,1.7-0.7l1.3,1.4c-1,1.6-4.2,0.6-4.5,3c0.2,0.9,0.7,1.8,0.5,2
			c-1,0.7-2,1.4-3.1,2l0.7,1c-2.1,2.3-5.7,2.9-7.6,5.9h1.3l-1.9,2.7l-2.9,0.2v0.5l3.3,1.2l-2.2-0.2l0.8,1.3
			c-1.9-0.4-2.3,0.9-2.7,2.3l3-0.2l-4.3,3.4c-0.2,0.2-0.5,0.2-0.8,0.2c-1.9-1.1-2.7,0.7-3.9,1.7l1.2,0.2l-2,2.7l2.1,0.4
			c-1.5,1.4,0,1.5,0.9,1.9c-1.5,2-3.7-0.5-4.7,0.6l-2.9,5.3h0.2l2.1-1.9l0.3,0.4l-1.6,2.1l0.3,0.4l1.6-0.9c0.5,1.9-1.7,4.8-5.3,6.9
			l-1.1-2.4l-2.4,1.7l1.5,1.2l-0.6,2.4l-1.1-1.4l0.4-0.4l-1-0.4c-0.3,0.9-0.7,1.8-1.2,2.7c-0.7,0.8-1.5,1.5-2.3,2.1l3.5,0.2
			c0,1.1-0.8,1.7-1.8,2.1c-0.6,0.2-1,0.6-1.4,1.1c-0.2,0.3-0.2,0.8-0.3,1.2h1.1l2.5-0.2l-4.9,2.1c2.1,2.7-0.4,2.1-1.8,2.4l0.2,0.5
			h2.4l-4.6,2.3c1.2,3.1-2.3,2.2-3,3.7l1.4,1.9l-4.3,1.5l3.5,4c-2.1,0.6-3.7,0.9-5.2,1.5c-0.7,0.2-1.1,1-1.7,1.5
			c-0.4,0.3-0.8,0.7-1,1.2c-0.3,0.9-0.5,1.8-0.6,2.7c0,0.2,0,0.5,0,0.6c-1.9,0.8-0.5,1.2,0.2,1.6l-0.8,1.1l1.4,0.5v0.3h-2.7v-1.2
			c-0.2,0-0.3,0-0.5,0c-0.8,0.6-1.5,1.6-2.3,0c0-0.2-0.9-0.2-1.2,0c-0.2,0.4-0.2,0.8,0,1.1c1.2,1.2,0.4,1.9-0.4,2.7
			c-1.1,0-1.3,0.2-1,1.8C1268.6,552.2,1268.7,552,1267.8,550.5z M1297.9,504.6c2.7,0.6,3.8,0.2,5-1.9c-1.8,1.1-3.4-1-5.3,0.6
			l1.8,0.3L1297.9,504.6z"/>
		<path class="st5" d="M1240.8,517.7c0-0.6,0-1.3-1.4-0.6c-0.4,0.2-1.1,0-1.6,0l-0.8,2.7l-0.8-2.5l-0.8,1.2l-0.4-0.5
			c-0.6-1.5-2.2-2.4-3.7-2.1c-0.9,0.1-1.8-0.1-2.5-0.7c-1-0.7-2.2-1.1-3.2-1.7c-0.5-0.4-0.9-1-1.3-1.5c-1-1-2.1-1.9-3.1-2.9
			c-0.4-0.5-0.8-1.1-1.1-1.7h2.1l-1-2.7h-0.4l-0.8,2.1c-0.2-1.6,0.5-3.2-1.4-4.3c-0.5-0.3-0.6-1.6-0.7-2.4c0-0.5-0.1-1-0.2-1.5
			c-0.5-1.3-1.1-2.5-1.7-3.7c-0.6-1.8-0.5-3.7,0.4-5.3c0.3-0.8,0.5-1.6,0.6-2.4h-0.5c-0.2,0.5-0.5,1-0.7,1.4c-0.2,0.5-0.6,1-0.9,1.5
			c-0.5-1.1-0.6-1.1,0.2-4.1c0.3-1.4-0.5-3.1,1.4-4l-0.8,2.1c0.8-0.5,1.2-0.8,1.6-1.1c0.4-0.3-0.2-0.4-0.2-0.4l2-2.7
			c-1.2-0.8-0.3-1.8-0.2-2.7c0.2-2.3,2.2-4.1,4.6-3.9l0.7-2.5l-3.1,1.4c0.2-1.6,4.7-5.8,6.3-5.6l-1.8,1.1l1,0.8c1-0.3,2-0.7,2.9-1.3
			c2.8-2.7,6.8-2.7,10-4.1c0.5-0.2,1-0.2,1.5-0.2c0.9,0,1.8,0,2.7,0c2.8-0.2,5.5,0.4,8,1.5c1,0.4,2,0.6,3,0.8
			c3.6,0.6,5.6,3.5,7.9,5.7c4.3,3.9,7.1,9.1,7.9,14.8c0.2,1.8,0.7,3.6,1,5.5l1-0.9c0,3.4-2.4,5.9-3.4,8.7l3.4,0.4
			c-0.8,1.9-2.4,0.7-3.2,1v5l-0.5,0.2c-0.8-0.9-2.2-1.1-3.1-0.3c-0.3,0.2-0.5,0.5-0.6,0.8c1,0.2,2.1,0.8,2.9,0.5
			c0.8-0.2,1.5-1.3,2.4-2.2c0.2,1.4-1.1,2.1-1.5,3.2c-0.1,0.4-0.6,0.6-1,0.9c-1.2,0.9-1.6,0.8-2.1-1.2l-6.1,4.4l2.1,0.6l-3,1.9
			l2.5,0.9c-1.2,0-1.9,0-2.7,0s-1,0.2-1,0.4c-0.4,1.7-1.7,1.2-2.7,1.6c-0.4,0.2-0.8,0.4-1.2,0.5c-0.4-0.1-0.8-0.2-1.2-0.4
			c-1.8-0.7-3.1,0.5-4.7,0.9l-1-1.4c-0.5,2-0.2,2.2,2.2,1.6c-0.7,1-1.9,1.4-3.1,1.1c-1-0.4-2-0.9-2.9-1.4
			C1242.3,518,1241.6,517.8,1240.8,517.7z M1248,510l0.2-0.5l-0.5-1.2c0.7,0.1,1.4,0.2,2.1,0.2c0.6,0,1.5,0,1.7-0.3
			c0.9-1.4,2.6-2,4.2-1.4l-0.3-0.5l6.1-3.1c0-0.5-0.2-1,0-1.3c0.9-1.3,1.8-2.7,2.7-3.9c0.8-1.2,1.7-2.7,2.5-4l0,0l2.5-3.3h-2.1
			c0.5-1.1,0.8-2.2,0.9-3.4c-0.2-3.9-1.8-7.7-4.6-10.5c-1.2-1.4-2.6-2.6-4.1-3.7c-2.3-1.3-4.6-2.4-7.1-3.2c-1.1-0.3-2.2-0.6-3.3-0.7
			c-1.2-0.5-2.4-0.7-3.7-0.7c-1.6,0.4-3.5-0.1-4.9,1.2c-0.7,0.6-1.4,1-2.2,1.3c-2.7,1.1-5.3,2.2-8,3.3l0.7,1.1
			c-1.3,0.8-3.6,0.6-2.7,3.2l1.1-0.5c-0.5,1.7-1.4,3.3-2.4,4.7c-1.4,1.3-1.2,3-1.8,4.5c-0.3,0.6-0.6,1.8-0.3,2.1
			c1.3,1.3,0.4,2.7,0.7,4.1l0.8,0.2c0.3,1.4,0,3.1,0.8,3.7c1,0.8,1.5,1.9,1.4,3.2l3.1,4.3l0.9-1.4c0.3,0.6,0.6,1.1,1,1.6
			c0.5,0.5,1.2,1.3,1.7,1.3c1.8-0.2,2.7,1,3.6,2.4l0.3-0.8l2.1,1.3C1243.5,510.8,1245.8,509.1,1248,510L1248,510L1248,510z"/>
		<path class="st5" d="M1123.8,186.2l1.7,0.3c-0.6,1.3-1.3,2.5-1.8,3.7c-0.2,0.5-0.3,1.1-0.4,1.6h1.4c0.1,0,0.2,0,0.4,0
			c1.7,1,3,0.2,4.2-1.1l0.2,0.4c-0.4,0.4-0.8,0.8-1.1,1.3c-0.3,0.5-2.1,1-1.5,2.7c0,0.3-1.2,1.1-1.6,2l7.1-4l0.4,0.6l-4,2.3l2.4,0.5
			l-3.4,3.2l0.2,0.4c1.9-1.2,3.9-2.3,5.7-3.5c0.2,0,0-0.8,0-1.6c0.6,0.3,1.5,0.4,1.6,0.8c0,0.6-0.2,1.3-0.6,1.7
			c-0.3,0.3-0.7,0.5-1.1,0.5c-2.4,0-2.7,2.1-3.6,3.7c2.1,1.3,3.3-0.4,4.8-1.3c0.8,1.8,1.4,0.3,2.3,0l-0.2,1h1.8l-2.2,2.4l1.7-0.6
			l-1.2,1.3l0.9,1.4l4-1.3l0.2,0.5l-5.4,4.1l5.6-0.7l0.1,0.3l-5.5,3.4l-2.4,0.9l0.6,2.4l4.7-3.2c0,0,0-0.3,0-0.5
			c1.3-1.2,2.7-2,4.6-0.5l-5.3,4.1c1.3,0.3,2.6-0.1,3.5-1.2c1-1,2.1-2.4,4-1.7l-1.2,1.5l1.6,0.5v0.6c-0.8,0.1-1.6,0.2-2.4,0.4
			c-1.5,0.5-2.9,1.2-4.3,2c-0.2,0,0.2,1.3,0.3,2l2.2-0.8l-0.9,1.4l1,0.7l-3.5,0.8v0.4l7.2,1.8l-1.5,1.3l1.6,1l-1.6,1.9l5.1,0.5
			l-3.2,3.9l0.7,0.3l-2.9,1.3l0.1,0.5c1.8-0.6,3.9,0.7,5.7-0.8c0.2-0.2,1.2,0.4,1.7,0.8c0.5,0.4,0.2,0.6,0.3,1.1l10,0.2
			c-1.2,2.2-3.5,3.6-6.1,3.6c-0.5,0.1-1,0.3-1.4,0.5c-1.5,0.9-3.1,1.6-4.8,2c-2.5,0.5-4.9,1.2-7.2,2.1c-2.2,0.4-4.5,0.6-6.7,0.5
			c0.6-0.2,1.1-0.4,1.6-0.7c0.2-0.1,0.3-0.5,0.4-0.7c0.1-0.2-0.6-0.3-0.7-0.2c-1.2,0.9-2.8,0.9-4.1,0c-1-0.4-2.1-0.6-3.2-0.6
			l0.5-1.9c-1.3,0.4-1.8-0.2-1.5-1.5l-1.8,0.4l0.6-1.4l-2.2,1l-0.2-0.3l1.1-1.2l-2-0.8l0.9-2.2c0.1-0.1,0.1-0.2,0.2-0.3
			c1.5-2.1,1.4-2.2-1.2-2.7l1.3-1.5l-2,0.4l0.5-1.1l-2.9,0.8l0.5-2.9h4v-0.7h-3.2l-1-1.5l2.7-1.5l-0.4-0.5l-3.1,1.4l-0.3-0.4
			l3.5-2.9c-2.2-1.2-3.4,0-4.8,1c1-3.2,3.8-5.3,4.2-8.7h-1.3l0.5-2.7l-2.7,1.4l-0.3-0.2l1.6-2.4h-2.2l1.2-6.8c-0.2,0-0.9,0.3-1.4,0
			c-1-0.5-2.2-0.9-1.4-2.7c0.4-0.8,0-1.8,0-2.9l3.4-2.9l-0.3-0.4l-4.1,1.9l-0.3-0.5l2.2-2.2l-1.6-3.1l-0.7,0.7l2.7-2.3l-0.3-0.4
			l-1.5,0.4c0.7-1.2,1.3-2.3,2.8-2.7c0.6,0,1-0.9,1.6-1.2c0.4-0.1,0.9-0.1,1.3,0l-2.2,2.7C1121.8,187.4,1123,187,1123.8,186.2z"/>
		<path class="st5" d="M1005.8,349.4l-1.2,1l-1.4-2.2l-0.9,3.1h-0.3l-0.8-2.5l-2.1,0.9l-0.9-2l-0.5,0.6l-2.5-3.8
			c-0.5,0.4-0.9,0.8-1.4,1.2c-1.1,0.7-1.9,0.5-2.5-0.9c-0.6-0.9-1.3-1.8-2.2-2.5l0.4-4.4h-0.4l-1.6,4.2h-0.6v-3l-3.2-0.7l0.4-3.8
			l-1.4,1.6l-0.4-0.2c0.3-1.3-0.2-2.8,1.2-4c0.3-0.2,0.2-0.9,0.3-1.3c0.1-0.5,0-0.8,0.2-1.6l0.5,1.2l0.3-0.8h0.2l-0.5,3.2l0.3,0.2
			l2.1-3.7l0.4,0.2l-0.1,1.4l0.8-0.8l1,4.4h0.3l0.5-2.1h0.4l0.2,0.9c1.5-0.6,2.6-1.9,2.9-3.5v4.6l0.9-0.5c0,0.9-0.2,1.9-0.3,2.7h0.5
			l2-7.7l0.7,0.2l-1.3,4.7l1.5-1.3h0.5v4h0.4l1.7-6.7l-1.1-0.2l0.9-1.3c0.5,0.4,1.3,0.6,1.3,1.1c0.1,0.7-0.1,1.4-0.5,1.9
			c-1.5,1.8-0.2,3.2,0.3,4.9c2.3-0.8,1.9-2.7,2.2-4.4l1,0.5l0.9-4.1v3l1.3-1.5l0.5,2.3l0.8-0.5l0.1,1.4h1.5l1.6-4h0.5l-0.7,6.9h0.4
			l2.9-5.1h0.3l-1.7,9.5l2.1,0.9c0.4-1.8,0.6-3.6,0.4-5.3c-0.6-2.1-0.4-3.4,2-4.3v6.7c2.7-1.9-0.2-5.3,2.1-7.5l0.5,1.7l1.7-1.1
			c-0.3,1.2,0,1.9-1,2.9c-1,0.9-0.8,2.7-0.9,4.3c0,0.3,1,0.7,1.7,1.1l0.5-1.9h0.5l0.4,4.4l5.3-5.3v2.3c2.5-1.7,1.8,0.6,2.4,1.4
			l3-4.1l2.1,7.4c0.6-1.4,2.5-2.7,2.2-4.9c0-0.6,1-1.3,1.7-2.2l0.3,1.9l5-9.3c1.1,2.3,1.2,4.9,0.2,7.3c-0.3,1.6-0.4,3.2-0.5,4.8
			c-0.2,1.2,0.5,2.7-1.3,3.3c0,0,0,0.5,0,0.8c0.1,1,0.1,2,0,3c-0.7,2.7-1.7,5.4-2.8,8l0.3-2.9h-0.2l-0.5,1.2v-1.7h-0.2
			c0,0.8-0.1,1.6-0.3,2.4c-0.3,0.8-0.3,1.7-1.6,2.2c-1.3,0.5-1.8,1.9-2.7,2.9l-1.3-1.5l-1,1.3c-1.2-0.9-1.3-0.9-2.1,0.8l-0.4-0.8
			c0-0.2-0.2-0.4-0.5-0.9l-0.3,2.9h-0.3l-0.6-1.7l-1.7,1.5c-0.5-0.6-1-1.2-1.4-1.8c-0.5-0.8-0.8-1.7-1.4-2.9l-1.9,1.9l-0.5-2.2
			l-0.8,1.9l-0.9-0.6c0,0.4-0.1,0.8-0.3,1.2c-0.2,0.4-0.4,0.8-0.8,1c-0.2,0-0.7-0.3-0.9-0.6c-0.7-0.8-1.3-1.7-2.1-2.7l-0.8,1.4
			l-0.4-4.3l-1.4,3.9l-0.4-0.2l-0.2-5.3c-1.5,1.5-2.7,2.5-1.8,4.3c0,0-0.4,0.4-0.6,0.6c-0.1-0.2-0.4-0.4-0.4-0.6
			c-0.5-1.5-1.1-3-1.8-4.5C1007.4,351.6,1006.7,350.4,1005.8,349.4z"/>
		<path class="st5" d="M1418.8,328.8l-3.5-1.8c-1.2,1.9,0,3.3,1,4.7c-2,1,0,1.7,0,2.7l-1.1-0.8l-0.2,1.7l-2.4-2l0.5,1.3h-0.2
			l-1.4-1.4v1.2l-1.2-0.6l1.1,4.4l-0.5,0.2l-3.5-5.7v5.6h-0.4c-0.6-1.4-1.2-2.9-1.8-4.4c-0.3-0.5-0.6-0.9-1-1.2
			c-0.2-0.9-0.3-1.8-0.5-2.7l-2.5,0.2l2.7,5.3h0.3l-0.7-3.4h0.2l0.5,0.8c0.5,1.6,1,3.3,1.3,5c0,0.6-0.6,1.3-1.2,2.4l-3.4-5.7
			c-0.6,1-0.5,1.7,0.3,2.9c0.8,1.2,2.2,2.7,1.4,4.5l-1.4-1.4l-0.7,1.7h-0.6c0.1-0.8,0.1-1.6,0-2.4c-0.4-1.6-0.8-3.1-1.4-4.7
			c0-0.2-1.2,0-2,0l0.4,1.8l-0.3,0.2c-0.5-0.6-0.9-1.1-1.3-1.7c-0.4-0.6-0.7-1.2-1.1-2l-3.1,7.7l-0.9-2.7l-1.6,2l-1.3-2.2l-1.4,4.9
			l-0.8,0.6l-3.4-3.9l0.5-0.5l-0.4,0.7l-0.7-3h-0.6c0,1.3,0.6,2.8,0,3.9c-0.6,1.1,0.9,3.2-1.4,3.5c-0.3,0-0.6,0-0.8,0
			c-0.3,0.6-0.6,1.3-0.8,1.9c-0.2,0.8-0.2,1.6-0.4,2.2l-1.4,5.8c-2-1.6-2.8-4.2-2.3-6.7c0-0.6,0-1.1-0.2-1.7
			c-0.6-1.7-0.9-3.5-0.8-5.3c0.6-2.3-0.5-4.2-0.5-6.2c0-1.1,0.3-2.2,0.3-3.3c0-1.4,0.1-2.9,0.4-4.3l0.6,2.7h0.3
			c0-0.5,0.4-1.1,0.3-1.5c-0.3-1.1-0.5-2,0.6-3c1.2-1,1-2.3,1.4-3.6l1.4,0.8V322c0.5-0.1,0.9-0.4,1.3-0.6c0.4-0.5,0.6-1,0.9-1.5
			l0.9,0.6l-0.5-2.4l0.3-0.2l0.7,1.5l0.4-0.2c0-0.4,0-0.7,0-1c0.3-0.9,0.8-1.3,1.6-0.6c0.9,0.8,0.9,0.9,1.3,1.3
			c0.5,0.4,1,0.7,1.5,1.1l1.1-2l0.7,1.8l0.5-0.3l-0.2-1.7h0.9l-0.4-2.7l2.7,0.7l-0.3,4.4c0.4-0.4,0.7-0.5,0.8-0.8
			c0.3-1.2,0.5-2.4,0.8-3.6h0.4l1.9,3h0.2l-0.8-3.4h0.4l2.3,3.7l0.8-0.4l-1.2-4.8c1.3,0.9,2.6,1.9,3.6,3.1c1,1.6,2.8,1.4,3.9,2.7
			l0.6-1.4l2,0.6l-1-3l0.2-0.2l2.1,1.7c0.1-0.5,0.2-0.9,0.3-1.3c0.2-0.3,0.6-0.7,0.8-0.7c1.9,0.5,3.8,1.2,5.7,1.8
			c0-0.4,0-0.9,0.2-1.4c0.3-1.5,1-2.2,2.7-1.2c0.9,0.2,1.8,0.3,2.7,0.3l2.7,3.4l0.4-0.3l-1.6-3.9l0.5-0.3l2,2.2l2.7-2l2,2.7l0.4-0.2
			l-0.3-1.6c2.7,0.9,2.1,4.1,4.3,5.2l-0.6,0.6l-2.7-2.4l1.6,4.8c-1-0.3-1.9-0.6-2.8-1c-0.8-0.5-1.7-0.9-2.7-1.1l1,2l-0.4,0.2
			l-0.7-0.8c-1,1.2-0.8,3,0.4,4c0.2,0.1,0.4,0.3,0.6,0.4l-0.7,0.3c-0.5-0.7-1.1-1.3-1.8-1.8c-0.5-0.4-0.7-1.8-1.8-0.7l-1.4-2.3
			l-0.6,0.4l3.6,7.3l-0.6,0.3l-2.2-4.5l-0.2,2.1l-0.5,0.2l-2.7-3.3h-0.2l1.5,3.9L1418.8,328.8z"/>
		<path class="st5" d="M1017.7,507.2c0,0.6,0.2,1.3,0.3,2c0.1,0.7-0.5,1.4-1.6,1.4c-1.1,0.1-2.1,0.3-3.2,0.5l-3.7-2.4l-0.2,0.4
			l3,3.3l-0.4,0.4l-2.7-1.6l-1.9,2.7l-2.7-1.7l-0.3,0.3l0.9,1.6c-2.9-0.4-3.4-3.4-5.8-4.1l0.4-0.7l2.8,1.4c0.3-1.6-2.3-2-2.1-4
			l5.7,0.6l-2.1-1.8l0.3-0.4l0.8,0.5c0.8-1.9-0.3-3-2.1-3.7l0.4-0.4c0.3,0.1,0.6,0.2,0.9,0.3c1.2,0.2,1.9,2.1,3.6,1
			c0.2-0.2,1.4,0.9,2.1,1.4l0.4-0.4c-1-0.9-2.1-1.8-3.1-2.7c-1-0.9-1.8-2-2.7-3l0.4-0.4l3.3,3.2l-0.2-2.5l3.7,2.4l0.4-0.4
			c-1.6-1.5-3.2-3-4.9-4.4c0,0-0.7,0.3-1.5,0.6c0-0.8,0-1.6,0.4-2c0.4-0.3,1.2,0,1.7,0c0.5,0,0.7,0.8,1,1.2c0.9,1.6,2.8,2.4,4.6,2
			c0-0.6,0-1.3-0.4-1.6c-1.2-1.5-2.3-3.1-3.2-4.7l1.3,0.5l-0.9-2.1l2.7,1l-0.7-1.2l1.7,0.8c0.5,0-0.4-1.9,1.5-0.5l-3-4.2l0.4-0.4
			l5.5,4.3l-2.5-5.3c0.7,0.4,1.2,0.4,1.4,0.7c1.2,1.3,2.4,2.7,3.6,3.9c1.2,1.2,1.9,2.7,3.6,0.7c-1.3-1.6-2.9-2.8-4.8-3.7
			c-1.6-0.6-2.3-2.4-1.7-3.9c0-0.1,0-0.1,0.1-0.1l5.3,3.9c0.1-1.1-0.5-2.1-1.5-2.5c-1.4-0.7-3-1.5-3.2-3.7l1.6,0.8l0.3-1.8
			c0.9,0.4,1.5,1.2,1.7,2.2c0.3,1.3,1.7,2.4,2.8,3.3c0.3,0.2,1.3-0.5,2.2-0.9l-1.6-1.3l0.5-0.5l3.7,2.4l-0.5-7.7l1.8,1.6l0.7-1.9
			l2,1l-1-5l4.8,2.1v-0.7l1.8,2.7l0.8-0.5c-0.9-1.8-1.8-3.5-2.7-5.3c-0.7-1.3,0-1.8,1.2-2.2l-1.1-4.4l-1.7-5.3
			c2.5,0.7,4.5,2.5,5.3,5c0.6,1.5,2.1,2.5,3.1,3.9c0.5,0.9,1,1.9,1.4,2.9c0.1,0.4,0.3,0.7,0.5,1c1,1,1.8,1.9,2.7,3
			c0.5,1,0.9,2,1.3,3c0.7,1.3,1.3,2.5,1.8,3.9l-2.1-1.8l-0.4,0.3c0.4,0.5,0.6,0.9,1,1.3c0.8,0.6,1.1,1.8,0.6,2.7
			c-0.4,1.1,0.2,2.7,0.4,4.1l-2.1-0.2l0.9,1.5c-1.8-0.2-1.8,0.7-0.9,2.1l-1.4-0.9l1.8,2.3l-1.7-0.8v2.1c-0.7,0-1.4,0-2.1,0
			c-0.2,0-0.4-0.2-0.6-0.3c-2.3-0.8-2.4-0.7-2.1,1.8l-1.8-0.8c0.3,0.4,0.5,0.8,0.6,1.3c0,0.2-0.4,0.5-0.5,0.8l1.4,2.5l-4.5-0.2
			l0.6,1.4l-3.3-2.1l-0.2,0.2l2.1,2.4l-0.3,0.5c-0.6-0.4-1.1-0.8-1.7-1.2c-0.6-0.4-1.5-0.8-2.3-1.2c-0.5,2.4,1.6,3,2.4,4.4l-9.4-2.5
			l0.5,1.8l-2.7,0.2l2.1,2.4l-0.2,0.2l-2.7-0.9l0.4,2.1l-2.4-0.2v0.6L1017.7,507.2z"/>
		<path class="st5" d="M1290.6,215.7l-4,0.4c0.6,2.1,2.3,2.2,3.7,2.7l-0.3,0.4l1.9,1.4l-0.8,0.3l1.2,0.8l-0.3,0.3h-2.2l1,0.8
			l-1.4-0.1l-0.2,1.5l3.4,1.9l-0.1,0.4c-1.1-0.3-2.1-0.6-3.2-0.8c-1.1-0.2-2.2-0.5-3.6-0.7l5.3,3.8v0.2l-9.5-3.2l-1,1.9
			c1.8,0.5,3.7,0.8,5.6,1c1.8,0,3,0.4,3.7,2.3l-6.4-0.3l0,0c0.9,0.4,1.8,0.8,2.7,1c1.5,0.4,3.2,0,4.5,1.5l-1.4,0.4l0.6,1.1l-0.3,0.4
			c-0.7-0.5-1.4-0.9-2.1-1.3c-1.4-0.6-2.8-1.1-4.2-1.4c-0.4,0-0.9,0.9-1.4,1.6l1.9,0.5v0.5l-4.4-0.2l5.7,6.3l-4.3,1.1l3.8,3l-4.8,1
			l1,0.8l-3.6-0.8l-0.2,0.5l4.1,1.6h-2v0.2c1,0,1.9,0.1,2.8,0.4c0.7,0.3,1.2,1.1,1.8,1.7l-1.1,0.2l2.5,1l-0.5,0.2l6.8,3.1
			c-1.8,0.9-3.8,1.1-5.7,0.6c-2.1-0.3-4.3-0.5-6.3-0.9c-1.2-0.3-2.7,0.4-3.5-1.3c0,0-0.5,0-0.8,0c-2.2,0.3-4.4-0.1-6.3-1.2
			c-1.3-0.8-3-1-4.5-1.7l2.7,0.3c-0.5-1.3-1.4-1.2-2.4-1.1c0-0.8-1-0.7-1.3-1.6c-0.3-0.9-1.8-1.8-2.8-2.7l1.5-1.2l-1.3-0.5
			c0.3-1,1.4-2.1-1-2.5l1.5-0.8l-2.7-0.7l2.3-0.5c-0.3-0.2-0.6-0.4-0.9-0.6c-0.3-0.3-0.8-0.7-0.8-1c0.2-0.5,0.5-0.9,0.9-1.1
			c1.3-0.5,2.6-1.2,3.9-1.9l-2.1-1.6l2.4-0.3l-1.8-1l0.8-0.6l-2.5-1.3c1.1-0.7,1.4-1.9,2.8-1.7c0.2,0,0.5-1,0.8-1.6l-0.5-0.4
			l3.5,0.2c-0.8-1.3-3-0.2-3.3-2.3c1.7,0.5,3.2,1.2,4.6,0c-0.8-1.8-2.4-2.1-4.2-1.8v-0.6l9.6-2.5l-1.4-1.2l2.1-1.6l-2.8-1.1v-0.4
			l2.7-0.4l-0.7-2l2-0.7l-0.6-0.5l4.2-1.8c-0.3-0.3-0.8-0.7-1-1.2c-0.4-1.3-0.4-2.3,1.4-2.7c0.9-0.4,1.6-0.9,2.3-1.5l4.5,1.3v-0.4
			l-3.8-2.5l0.3-0.5l2.9,0.8l1.1-3l3.1,1.2l0.5-0.5l-1.6-0.8c2.9-0.6,4.1,1.5,5.9,2.7l-0.2,0.4l-2.4-0.9l-0.2,0.2l3.3,2.7l-0.1,0.6
			l-5.6,0.4c0.5,0.2,0.9,0.5,1.3,0.7c0.3,0.2,2,0,0.4,1.1c0.1,0.7,0.4,1.4,0.9,2c0.5,0.5,1.3,0.6,1.8,1.2c-0.5,0-0.9-0.2-1.4-0.3
			c-1.9-0.2-3.8-0.3-5.7-0.2l7.3,3.6l-0.5,0.7l-4.1-2l1,2l-4.1-1l-0.1,0.2l1.8,1.1l1.9,1.1L1290.6,215.7z"/>
		<path class="st5" d="M1139.7,211.7c0,0.2,0,0.4,0,0.5l-4.7,3.2l-0.6-2.4l2.4-0.9L1139.7,211.7z"/>
		<path class="st5" d="M1421.2,436.6c0.2,2.9-1.2,4.4-3.7,4.2L1421.2,436.6z"/>
		<path class="st5" d="M1303.7,344.4l0.5-1.5c0.4,0.3,1,0.4,1.3,0.8c0.5,1.1,0.9,2.3,1.3,3.4
			C1304.7,347.1,1304.9,344.9,1303.7,344.4L1303.7,344.4z"/>
		<path class="st5" d="M1286,569.4l8.9-6.5l0.3,0.4l-8.9,6.5L1286,569.4z"/>
		<path class="st5" d="M1418.8,328.9l1.9,2.7l0.8-1.1c0,0.8,0.3,1.5,0.1,1.6c-0.2,0.1-1.3,0.6-1.7,0.4
			C1418.7,331.7,1418.3,330.1,1418.8,328.9L1418.8,328.9z"/>
		<path class="st5" d="M1341.1,520.9c2.2-2,5.2-2.8,8-2l-2.4,1.5l0.2-1.7L1341.1,520.9z"/>
		<path class="st5" d="M1290.5,215.7c1-0.1,2-0.1,3,0c0.4,0,0.9,0.7,0.9,0.8c-0.1,0.1-0.9,1.1-1,1c-1-0.6-2-1.3-2.9-2L1290.5,215.7z
			"/>
		<path class="st5" d="M1442.3,463.2l-3,0.6c0.6-1.6,1.2-2.7,2.7-2.5L1442.3,463.2z"/>
		<path class="st5" d="M1075.1,532.2l-2.1,1.6c0.3-1.8,1.6-3.3,3.3-4c-0.4,0.7-0.8,1.3-1.1,2L1075.1,532.2z"/>
		<path class="st5" d="M1123.8,186.2c-0.8,1-1.9,1.5-3.1,1.4l2.2-2.7L1123.8,186.2z"/>
		<path class="st5" d="M1413.1,414.1c-0.8,1-0.8,1-3.8-0.8c0.6,0,1.2,0.2,1.8,0.3C1411.7,413.7,1412.4,413.9,1413.1,414.1z"/>
		<path class="st5" d="M1098.7,425.3c-1.5-0.6-1.4-1.7-1.4-2.9c0-3.8-0.7-7.7-0.5-11.4c0.1-2.4-1-4.8,0.4-7.2
			c0.6-1.2,0.2-2.7-0.9-3.4c-0.5-0.4-0.2-2.4,0.2-3.4c0.6-1,1.3-1.9,2.2-2.7C1097.4,404.5,1097.4,414.9,1098.7,425.3z"/>
		<path class="st5" d="M1132.5,440.5c1.1-1.4,0.8-3.8,3-4.3l1.3,2.1l-3.9,2.7L1132.5,440.5z"/>
		<path class="st5" d="M1164.8,414.2l2-0.9l-0.2-1.1l3.7-1.8l0.3,0.5c-1.2,1.9-3.1,3.4-5.3,4L1164.8,414.2z"/>
		<path class="st5" d="M1244.7,289.7c1.5,0.3,3.1,0.7,4.5,1.2c0.5,0.2,0.5,1.6,1.1,2.2C1248.6,291.8,1245.9,291.8,1244.7,289.7z"/>
		<path class="st5" d="M1148.8,427.8c0.6-2.4,0.9-2.7,3.3-1.6L1148.8,427.8z"/>
		<path class="st5" d="M1119.3,447.5l-1.7-0.2l-0.7,2.2c-1-2-1.1-1.7,2-3.7L1119.3,447.5z"/>
		<path class="st5" d="M1232.1,391.7c0.4-2.2,2.3-2.2,3.9-3.2l-3.7,3.4L1232.1,391.7z"/>
		<path class="st5" d="M1155,426.4l-2.2-0.2c1.7-1,2.2-2.7,4.3-2.1C1156.7,425.1,1154,423.9,1155,426.4z"/>
		<path class="st5" d="M1235.9,288.3l-2-0.4l0.8-1.5l1.6,1.4L1235.9,288.3z"/>
		<path class="st5" d="M1285.1,393.7c4.1-1.8,8.6-2.6,13-2.5l-12.9,2.9L1285.1,393.7z"/>
		<path class="st5" d="M1335.7,532.5c0.5-0.2,1-0.6,1.3-1c1.3-1.6,2.5-1.8,4.5-0.4c-0.5,0.5-0.5,1.7-2,0.8c-0.6-0.4-2,0.6-3,0.9
			C1336.4,532.8,1336,532.6,1335.7,532.5L1335.7,532.5z"/>
		<path class="st5" d="M1220.6,428.9l7.1-0.5v0.4c-1.8,0.6-3.5,1.2-5.3,1.6c-0.6,0-1.3-0.6-2-1L1220.6,428.9z"/>
		<path class="st5" d="M1185.6,434.2c0.9-2,3.2-3,5.2-2.2C1189.1,433,1188,434.8,1185.6,434.2z"/>
		<path class="st5" d="M1341,528.8c2-1.5,4.3-2.7,6.8-3.3l0.2,0.5l-6.8,3.2L1341,528.8z"/>
		<path class="st5" d="M1112,495.4c0.5-0.7,1.1-1.3,1.8-1.9c1.4-1,3-2,4.5-3C1117.9,492,1116.5,493,1112,495.4z"/>
		<path class="st5" d="M1234.5,419.7l-5.5,1.7l-0.2-0.9l5.5-1.7L1234.5,419.7z"/>
		<path class="st5" d="M1287.6,415.4l-5.6,0.5C1284.7,414.3,1286.5,414.2,1287.6,415.4z"/>
		<path class="st5" d="M1210.5,436.5c-0.8-1.3,0-2.1,2.5-2.7l0.4,0.4L1210.5,436.5z"/>
		<path class="st5" d="M1161.6,461.5l-4.9,3.5l-0.4-0.5l4.9-3.5L1161.6,461.5z"/>
		<path class="st5" d="M1434,421.2l1.1,3.1l-2.4-0.9L1434,421.2z"/>
		<path class="st5" d="M1443.2,426.4c0.8,1.5,0.5,2.7-1.3,4.2L1443.2,426.4z"/>
		<path class="st5" d="M1331.8,407.7l-2.7-0.3C1330.7,405.4,1330.8,405.4,1331.8,407.7z"/>
		<path class="st5" d="M1393.5,384.1l-1,1.8l-2.7-1.7L1393.5,384.1z"/>
		<path class="st5" d="M1270.8,411l3,1.4C1272.3,413.3,1271.1,412.8,1270.8,411z"/>
		<path class="st5" d="M1297.9,504.6l1.5-1.1l-1.8-0.3c1.8-1.6,3.4,0.5,5.3-0.6C1301.7,504.9,1300.5,505.3,1297.9,504.6z"/>
		<path class="st5" d="M1267.8,550.5c0.9,1.5,0.8,1.7-0.9,1.9C1266.6,550.8,1266.8,550.4,1267.8,550.5L1267.8,550.5z"/>
		<path class="st5" d="M1404.2,333.2l-0.5-0.8h-0.2l0.7,3.4h-0.3l-2.7-5.3l2.5-0.2c0.2,0.9,0.3,1.8,0.5,2.7L1404.2,333.2z"/>
		<path class="st5" d="M481.6,623.4c0,8.7,4.4,17.2,14,17.2c8,0,10.3-3.2,12.1-7.4h19.3c-2.5,8.5-10.1,22.5-31.9,22.5
			c-22.9,0-32.8-17.1-32.8-35.4c0-21.8,11.2-37.5,33.5-37.5c23.9,0,32.1,17.3,32.1,34.6c0.1,2,0,3.9-0.2,5.9L481.6,623.4z
			 M508.3,611.5c-0.1-8-3.4-14.9-12.8-14.9s-12.9,6.4-13.7,14.9H508.3z"/>
		<path class="st5" d="M558.5,584.5c7.3,13.1,10.2,18.2,12.3,21.8l0,0c2.4-4.2,6.6-11.9,12.3-21.8h21.4l-22.6,33.1l22.5,36.4h-21.6
			c-6.2-11.8-10.1-19.4-12.2-23.4h-0.1c-1.8,3.6-6.6,12.7-12.3,23.4h-21.1l21.4-33.9l-21.4-35.6L558.5,584.5L558.5,584.5z"/>
		<path class="st5" d="M637.3,647.9v32.8h-19.1v-79.4c0-5.6,0-11.2,0-16.7h18.7c0.4,2.9,0.6,5.7,0.6,8.6c3-5.1,9.2-10.2,20.2-10.2
			c15.6,0,27.7,13.1,27.7,34.6c0,24.5-13.4,38.1-30.3,38.1C645,655.6,639.9,651.9,637.3,647.9z M665.5,618.2
			c0-12.7-5.2-19.9-14.3-19.9c-10.9,0-14.8,7-14.8,21c0,13.4,3.6,21,14,21S665.5,632.4,665.5,618.2z"/>
		<path class="st5" d="M719.9,623.4c0,8.7,4.4,17.2,14,17.2c8,0,10.3-3.2,12.1-7.4h19.3c-2.5,8.5-10.1,22.5-31.9,22.5
			c-22.9,0-32.8-17.1-32.8-35.4c0-21.8,11.2-37.5,33.5-37.5c23.9,0,32,17.3,32,34.6c0.1,2,0,3.9-0.2,5.9L719.9,623.4z M746.7,611.5
			c-0.1-8-3.4-14.9-12.8-14.9c-9.4,0-12.9,6.4-13.7,14.9H746.7z"/>
		<path class="st5" d="M785,603.3c0-6.9,0-13.1,0-18.9h18.7c0.2,1.6,0.5,8.5,0.5,12.2c3-8,10.5-13.8,22.3-13.8v18.4
			c-14-0.4-22.3,3.4-22.3,22.4V654H785V603.3z"/>
		<path class="st5" d="M842.7,556h19.2v17.2h-19.2V556z M842.7,584.5h19.2V654h-19.2V584.5z"/>
		<path class="st5" d="M899.9,623.4c0,8.7,4.4,17.2,13.9,17.2c8,0,10.3-3.2,12.2-7.4h19.3c-2.5,8.5-10.1,22.5-31.9,22.5
			c-22.9,0-32.8-17.1-32.8-35.4c0-21.8,11.2-37.5,33.5-37.5c23.9,0,32.1,17.3,32.1,34.6c0.1,2,0,3.9-0.3,5.9L899.9,623.4z
			 M926.7,611.5c-0.1-8-3.3-14.9-12.7-14.9c-9.4,0-12.9,6.4-13.7,14.9H926.7z"/>
		<path class="st5" d="M965,602c0-5.9,0-12.4-0.1-17.5h18.7c0.4,2.9,0.7,5.9,0.8,8.9c2.4-4.4,8-10.5,20.2-10.5
			c13.9,0,23,9.4,23,26.8v44.2h-19.3v-42c0-7.8-2.7-13.4-11.1-13.4c-8.4,0-12.9,4.5-12.9,16.8v38.7h-19.2L965,602z"/>
		<path class="st5" d="M1110.1,631.5c-2.4,11.6-10.5,24.1-31.3,24.1c-21.6,0-32.7-15-32.7-35.9c0-20.9,12.5-36.9,33.7-36.9
			c23.4,0,29.9,16.8,30.3,24.7h-18.7c-0.6-5.9-5.8-10.2-11.7-9.6c-0.1,0-0.2,0-0.2,0c-8.8,0-13.8,7.7-13.8,21.2
			c0,14.8,5.3,21.6,13.7,21.6c5.6,0.2,10.6-3.7,11.9-9.1L1110.1,631.5z"/>
		<path class="st5" d="M1143.7,623.4c0,8.7,4.4,17.2,13.9,17.2c8,0,10.3-3.2,12.1-7.4h19.3c-2.5,8.5-10.1,22.5-31.9,22.5
			c-22.9,0-32.8-17.1-32.8-35.4c0-21.8,11.2-37.5,33.5-37.5c23.9,0,32.1,17.3,32.1,34.6c0.1,2,0,3.9-0.3,5.9L1143.7,623.4z
			 M1170.4,611.5c-0.1-8-3.4-14.9-12.7-14.9c-9.4,0-13,6.4-13.7,14.9H1170.4z"/>
		<path class="st5" d="M618,792.9v-98h19.2v98H618z"/>
		<path class="st5" d="M659.9,694.9h19.2v17.2h-19.2V694.9z M659.9,723.4h19.2V793h-19.2V723.4z"/>
		<path class="st5" d="M705.5,792.9v-55.1h-10.1v-14.4h10.1v-6c0-14.4,7.1-23.8,22.2-23.8c3-0.1,6,0.2,8.9,0.8v15.2
			c-1.3-0.2-2.7-0.3-4.1-0.3c-5.7,0-7.8,2.1-7.8,9.5v4.7h12.2V738h-12.2V793L705.5,792.9z"/>
		<path class="st5" d="M766.4,762.3c0,8.7,4.4,17.2,13.9,17.2c8,0,10.3-3.2,12.2-7.4h19.3c-2.5,8.5-10.1,22.5-31.9,22.5
			c-22.9,0-32.8-17.1-32.8-35.4c0-21.8,11.2-37.5,33.5-37.5c23.9,0,32.1,17.3,32.1,34.6c0.1,2,0,3.9-0.3,5.9L766.4,762.3z
			 M793.2,750.4c0-8-3.3-14.9-12.7-14.9s-12.9,6.3-13.7,14.9H793.2z"/>
		<path class="st5" d="M868.1,716.1c-1.1,6.7-7.1,11.4-13.9,11c-9.3,0-14.8-6.6-14.8-17.1c0-9.4,5.3-17.4,15.3-17.4
			c6.8-0.5,12.7,4.4,13.4,11.2h-6.3c-0.5-3.6-3.7-6.2-7.3-5.9c-5.5,0-8.6,4.7-8.6,12s3,12.1,8.5,12.1c3.5,0.1,6.7-2.3,7.4-5.8
			L868.1,716.1L868.1,716.1z"/>
		<path class="st5" d="M906.4,709.8c0,9.6-5.6,17.3-15.7,17.3c-9.6,0-15.4-7.3-15.4-17.2c0-9.9,5.7-17.3,15.7-17.3
			C900.4,692.6,906.4,699.5,906.4,709.8z M881.8,709.8c0,7.1,3.4,12,9.1,12s8.9-4.8,8.9-12c0-7.3-3.2-12.1-9.1-12.1
			S881.9,702.5,881.8,709.8L881.8,709.8z"/>
		<path class="st5" d="M916.2,701.9c0-2.9,0-5.8,0-8.5h6.1c0,1,0.3,3.3,0.3,4.8c1.8-3.6,5.5-5.8,9.5-5.6c3.9-0.3,7.6,2,9,5.7
			c2.1-3.7,6.2-6,10.4-5.7c5.3,0,10.4,3.2,10.4,12.1v21.6h-6.3v-20.9c0-3.6-1.3-7.5-6.2-7.5c-4.9,0-7.3,3.7-7.3,9.4v18.9h-6.2v-20.7
			c0-4.1-1.1-7.7-6.1-7.7c-4.9,0-7.4,3.9-7.4,10.1v18.3h-6.3L916.2,701.9z"/>
		<path class="st5" d="M973.9,701.9c0-2.9,0-5.8,0-8.5h6.1c0.2,1.6,0.2,3.2,0.2,4.8c1.8-3.6,5.5-5.8,9.5-5.6c3.9-0.3,7.6,2,9,5.7
			c2.1-3.7,6.2-6,10.4-5.7c5.3,0,10.4,3.2,10.4,12.1v21.6h-6.2v-20.9c0-3.6-1.3-7.5-6.2-7.5c-4.9,0-7.3,3.7-7.3,9.4v18.9h-6.2v-20.7
			c0-4.1-1.2-7.7-6.1-7.7s-7.4,3.9-7.4,10.1v18.3H974L973.9,701.9z"/>
		<path class="st5" d="M1058.3,716.7c0,3.2,0,7.5,0,9.6h-6.2c0-0.9-0.2-2.8-0.2-4.7c-1.8,3.7-5.7,5.9-9.8,5.5
			c-5.8,0-10.9-3-10.9-12.1v-21.7h6.3v20.3c0,4.2,1.3,8,6.5,8c5.7,0,8-3.2,8-11v-17.3h6.4L1058.3,716.7z"/>
		<path class="st5" d="M1070.4,701.7c0-2.8,0-5.7,0-8.3h6.2c0.2,0.9,0.2,4.2,0.2,5.2c1.8-3.9,5.9-6.3,10.2-6c6.3,0,11,3.9,11,12.6
			v21.2h-6.4V706c0-4.7-1.8-8-6.6-8c-5.7,0-8.2,4.2-8.2,10.7v17.6h-6.4L1070.4,701.7L1070.4,701.7z"/>
		<path class="st5" d="M1109.9,678.9h6.4v7.3h-6.4V678.9z M1109.9,693.4h6.4v33h-6.4V693.4z"/>
		<path class="st5" d="M1124.5,693.4h5.6v-9.6h6.4v9.6h7.1v5.1h-7.1v18.7c0,3.1,0.8,4.6,3.7,4.6c0.9,0,1.8-0.1,2.7-0.2v4.7
			c-1.7,0.5-3.4,0.7-5.2,0.6c-5.3,0-7.6-2.8-7.6-8.3v-20h-5.6L1124.5,693.4z"/>
		<path class="st5" d="M1156.6,693.4c5,14.9,7.9,24.1,8.7,27.2l0,0c1-3.7,3.3-11.2,8.4-27.2h6.4l-11.7,34.4
			c-3.3,9.6-5.8,12.1-12.8,12.1c-1.2,0-2.5-0.1-3.7-0.2v-5.3c0.9,0.1,1.8,0.2,2.7,0.2c4,0,5.6-1.7,7.4-6.9l-12.1-34.2L1156.6,693.4
			L1156.6,693.4z"/>
		<path class="st5" d="M845.3,783.4c0.9,3.5,4.2,5.7,7.7,5.3c4.6,0,6.3-1.9,6.3-4.7s-1.5-4.2-7.5-5.6c-9.7-2.4-11.6-5.3-11.6-9.8
			c0-4.5,3.4-9.4,12.2-9.4c8.7,0,12.3,5,12.7,9.6H859c-0.7-3.1-3.6-5.2-6.8-4.8c-4.3,0-5.6,2.1-5.6,4.1c0,2,1.3,3.4,7.2,4.8
			c10.2,2.4,12.1,5.8,12.1,10.7c0,5.7-4.5,10.1-13.1,10.1s-13-4.4-13.8-10.3L845.3,783.4z"/>
		<path class="st5" d="M879.8,777.6c0,6.2,3.2,10.7,8.5,10.7c3.3,0.4,6.5-1.6,7.5-4.8h6.4c-1.7,6.3-7.6,10.5-14.1,10
			c-10.5,0-14.8-8.4-14.8-16.9c0-9.9,5-17.6,15.1-17.6c10.7,0,14.3,8.5,14.3,15.7c0,1,0,1.8,0,2.7L879.8,777.6z M896.4,773.3
			c0-5.1-2.7-9.3-8-9.3c-5.3,0-8,3.8-8.5,9.3H896.4z"/>
		<path class="st5" d="M912.6,768.9c0-4.3,0-7,0-8.9h6.2c0,0.9,0.2,3.6,0.2,6.5c1.8-4.5,6.2-7.4,11-7.3v6.3c-6.7,0-11,3.3-11,11.8
			v15.7h-6.4L912.6,768.9z"/>
		<path class="st5" d="M943.2,759.9c4.2,13,7.3,23,8.2,27.1l0,0c0.8-4,4.3-13.9,8.8-27.1h6.5l-12,33h-6.9l-11.4-33H943.2z"/>
		<path class="st5" d="M974.9,745.4h6.4v7.3h-6.4L974.9,745.4z M974.9,759.9h6.4v33h-6.4L974.9,759.9z"/>
		<path class="st5" d="M1019.8,782.7c-1.1,6.7-7.1,11.4-13.9,11c-9.3,0-14.8-6.7-14.8-17.1c0-9.4,5.3-17.4,15.3-17.4
			c6.8-0.6,12.7,4.4,13.4,11.1h-6.3c-0.5-3.6-3.7-6.2-7.3-5.9c-5.3,0-8.6,4.7-8.6,12s3.1,12.1,8.5,12.1c3.5,0.1,6.7-2.3,7.4-5.8
			L1019.8,782.7L1019.8,782.7z"/>
		<path class="st5" d="M1033.5,777.6c0,6.2,3.2,10.7,8.6,10.7c3.3,0.4,6.5-1.6,7.5-4.8h6.4c-1.7,6.3-7.6,10.5-14.1,10
			c-10.5,0-14.8-8.4-14.8-16.9c0-9.9,5-17.6,15.1-17.6c10.7,0,14.3,8.5,14.3,15.7c0,1,0,1.8,0,2.7L1033.5,777.6z M1050.1,773.3
			c0-5.1-2.7-9.3-8-9.3s-7.9,3.8-8.4,9.3H1050.1z"/>
		<path class="st5" d="M1070.2,783.4c0.9,3.5,4.2,5.7,7.7,5.3c4.5,0,6.3-1.9,6.3-4.7s-1.5-4.2-7.5-5.6c-9.7-2.4-11.6-5.3-11.6-9.8
			c0-4.5,3.4-9.4,12.2-9.4c8.8,0,12.3,5,12.7,9.6h-6.1c-0.7-3.1-3.6-5.2-6.8-4.8c-4.3,0-5.6,2.1-5.6,4.1c0,2,1.3,3.4,7.2,4.8
			c10.2,2.4,12.1,5.8,12.1,10.7c0,5.7-4.5,10.1-13.1,10.1s-13-4.4-13.8-10.3L1070.2,783.4z"/>
	</g>
</g>
</svg>
