<svg xmlns="http://www.w3.org/2000/svg" viewBox="0 0 54.97 47.85"><defs><style>.cls-1{fill:#4fb5e6;}.cls-2{fill:#322f31;}</style></defs><g id="Layer_2" data-name="Layer 2"><g id="Layer_1-2" data-name="Layer 1"><polygon class="cls-1" points="39 17.57 29.43 27.14 28.31 28.26 16.72 16.67 9.45 23.93 20.37 34.86 20.3 34.93 27.8 42.42 45.82 24.4 39 17.57"/><path class="cls-2" d="M43.81,12.76h0l-1.49-1.49-.31.32-3.25,3.24h0l-2.07-2.07h0L35.2,11.27h0l-1.49,1.49h0l-9,9h0l-1.49,1.49h0l1.49,1.49h0l2.07,2.07h0l1.49,1.49h0l1.49-1.49,9-9h0l6.11,6.12L27.49,41.31,10.1,23.93,27.49,6.54h0L29,5.05h0L27.49,3.56h0L23.93,0,0,23.93,23.93,47.85l3.56-3.56,3.56,3.56L55,23.93ZM23.93,44.87,3,23.93,23.93,3,26,5.05,7.12,23.93,26,42.8Zm4.38-19.59-2.07-2.07,9-9,2.07,2.07ZM29,42.8,47.85,23.93l-7.6-7.61,2.07-2.07L52,23.93,31.05,44.87Z"/></g></g></svg>