<svg xmlns="http://www.w3.org/2000/svg" viewBox="0 0 60 60"><defs><style>.cls-1{fill:#fff;}.cls-2{fill:#4fb5e6;}.cls-3{fill:#322f31;}</style></defs><g id="Layer_2" data-name="Layer 2"><g id="Layer_1-2" data-name="Layer 1"><rect class="cls-1" width="60" height="60" rx="5.5"/><g id="Layer_2-2" data-name="Layer 2"><g id="Layer_1-2-2" data-name="Layer 1-2"><polygon class="cls-2" points="41.52 23.64 31.95 33.22 30.82 34.34 19.23 22.75 11.96 30 22.89 40.94 22.82 41.01 30.32 48.49 48.34 30.48 41.52 23.64"/><path class="cls-3" d="M46.33,18.84h0l-1.5-1.49-.31.32-3.25,3.24h0L39.2,18.84h0l-1.48-1.49h0l-1.5,1.49h0l-9,9h0l-1.49,1.49h0l1.49,1.49h0l2.07,2.07h0l1.49,1.49h0l1.49-1.49,9-9h0L47.38,30,30,47.39,12.61,30,30,12.62h0l1.51-1.49h0L30,9.64h0L26.44,6.08,2.51,30,26.44,53.92,30,50.36l3.56,3.56L57.51,30ZM26.44,50.94,5.51,30,26.44,9.08l2.07,2.05L9.63,30,28.51,48.88Zm4.39-19.59-2.07-2.07,9-9,2.07,2.07Zm.68,17.53L50.36,30l-7.6-7.61,2.07-2.07L54.51,30,33.56,50.94Z"/></g></g></g></g></svg>