<?xml version="1.0" encoding="utf-8"?>
<!-- Generator: Adobe Illustrator 26.0.2, SVG Export Plug-In . SVG Version: 6.00 Build 0)  -->
<svg version="1.1" id="Layer_1" xmlns="http://www.w3.org/2000/svg" xmlns:xlink="http://www.w3.org/1999/xlink" x="0px" y="0px"
	 viewBox="0 0 1920 1080" style="enable-background:new 0 0 1920 1080;" xml:space="preserve">
<style type="text/css">
	.st0{opacity:0.6;fill:#004D71;enable-background:new    ;}
	.st1{opacity:0.4;fill:#004D71;enable-background:new    ;}
	.st2{opacity:0.2;fill:#004D71;enable-background:new    ;}
	.st3{opacity:0.8;fill:#004D71;enable-background:new    ;}
	.st4{fill:#231F20;}
	.st5{fill:#004D71;}
</style>
<g id="Layer_2_00000034782915117124811570000014777127906149318323_">
	<g id="Layer_1-2_00000122705931857278973200000006888790194504711335_">
		<path class="st0" d="M1103.6,244.2v90.3c21.9,0.7,43.1,8,60.7,21l60.8-60.9C1191.9,263.9,1148.8,246.1,1103.6,244.2z"/>
		<path class="st1" d="M1173.7,362.6c19.5,17.1,31.6,41,33.9,66.8h79.3c-1.4-47.5-20.6-92.7-53.8-126.7L1173.7,362.6z"/>
		<path class="st2" d="M1175.1,513.3l56.7,56.7c34.1-34.2,53.8-80.2,55.1-128.5h-79.1C1207,468.9,1195.2,494.8,1175.1,513.3z"/>
		<path class="st3" d="M961.4,299.6l62.1,62.1c19-16.7,43.1-26.3,68.4-27.1v-90.3C1042.9,245.2,996.2,265,961.4,299.6z"/>
		<path class="st4" d="M785.4,834.9l20.5-40.7c1.6-3.2,2.9-6.5,4-9.9c0.9-2.6,1.4-5.4,1.4-8.2c0.2-2.7-0.4-5.3-1.7-7.6
			c-1.2-1.6-3.2-2.5-5.3-2.4c-2.3-0.2-4.6,1.1-5.6,3.2c-1.4,3.4-2,7.1-1.7,10.8v2.7h-9.7c0-0.5,0-1,0-1.5v-2
			c-0.4-5.9,1.1-11.7,4.4-16.6c3.4-3.9,8.5-6,13.7-5.5c4.7-0.3,9.2,1.6,12.5,5c3.2,3.9,4.8,8.9,4.5,14c0,3.7-0.6,7.3-1.7,10.8
			c-1.6,4.6-3.6,9-6,13.1l-14.2,25.5h19.9v9.8L785.4,834.9z"/>
		<path class="st4" d="M876.5,796.5c0-8.4,0-14.7,0.6-18.9c0.1-3.3,0.8-6.5,1.9-9.6c1.1-3.3,3.1-6.2,5.8-8.4
			c5.6-3.3,12.6-3.3,18.2,0c2.6,2.2,4.6,5.1,5.8,8.4c1,3.1,1.6,6.3,1.8,9.6c0,4.3,0.5,10.8,0.5,18.9s0,14.5-0.5,18.7
			c-0.2,3.3-0.8,6.5-1.8,9.7c-1.2,3.2-3.2,6.1-5.8,8.3c-5.6,3.3-12.6,3.3-18.2,0c-2.7-2.2-4.7-5-5.8-8.3c-1.2-3.1-1.8-6.3-1.9-9.6
			C876.7,811.2,876.5,804.8,876.5,796.5z M886.5,796.5c-0.4,8.3,0.2,16.5,1.6,24.6c1.1,3.8,3,5.6,5.8,5.6c2.8,0,4.7-1.8,5.8-5.5
			c1.4-8.2,2-16.5,1.6-24.8c0.4-8.3-0.2-16.7-1.6-24.9c-1.1-3.7-3-5.5-5.8-5.5s-4.7,1.8-5.8,5.6c-1.4,8.1-2,16.4-1.6,24.6V796.5z"/>
		<path class="st4" d="M964.4,834.9l20.5-40.7c1.6-3.2,2.9-6.5,4-9.9c0.8-2.6,1.3-5.4,1.4-8.2c0.1-2.7-0.6-5.3-1.9-7.6
			c-1.2-1.6-3.2-2.5-5.3-2.4c-2.4-0.2-4.6,1.1-5.7,3.2c-1.3,3.4-1.8,7.1-1.6,10.8v2.7h-8.9c-0.1-0.5-0.1-1,0-1.5v-2
			c-0.4-5.9,1.1-11.7,4.4-16.6c3.3-3.8,8.2-5.9,13.2-5.5c4.7-0.2,9.2,1.6,12.5,5c3.2,3.9,4.8,8.9,4.5,14c-0.1,3.7-0.7,7.3-1.8,10.8
			c-1.5,4.6-3.5,9-5.9,13.1l-14.3,25.5h19.7v9.8L964.4,834.9z"/>
		<path class="st4" d="M1055.5,796.5c0-8.4,0-14.7,0-18.9c0.2-3.3,0.9-6.5,1.9-9.6c1.1-3.3,3.1-6.2,5.8-8.4c2.7-1.7,5.9-2.6,9.1-2.5
			c3.2-0.1,6.4,0.7,9,2.5c2.7,2.2,4.7,5.1,5.8,8.4c1.1,3.1,1.7,6.3,1.9,9.6c0,4.3,0,10.8,0,18.9s0,14.5,0,18.7
			c-0.2,3.3-0.9,6.6-1.9,9.7c-1.1,3.3-3.1,6.1-5.8,8.3c-2.7,1.8-5.8,2.7-9,2.5c-3.2,0.2-6.4-0.7-9.1-2.5c-2.7-2.2-4.7-5-5.8-8.3
			c-1.1-3.1-1.7-6.3-1.9-9.6C1055.7,811.2,1055.5,804.8,1055.5,796.5z M1065.5,796.5c-0.4,8.3,0.2,16.5,1.6,24.6
			c1.1,3.8,3,5.6,5.8,5.6s4.7-1.8,5.8-5.5c1.3-8.2,1.8-16.5,1.5-24.8c0.3-8.3-0.2-16.6-1.5-24.9c-1.1-3.7-3-5.5-5.8-5.5
			c-2.8,0-4.7,1.8-5.8,5.6c-1.4,8.1-2,16.4-1.6,24.6V796.5z"/>
		<path class="st5" d="M633.1,612.9c5.7,5.1,12.1,9.3,19.1,12.5c6.1,2.7,12.6,4.2,19.3,4.2c8.7,0.3,17.1-2.8,23.5-8.6
			c5.9-5.6,9.3-13.4,9.1-21.5c0-10.8-8.4-23.8-25-39.6c-2.3-2.2-3.9-3.8-5.1-4.7c-12.5-11.1-23.4-23.9-32.3-38.1
			c-5.7-10.3-8.7-22-8.6-33.8c-0.8-18.9,6.2-37.2,19.2-50.9c13.1-13.2,31.1-20.4,49.7-19.7c6.7,0,13.3,0.9,19.8,2.6
			c6.7,1.7,13.2,4.3,19.3,7.5v46.7c-4.3-5.4-9.8-9.7-16-12.7c-6.3-2.8-13.1-4.1-20-4c-7.7-0.3-15.3,2.6-20.8,8.1
			c-5.4,5.3-8.3,12.7-8.1,20.2c0,10.8,8.1,23.7,24,38.3c3.2,2.9,5.6,5.1,7.1,6.6c12.4,10.6,22.9,23.3,31.1,37.4
			c5.9,11.4,8.9,24.2,8.7,37c0.9,18.7-6,37-19.2,50.4c-14,13.1-32.7,20-51.8,18.9c-7.2,0-14.5-0.8-21.5-2.3
			c-7.4-1.6-14.6-3.9-21.5-6.8V612.9z"/>
		<path class="st5" d="M785.5,665.1V274.1h45.6v167.8c5.2-8.9,12.6-16.4,21.5-21.5c8.6-4.6,18.2-7,28-6.7
			c20.9-0.5,39.9,11.8,48,31.1c10.3,20.7,15.5,53,15.5,96.9s-5.2,76.1-15.5,96.9c-8.1,19.3-27.1,31.6-48,31.1
			c-9.7,0.2-19.2-2.1-27.7-6.9c-8.8-5.3-16.2-12.7-21.5-21.5v23.9H785.5z M829.4,541.8c-1.1,22.5,1.7,45,8.3,66.5
			c4.7,14.5,20.3,22.5,34.8,17.8c8.4-2.7,15.1-9.4,17.8-17.8c6.4-21.6,9.1-44.1,7.9-66.5c1.2-22.5-1.4-45.1-7.9-66.7
			c-4.7-14.5-20.3-22.5-34.8-17.8c-8.4,2.7-15.1,9.4-17.8,17.8C831,496.6,828.2,519.2,829.4,541.8z"/>
		<path class="st5" d="M1086.9,661.1c-6,2.9-12.2,5.1-18.6,6.8c-6.1,1.5-12.3,2.3-18.6,2.3c-22.9,1.2-44.4-10.9-55.2-31.1
			c-11.8-20.8-17.8-53.1-17.8-96.9c0-42.2,6-74.2,18-96c9.6-20.1,30.1-32.8,52.4-32.3c6.9,0,13.8,0.8,20.5,2.4
			c6.7,1.7,13.2,4.1,19.4,7.2v43.6c-3.6-3.8-7.8-7.1-12.5-9.6c-4-1.8-8.3-2.7-12.7-2.7c-13.6,0.2-25.4,9.2-29.4,22.2
			c-7.5,21.4-10.8,44.1-9.7,66.8c-1.1,20.9,2.1,41.7,9.5,61.2c4.3,12.1,15.8,20.2,28.6,20.2c4.7,0.1,9.4-0.8,13.7-2.7
			c4.7-2,9-4.7,12.7-8.2L1086.9,661.1z"/>
	</g>
</g>
</svg>
